<?xml version="1.0" encoding="UTF-8"?><svg id="a" xmlns="http://www.w3.org/2000/svg" xmlns:xlink="http://www.w3.org/1999/xlink" viewBox="0 0 218.24 40"><defs><style>.c{fill:#e70f89;}.d{fill:none;}.e{clip-path:url(#b);}</style><clipPath id="b"><rect class="d" x="12" y="9.68" width="194.24" height="20.64"/></clipPath></defs><g class="e"><path class="c" d="M12.81,10.1h2.25c.17,0,.31.04.43.11.17.11.28.26.35.45.06.18.15.37.23.58.15.35.28.7.4,1.05.12.35.26.7.4,1.05.13.34.26.67.37,1.01.11.34.24.67.39,1.01.11.26.22.53.31.81.1.28.2.54.31.81.34.83.66,1.66.95,2.51.29.84.62,1.67.95,2.51.04.1.07.18.1.28s.06.18.1.28c.17.41.33.82.48,1.23.15.42.31.83.48,1.23.07.17.15.36.22.59.07.23.2.36.37.4.07.01.13.01.17-.01.04-.02.07-.06.11-.1.1-.1.16-.19.21-.3.05-.11.1-.23.16-.36.15-.39.29-.78.45-1.18.15-.4.29-.78.45-1.18.04-.1.07-.19.11-.29.04-.1.07-.2.11-.33.15-.35.28-.71.4-1.07s.26-.72.4-1.1c.45-1.07.87-2.14,1.25-3.24.39-1.08.81-2.17,1.25-3.24.15-.37.29-.75.44-1.13.13-.39.28-.77.44-1.13.07-.14.15-.34.21-.55.06-.22.16-.37.29-.47.11-.07.26-.13.44-.17.18-.04.38-.06.6-.07h.67c.22,0,.43.01.62.01h.51c.18,0,.32.04.4.11.17.1.26.26.28.49.01.24.02.49.02.77v16.95c0,.2,0,.41.01.61,0,.2-.04.36-.12.47-.06.11-.13.18-.26.2-.11.02-.24.06-.39.1h-.45c-.25,0-.47,0-.67-.01-.21,0-.35-.08-.45-.23-.04-.06-.06-.12-.07-.18,0-.06-.04-.14-.07-.23v-.3c-.02-.11-.02-.24-.01-.39,0-.14.01-.29.01-.42v-11.08c0-.47,0-.93-.02-1.37,0-.18,0-.39-.02-.61-.01-.22-.12-.32-.31-.32v.02c-.13.04-.24.16-.32.36-.09.2-.16.37-.21.53-.13.31-.26.64-.37.95-.11.33-.25.64-.39.95-.04.1-.06.18-.09.25-.01.07-.05.16-.09.25-.15.34-.28.67-.38,1.01-.1.34-.23.67-.38,1.01-.13.28-.24.55-.34.84-.1.29-.2.57-.31.84-.38.87-.71,1.75-1.02,2.61-.31.88-.62,1.75-.99,2.59-.15.34-.28.66-.39,1-.11.34-.23.66-.37,1-.1.2-.18.4-.27.57-.09.18-.25.3-.49.37-.04.02-.09.02-.12.01-.05,0-.1,0-.16.01-.06.01-.12.02-.2.01-.07,0-.15-.01-.22-.01h-.56c-.18,0-.34-.05-.45-.13-.15-.1-.26-.23-.33-.4-.06-.18-.15-.36-.23-.54-.15-.37-.29-.75-.44-1.14-.13-.4-.28-.78-.44-1.14-.15-.34-.28-.67-.38-1.01-.11-.34-.23-.67-.38-1.01-.43-1.04-.83-2.07-1.21-3.13-.38-1.05-.78-2.1-1.21-3.13-.15-.39-.29-.78-.44-1.18-.13-.4-.28-.78-.44-1.14-.1-.2-.17-.4-.24-.59-.06-.19-.17-.36-.29-.52-.02-.04-.04-.06-.06-.07-.01,0-.04-.02-.06-.04h-.15s-.04.04-.06.04-.04.02-.06.04c-.04.1-.06.19-.06.3s-.02.22-.06.34v.3c-.04.11-.05.23-.02.36s.02.27.02.39v12.1c0,.2,0,.41-.01.61,0,.2-.06.36-.16.47-.1.14-.26.23-.49.23s-.48.01-.75.01h-.35c-.1,0-.2-.01-.29-.06-.24-.07-.38-.23-.4-.47-.02-.24-.04-.52-.04-.83V11.57c.09-.2.07-.41.07-.64,0-.22.04-.4.12-.53.07-.11.22-.2.42-.28.04-.01.09-.02.12-.01.05,0,.09,0,.12-.01M67.74,28.38c-.21-.48-.4-.96-.6-1.47-.2-.49-.4-.99-.6-1.47-.06-.17-.11-.32-.16-.47-.05-.15-.11-.3-.18-.47-.58-1.35-1.13-2.71-1.65-4.08-.51-1.37-1.05-2.73-1.62-4.08-.17-.37-.32-.75-.46-1.13-.13-.39-.28-.77-.44-1.13-.18-.42-.35-.84-.5-1.28-.15-.42-.32-.84-.5-1.28-.1-.2-.18-.43-.27-.67-.09-.25-.2-.43-.35-.54-.21-.14-.54-.22-.99-.2-.45,0-.84.01-1.19.01-.04.02-.09.02-.12.01-.05,0-.09,0-.12.01-.17.04-.29.1-.37.17-.17.11-.29.29-.38.54-.09.25-.17.48-.27.67-.21.48-.4.98-.58,1.47-.18.49-.37.99-.58,1.47-.56,1.35-1.1,2.7-1.6,4.06-.5,1.36-1.04,2.7-1.6,4.03-.17.41-.33.81-.48,1.2-.15.4-.31.79-.48,1.2-.25.59-.46,1.18-.67,1.76-.21.58-.44,1.17-.71,1.76-.04.06-.07.14-.12.27-.05.12-.09.24-.11.36-.02.12-.04.24-.02.35,0,.11.06.19.16.25.1.07.21.12.35.12s.28.01.44.01c.28,0,.55,0,.81-.01.26,0,.45-.07.6-.18.07-.06.15-.14.21-.27.06-.12.12-.25.18-.4.06-.14.11-.29.16-.43.05-.13.09-.26.12-.37.18-.42.37-.87.53-1.33.16-.46.33-.9.51-1.32.1-.24.17-.47.23-.71.07-.23.17-.43.32-.63.07-.11.2-.18.35-.23.16-.04.33-.06.51-.08.18-.02.38-.02.59-.01.21,0,.39.01.56.01h5.32c.13,0,.26,0,.38-.01.12,0,.23,0,.32.04.18.06.34.13.45.22.11.1.21.2.27.34.06.13.12.27.17.42.05.14.1.3.16.47.21.49.39,1.01.56,1.52.17.52.36,1.01.56,1.49.1.22.18.47.27.75.09.28.22.47.4.58.17.1.39.13.69.13h1.22c.13,0,.24-.01.34-.06.13-.06.21-.14.24-.26.02-.12.02-.25,0-.39-.02-.14-.07-.26-.12-.4-.06-.13-.1-.24-.15-.34M61.73,21.64c-.15.06-.38.08-.67.07-.29,0-.55-.01-.76-.01h-3.01c-.27,0-.54,0-.84-.01-.29,0-.5-.08-.59-.23-.04-.07-.06-.17-.07-.28,0-.11,0-.22.04-.3.04-.14.09-.3.15-.45l.17-.45c.04-.1.07-.18.1-.28.02-.1.06-.18.1-.28.31-.7.56-1.42.81-2.16.23-.73.51-1.47.83-2.19.1-.2.17-.41.22-.61.06-.2.13-.41.22-.61.04-.11.07-.22.11-.31s.1-.19.17-.29c.04-.04.07-.06.11-.08.04-.01.07-.05.11-.08.15,0,.25.04.29.12.05.08.09.17.12.27.1.18.17.37.23.58s.15.41.24.61c.28.66.53,1.35.75,2.04.22.69.46,1.37.75,2.04.07.17.13.33.18.48.05.16.1.31.16.46.04.07.06.14.06.19s.01.12.06.19c.06.11.11.24.18.4.07.16.11.31.15.47.02.16.01.3-.02.43-.05.13-.16.22-.32.28M86.75,10.1s-.09.02-.16.01c-.06,0-.12,0-.16.01-.17.07-.28.16-.34.25-.1.14-.15.35-.15.59v18.11c0,.19.05.35.15.46.1.14.25.23.45.25.21.02.44.02.7.02h.56c.11-.04.22-.07.31-.1.1-.02.16-.08.2-.18.04-.07.07-.2.11-.39v-.22c.04-.1.05-.2.04-.34,0-.13-.01-.24-.01-.34v-11.92c0-.14,0-.3-.02-.46-.01-.16,0-.3.02-.43v-.19c.04-.11.07-.22.09-.34.02-.11.09-.18.2-.22.06-.02.1,0,.13.02.04.04.07.06.11.08.13.1.23.2.31.31.07.12.15.24.22.37.67.98,1.32,1.95,1.95,2.9.36.55.72,1.1,1.09,1.64.37.53.72,1.08,1.09,1.64.66,1.01,1.31,2.01,1.97,2.99.66.98,1.32,1.96,1.99,2.96.15.24.31.48.46.72.16.24.32.47.46.69.1.13.18.27.27.39.09.13.21.22.35.28.15.07.34.11.57.11h1.42c.15-.04.28-.07.38-.1.1-.02.2-.1.27-.2.1-.11.13-.27.12-.47,0-.2-.01-.41-.01-.61V11.46c0-.31-.01-.59-.05-.82-.02-.23-.16-.4-.38-.48-.1-.04-.21-.06-.32-.06h-.35c-.26,0-.5,0-.73.01-.22,0-.39.08-.5.23-.04.06-.06.12-.07.19,0,.07-.04.14-.07.22v.3c-.04.13-.05.27-.02.41.01.15.02.29.02.42v12.9c0,.2-.05.36-.15.47,0,.02-.05.05-.13.08-.21,0-.38-.11-.53-.31-.13-.22-.26-.39-.35-.54-.32-.48-.64-.96-.97-1.46s-.65-.99-.97-1.48c-.15-.25-.32-.51-.49-.73-.18-.23-.34-.47-.49-.73-.58-.88-1.16-1.77-1.74-2.64-.59-.88-1.15-1.76-1.71-2.65-.13-.2-.27-.4-.4-.59-.15-.19-.28-.4-.4-.6-.24-.39-.49-.77-.75-1.14-.26-.37-.5-.75-.75-1.12-.11-.17-.23-.36-.37-.57-.13-.22-.27-.37-.42-.48-.21-.14-.51-.22-.93-.2-.42,0-.78.01-1.13.01M138.4,19.47c0-.39,0-.78-.01-1.18,0-.4-.06-.76-.16-1.1-.04-.11-.06-.22-.06-.31s-.02-.2-.06-.31c-.06-.2-.11-.41-.16-.63-.05-.22-.11-.42-.18-.63-.07-.14-.13-.29-.2-.43-.06-.13-.12-.28-.19-.43-.04-.07-.06-.13-.09-.19-.03-.06-.05-.12-.09-.19-.1-.13-.17-.25-.24-.37-.06-.12-.15-.24-.23-.35-.07-.11-.16-.22-.23-.3-.09-.1-.17-.19-.25-.3-.06-.04-.13-.1-.22-.19-.1-.1-.18-.18-.28-.28-.1-.1-.2-.18-.31-.28-.06-.04-.11-.08-.17-.12-.06-.05-.11-.08-.17-.12-.21-.14-.44-.29-.7-.45-.32-.2-.66-.36-1.04-.48-.38-.12-.77-.24-1.19-.37-.18-.06-.38-.1-.56-.12-.18-.02-.39-.06-.59-.1-.1-.01-.18-.02-.27-.02s-.17,0-.27-.02-.19-.02-.31-.02-.22,0-.31-.02c-.1-.01-.2-.01-.29,0-.1.02-.21,0-.29-.02-.07-.01-.16-.02-.23-.01-.09,0-.17.01-.27.01h-6.11s-.07.02-.11.01c-.04,0-.07,0-.11.01-.21.04-.34.12-.42.25-.1.14-.13.35-.12.59,0,.25.01.48.01.71v16.37c0,.22,0,.47-.01.75,0,.28.02.49.1.64.07.2.22.31.44.35.22.02.46.04.75.04h5.63c.07,0,.15,0,.22.01.07,0,.15,0,.2-.01h.39c.18-.04.38-.06.58-.06s.4-.02.61-.06c.22-.06.45-.1.69-.12.23-.02.45-.08.66-.16.46-.15.91-.3,1.31-.46.4-.16.78-.35,1.14-.57.71-.45,1.31-.99,1.79-1.63.48-.64.88-1.35,1.2-2.14.1-.22.17-.45.23-.67.06-.23.12-.46.18-.67.1-.26.15-.53.17-.82.01-.29.06-.55.11-.82.01-.1.02-.19.02-.29s0-.19.02-.29c.01-.04.02-.1.01-.17,0-.07,0-.13.01-.19v-.28c.04-.13.05-.28.04-.46,0-.18-.01-.34-.01-.48M135.73,21.14c0,.06,0,.14-.02.23-.04.22-.07.45-.1.67-.02.23-.07.45-.12.65-.07.24-.15.48-.21.71-.06.23-.15.45-.23.65-.32.7-.73,1.31-1.22,1.82-.5.51-1.09.92-1.79,1.2-.21.1-.4.17-.6.22-.2.06-.39.11-.6.17-.13.04-.26.06-.37.07-.11,0-.22.04-.34.07-.11.02-.22.02-.33.01-.11,0-.22,0-.31.01h-.31c-.11.04-.25.05-.39.04-.15,0-.29-.01-.43-.01h-1.63c-.38,0-.77,0-1.19.01-.42,0-.7-.1-.84-.31-.04-.07-.07-.2-.11-.39v-.22c-.02-.07-.02-.16-.02-.24v-13.09c0-.1,0-.18.02-.25v-.22c.04-.18.07-.31.11-.39.04-.07.1-.13.18-.17.09-.04.17-.07.27-.11.04-.01.09-.02.15-.01.06,0,.1,0,.15-.01h3.66c.07,0,.13,0,.2.02h.59c.21.04.42.06.64.07.22,0,.43.04.64.1.21.06.4.11.59.16.18.05.37.12.54.2,1.03.42,1.81,1.05,2.34,1.88.32.49.58,1.08.78,1.75.04.14.07.29.1.43.02.13.06.28.1.43.06.2.09.41.1.6,0,.2.04.41.07.61,0,.07,0,.13.01.19,0,.06.01.11.01.17.04.13.05.26.05.4,0,.14-.01.28-.01.43v.63c0,.22-.01.41-.06.59v.2h-.05ZM156.3,10.1s-.04.02-.07.01c-.02,0-.05-.01-.07-.01-.1.04-.18.06-.27.08-.09.02-.14.07-.16.17-.06.06-.06.14-.02.28.05.18.15.36.28.53.24.37.49.72.72,1.07.23.34.48.7.72,1.07.64.94,1.26,1.88,1.86,2.81.6.93,1.22,1.87,1.86,2.81l1.1,1.66c.15.24.29.47.44.67.13.22.26.47.35.79v.36c.01.07.02.16.02.24v4.91c0,.17,0,.35-.01.55v.59c0,.19.02.37.06.55.02.18.09.3.16.37.1.13.26.19.48.19h.67c.1,0,.18,0,.27.01.09,0,.16,0,.23-.01.07-.01.15-.02.2-.01.06,0,.11,0,.17-.04.21-.1.34-.3.39-.64v-.47c.04-.14.05-.3.02-.47-.01-.17-.02-.33-.02-.47v-5.49c0-.14.01-.26.06-.37.1-.26.2-.48.32-.65.12-.18.24-.36.38-.57.21-.31.4-.61.59-.9.18-.29.38-.58.59-.87.62-.98,1.24-1.95,1.86-2.9.62-.96,1.26-1.91,1.91-2.85.1-.14.18-.29.26-.42.07-.13.16-.25.26-.39.15-.2.29-.41.43-.63.13-.22.27-.43.43-.65.06-.07.12-.19.18-.37.06-.18.04-.31-.1-.4-.1-.07-.22-.12-.37-.12s-.29-.01-.45-.01h-.94c-.31,0-.55.06-.72.19-.11.1-.21.19-.28.3-.07.11-.15.23-.22.36-.15.22-.29.45-.44.67-.13.23-.28.47-.43.71-.5.77-1,1.57-1.49,2.35-.49.79-.98,1.59-1.49,2.38-.17.26-.33.53-.49.81-.16.28-.33.54-.53.81-.04.07-.11.17-.21.26-.11.1-.23.13-.38.1-.15-.04-.27-.12-.36-.23-.09-.12-.16-.24-.24-.37-.18-.28-.37-.55-.55-.83-.18-.28-.37-.57-.55-.86-.5-.82-1.02-1.61-1.53-2.41-.51-.79-1.04-1.6-1.57-2.41-.14-.18-.26-.37-.37-.55-.11-.18-.22-.37-.34-.55-.1-.13-.18-.25-.27-.36-.09-.11-.2-.2-.36-.28-.21-.1-.51-.13-.93-.11-.42.01-.76.02-1.04.02M197.66,9.68s-.11.05-.22.02c-.11-.01-.2-.01-.26,0-.15.04-.32.06-.49.06s-.34.02-.49.06c-.15.04-.29.07-.43.1-.13.02-.27.06-.43.1-.54.14-1.03.33-1.43.53-.04.04-.09.06-.13.07-.06,0-.11.04-.15.07-.5.31-.97.66-1.38,1.04-.42.39-.75.84-1.02,1.4-.07.17-.14.34-.18.53-.05.18-.1.39-.16.58-.05.18-.11.45-.15.8-.04.34-.02.63.02.84v.17c0,.06.01.12.01.19.06.2.1.4.14.6.04.19.11.37.2.54.21.48.49.87.84,1.18.35.3.75.59,1.19.84.17.11.34.2.54.28.18.07.38.14.56.22.04.02.06.02.09.02.01,0,.05,0,.08.02.26.11.55.19.84.27.31.06.6.14.91.23.53.14,1.06.28,1.63.39.56.11,1.11.23,1.64.35.54.12,1.05.26,1.53.43.49.17.93.39,1.32.66.27.18.49.39.67.59.18.22.34.48.45.8.04.07.05.14.05.2s.02.14.06.24c.04.13.06.3.06.49s-.02.37-.06.53c-.04.14-.07.29-.11.45-.04.14-.09.3-.15.45-.21.46-.5.83-.89,1.1-.38.26-.82.51-1.31.71-.15.06-.31.1-.48.12-.17.02-.33.06-.48.1-.07.04-.14.05-.18.04-.05,0-.1,0-.16.01-.1.02-.18.02-.28.02s-.18,0-.28.02h-.2c-.1.04-.21.06-.35.06s-.25,0-.32-.02c-.1-.04-.2-.05-.29-.02-.11.02-.2.02-.27,0-.06,0-.11,0-.17-.01-.06,0-.1-.01-.15-.01-.15-.02-.29-.04-.45-.06-.15-.02-.31-.05-.45-.08-.43-.13-.83-.26-1.21-.41-.38-.14-.72-.34-1.04-.58-.64-.46-1.11-1.08-1.43-1.88-.06-.13-.1-.26-.12-.39-.02-.13-.06-.25-.1-.39-.04-.11-.06-.22-.07-.31,0-.1-.05-.19-.1-.29-.04-.07-.12-.14-.26-.22-.07-.04-.13-.05-.2-.04-.06,0-.13,0-.22-.01-.06-.01-.12-.02-.21-.02h-.24c-.21,0-.42,0-.64.02-.22.02-.37.1-.47.22-.1.1-.15.24-.15.46s.01.4.06.57c.04.1.06.19.07.3,0,.11.04.22.07.34.1.3.2.58.29.83.1.25.23.51.38.75.45.73.99,1.34,1.61,1.79.62.46,1.4.84,2.33,1.13.18.07.37.13.55.17.17.04.37.07.58.11.1.01.18.04.26.04s.15.02.22.04c.17.04.34.06.54.06s.38.02.56.06h.31c.1.02.23.02.4.02s.32,0,.4-.02c.11,0,.22,0,.34-.01.11,0,.22-.01.33-.01.1-.01.19-.02.29-.02s.2,0,.29-.02c.22-.06.45-.1.67-.12.22-.02.44-.07.65-.16.21-.06.39-.11.58-.17.18-.06.35-.12.55-.19.56-.25,1.09-.55,1.58-.89.49-.34.89-.73,1.21-1.22.17-.22.31-.46.43-.72.11-.26.22-.53.31-.81.05-.14.09-.3.1-.46,0-.16.04-.31.07-.46v-.22c0-.07,0-.14.02-.22v-.55c-.04-.11-.06-.23-.06-.35s-.03-.23-.06-.31c-.04-.18-.07-.36-.11-.53-.04-.17-.1-.32-.17-.49-.21-.46-.48-.87-.79-1.2-.33-.34-.7-.64-1.11-.9-.32-.2-.66-.37-1.02-.53-.35-.14-.72-.29-1.1-.42-.17-.06-.34-.11-.5-.16-.17-.05-.34-.08-.5-.12-.07-.02-.14-.04-.2-.04s-.12-.02-.2-.04c-.27-.1-.54-.17-.83-.2-.29-.05-.56-.11-.83-.18-.17-.06-.33-.1-.5-.11-.17-.01-.33-.05-.5-.08-.54-.14-1.06-.29-1.58-.42-.51-.13-.97-.33-1.38-.58-.35-.2-.64-.42-.83-.64-.2-.22-.35-.54-.49-.96-.04-.13-.06-.29-.07-.47,0-.18,0-.35.04-.49.04-.18.07-.35.1-.52.02-.16.07-.31.16-.46.15-.37.37-.67.67-.93.31-.25.64-.45,1.02-.59.66-.3,1.47-.45,2.45-.45h.45c.15,0,.31.02.45.06h.22c.11.04.22.06.34.07.11,0,.22.04.33.07.6.14,1.11.37,1.54.66.59.37,1.03.93,1.35,1.66.1.18.16.4.21.64.05.24.12.45.25.61.04.04.07.07.11.1.04.02.07.05.11.07.07.04.15.06.21.06s.15,0,.23.02c.07.02.15.02.22.02h.26c.23,0,.44,0,.65-.02.21-.02.35-.1.45-.22.05-.1.09-.23.1-.4,0-.18,0-.34-.05-.48-.1-.35-.18-.69-.28-1.01-.1-.32-.22-.61-.39-.87-.06-.1-.11-.19-.16-.29-.05-.11-.11-.2-.18-.29-.07-.1-.15-.18-.22-.28-.07-.1-.15-.18-.22-.28-.04-.06-.09-.11-.15-.16-.06-.05-.1-.08-.13-.12-.04-.04-.07-.07-.11-.1-.04-.02-.07-.06-.11-.1-.1-.1-.2-.17-.29-.22-.11-.06-.21-.12-.32-.19-.64-.41-1.37-.71-2.19-.92-.82-.2-1.77-.29-2.84-.25M183.01,9.92h-1.82v5.2h1.82v-5.29.08Z"/></g></svg>