<?xml version="1.0" encoding="UTF-8"?><svg id="a" xmlns="http://www.w3.org/2000/svg" xmlns:xlink="http://www.w3.org/1999/xlink" viewBox="0 0 184.11 40"><defs><style>.c{fill:none;}.d{fill:#6f7072;}.e{clip-path:url(#b);}</style><clipPath id="b"><rect class="c" x="12" y="5.98" width="160.11" height="28.04"/></clipPath></defs><g class="e"><path class="d" d="M104.26,19.88c0-4.39,0-8.78,0-13.17,0-.51.13-.68.67-.67,2.87.02,5.74-.01,8.62.02,1.78.02,3.5.37,5.08,1.23,1.77.96,2.86,2.42,3.35,4.36.56,2.23.42,4.37-.88,6.32-1.39,2.11-3.52,3-5.92,3.41-.2.03-.39.05-.59.08-.52.07-.64.33-.35.79,2.64,4.23,6.45,6.81,11.33,7.9.21.05.42.1.64.14.37.07.5.26.4.63-.24.87-.46,1.74-.68,2.62-.12.45-.35.56-.82.48-5.09-.89-8.85-3.63-11.39-8.04-.71-1.23-1.27-2.53-1.67-3.89-.13-.44-.36-.59-.81-.58-.85.03-1.71.03-2.55,0-.53-.02-.68.19-.68.69.01,3.53,0,7.06,0,10.58,0,.84,0,.85-.85.86h-2.43c-.3,0-.47-.08-.47-.44,0-4.43,0-8.86,0-13.29h.04,0ZM107.98,13.65c0,1.75.01,3.49-.01,5.23,0,.53.15.73.71.72,1.32-.03,2.65,0,3.98-.02,3.18-.04,5.96-2.91,5.72-6.38-.19-2.81-2.06-4.7-5.41-5.25-1.39-.23-2.81-.05-4.21-.11-.59-.03-.8.15-.79.75.04,1.68.01,3.37.01,5.05h0Z"/><path class="d" d="M72.98,19.83V6.89c0-.81.03-.83.83-.83,2.65,0,5.31-.05,7.96,0,3.21.08,6.3.67,9.04,2.46,3.31,2.16,5.33,5.17,5.98,9.07.48,2.86.16,5.64-1.16,8.18-1.96,3.77-5.11,6.22-9.26,7.37-1.17.32-2.36.47-3.58.47-2.99,0-5.98,0-8.97,0-.79,0-.83-.05-.83-.84v-12.94h0ZM76.77,20.18c0,3.71,0,7.41,0,11.12,0,.33.05.52.44.51,2.29-.06,4.59.17,6.86-.34,3.65-.82,6.29-2.85,7.78-6.27,1.06-2.44,1.32-4.96.86-7.6-.81-4.59-3.36-7.71-7.82-9.19-2.54-.84-5.23-.38-7.85-.45-.3,0-.34.21-.32.45.03.39.07.78.07,1.17,0,3.53,0,7.05,0,10.58h0Z"/><path class="d" d="M35.83,19.83v12.94q0,.85-.86.85h-2.02q-.84,0-.85-.86v-10.35c0-.6-.3-.9-.92-.9h-14.68c-.89,0-.88,0-.88.89v10.47c0,.78,0,.77-.78.77-.71,0-1.43-.03-2.14,0-.56.02-.71-.21-.71-.73.01-3.92,0-7.84,0-11.77V6.9c0-.58.3-.86.9-.86.67,0,1.35.03,2.02,0,.55-.03.71.18.71.72-.02,3.55,0,7.1,0,10.65,0,.53.02,1.06,0,1.59-.01.43.16.6.6.6,1.03-.01,2.06,0,3.09,0h12c.78,0,.79,0,.79-.8V6.86c0-.78.02-.79.79-.8.73,0,1.47.03,2.2-.01.58-.04.75.17.75.73-.02,4.35,0,8.71,0,13.06h0Z"/><path class="d" d="M169.24,33.61c-.31,0-.64-.03-.95,0-.73.1-1.11-.22-1.4-.87-1.01-2.28-2.07-4.53-3.11-6.8-.11-.25-.23-.4-.57-.39-4.1.02-8.2.04-12.3.02-.66,0-1,.17-1.26.82-.89,2.22-1.86,4.41-2.81,6.61-.23.53-1.4.88-1.89.56-.29-.19-.09-.43,0-.63.52-1.25,1.05-2.5,1.58-3.74,3.05-7.23,6.25-14.4,9.19-21.68.04-.09.08-.18.11-.27.54-1.26.74-1.36,2.11-1.2.4.05.51.32.65.6,1.11,2.38,2.24,4.76,3.34,7.15,1.2,2.6,2.41,5.2,3.65,7.78,1.79,3.76,3.53,7.53,5.29,11.3.3.65.23.75-.47.73-.4,0-.79,0-1.19,0h0ZM156.75,23.69h4.87c1.1,0,1.12,0,.65-1-1.79-3.8-3.59-7.6-5.39-11.4-.1-.2-.13-.54-.4-.52-.25.02-.25.36-.34.57-1.69,3.91-3.37,7.82-5.06,11.73-.23.55-.21.61.4.61,1.76,0,3.53,0,5.29,0h-.01Z"/><path class="d" d="M52.38,28.21v-4.53c0-.34-.05-.65-.22-.96-2.35-4.25-4.7-8.49-7.05-12.73-.62-1.11-1.25-2.23-1.87-3.34-.28-.5-.22-.6.37-.6.91,0,1.83.03,2.73,0,.49-.02.76.17.99.57,1.13,2.07,2.28,4.13,3.42,6.19,1.32,2.39,2.65,4.77,3.98,7.16.11.2.19.52.42.53.29,0,.31-.35.44-.56,2.42-4.17,4.82-8.33,7.23-12.5.03-.05.06-.1.09-.15.75-1.3,1.02-1.43,2.52-1.22.54.08.25.37.13.58-.93,1.59-1.88,3.18-2.81,4.78-2.17,3.71-4.25,7.49-6.49,11.15-.17.27-.15.56-.15.85v9.41c0,.81,0,.81-.82.79-.71-.01-1.42-.03-2.14,0-.58.03-.76-.22-.76-.76.02-1.55,0-3.1,0-4.64h0Z"/><path class="d" d="M137.56,19.88v12.76c0,.64-.33.96-1,.97-.69,0-1.39-.01-2.08,0-.47.01-.64-.19-.62-.64.02-.47,0-.94,0-1.41V6.92c0-.59.29-.88.88-.88.69,0,1.39.03,2.08-.01.58-.04.76.17.75.73-.02,2.53-.01,5.06-.01,7.59v5.53h0Z"/></g></svg>