<?xml version="1.0" encoding="UTF-8"?><svg id="a" xmlns="http://www.w3.org/2000/svg" xmlns:xlink="http://www.w3.org/1999/xlink" viewBox="0 0 53.47 40"><defs><style>.c{fill:#211e1f;}.d{fill:none;}.e{clip-path:url(#b);}.f{fill:#fff;stroke:#000;stroke-miterlimit:10;stroke-width:.25px;}</style><clipPath id="b"><rect class="d" x="12" y="4.26" width="29.47" height="31.49"/></clipPath></defs><g class="e"><path class="c" d="M22.08,17.38c.17,1.27.36,2.28.63,2.99,0,0,2.21,4.44,5.5-9.13.09-3.21.48-5.87.57-6.44-.96-.36-2.01-.56-3.09-.56s-2.22.22-3.22.6c-.12,1.19-.86,8.92-.39,12.52"/><path class="c" d="M31.43,17.38c.15,1.14.32,2.07.55,2.76,1.7-1.68,2.76-4.03,2.76-6.64,0-2.76-1.19-5.24-3.07-6.94-.24,2.79-.6,8.04-.23,10.82"/><path class="c" d="M29.23,20.24c-.47-1.34-.74-2.88-.89-4.46-.35,1.11-.77,2.2-1.22,3-.83,1.44-1.55,2.54-2.4,3.12-.25.23-.54.46-.85.65.59.12,1.2.19,1.82.19,1.51,0,2.94-.38,4.2-1.05-.23-.38-.45-.86-.66-1.44"/><path class="c" d="M19.87,20.24c-1.4-4.06-1.08-9.87-.74-13.12-1.55,1.66-2.49,3.9-2.49,6.37,0,2.93,1.33,5.54,3.42,7.23-.06-.15-.12-.31-.18-.49Z"/><path class="f" d="M31.98,20.14c-.62.61-1.33,1.14-2.1,1.55,2.11,3.44,5.21-.92,5.21-.92-1.69,1.35-2.56,1.05-3.11-.63Z"/><path class="c" d="M17.72,27.87v4.34c0,1.49-.95,2.23-2.87,2.23s-2.86-.74-2.86-2.23v-4.34h2.18v4.39c0,.57.1.96.28,1.16.19.21.54.31,1.05.31.98,0,1.48-.51,1.48-1.53v-4.34h.73Z"/><path class="c" d="M23.94,27.87v6.46h-1.67l-3.14-4.09v4.09h-.73v-6.46h1.38l3.42,4.42v-4.42h.73Z"/><path class="c" d="M27.38,27.87h-2.18v6.47h2.18v-6.47Z"/><path class="c" d="M32.01,33.84c-.08-.48-.26-.71-.53-.71-.21,0-.4.12-.56.35.15.31.39.46.72.46.11,0,.24-.03.36-.1M30.78,32.91c.26-.31.54-.48.85-.48.34,0,.62.19.85.57.15-.54.23-1.2.23-1.99,0-1.05-.07-1.77-.22-2.15-.14-.38-.42-.58-.82-.58s-.67.2-.82.59c-.15.39-.23,1.1-.23,2.14,0,.85.05,1.48.14,1.89h0ZM34.36,34.13l.59.18c.01.12.02.2.02.25,0,.79-.43,1.18-1.29,1.18s-1.36-.43-1.56-1.3c-.14.01-.27.01-.4.01-2.24,0-3.36-1.12-3.36-3.35s1.11-3.33,3.35-3.33,3.31,1.14,3.31,3.41c0,1.49-.57,2.49-1.71,2.98.17.4.39.6.64.6.31,0,.46-.17.43-.51,0-.03,0-.07-.02-.12h0Z"/><path class="c" d="M36.79,32.28h1.84l-.89-2.86-.96,2.86ZM39.38,27.87l2.09,6.47h-2.19l-.44-1.4h-2.26l-.48,1.4h-.85l2.22-6.47h1.91,0Z"/></g></svg>