<?xml version="1.0" encoding="UTF-8"?><svg id="a" xmlns="http://www.w3.org/2000/svg" viewBox="0 0 228.55 40"><defs><style>.b{fill:#545754;}</style></defs><path class="b" d="M215.49,12.06h0v.03s-.02-.02-.04-.05l-2.98-1.58c-.63-.15-1.34-.24-2.13-.24h-2.11v9.97c0,5.47.04,8.11.18,9.6h.03l1.03,3.06h-7.67l1.03-3.06h0c.15-1.54.2-4.29.2-9.96v-9.61h-2.08c-.8,0-1.53.09-2.16.24l-2.99,1.58s-.03.04-.04.05c0,0,0-.02,0-.03h0v-4.87h19.72v4.87ZM70.36,7.16l.32.61c.75,1.44.89,1.58.89,12.05v8.42s-.29-1.22-1.07-2.77l-9.05-18.31s-.15,0-.43.02l-7.12-.02,1.03,3.05c.15,1.49.19,4.13.19,9.61s-.07,8.4-.23,9.96h0l-1.04,3.06h.05,0,6.23l-.04-.08-.99-2.93c-.15-1.48-.19-4.12-.19-9.65v-8.35c.04.11.36,1.37.97,2.59l9.2,18.46s1.43-.11,3.51-.11c1.9,0,2.79.11,2.79.11v-12.7c0-5.82.07-8.59.24-10.12l.98-2.9h-6.23ZM155.9,20.9l1.08,3.06h0c.13,1.19.18,2.95.18,5.83,0,0-.71.14-2.11.14-6.19,0-8.02-3.82-8.02-9.68,0-8.09,4.29-10.11,8.59-10.11,3.4,0,4.9,1.12,6.55,3.45,0,0-.11-1.15-.11-2.88,0-1.94.11-2.73.11-2.73,0,0-2.04-1.04-6.94-1.04-8.66,0-13.7,4.46-13.7,13.53,0,7.09,4.08,12.59,13.45,12.59,4.51,0,7.16-1.08,7.16-1.08v-.22c0-4.21.06-6.46.2-7.81l1.03-3.06h-7.47ZM34.84,10.17l1.01-3.01h-7.62v.02s1.03,3.03,1.03,3.03c.14,1.3.19,3.48.19,7.64h-9.98c0-4.12.05-6.31.18-7.62h0l1.02-3.05v-.02s0,0,0,0h-7.62l1.03,3.05c.15,1.49.19,4.13.19,9.61,0,5.77-.05,8.51-.21,10.04l-1.01,2.99h7.62,0s-1.02-3.06-1.02-3.06h-.02c-.13-1.38-.17-3.73-.17-8.34h9.98c0,4.72-.07,7.09-.22,8.46l-.99,2.93h0s.02.01.02.01h7.6l-1.03-3.06h0c-.14-1.49-.18-4.13-.18-9.6s.05-8.47.2-10.01M47.75,10.16l1.01-2.99h0s0,0,0,0h-7.62,0s1.03,3.05,1.03,3.05c.14,1.49.18,4.13.18,9.62,0,5.77-.05,8.52-.21,10.04l-1.01,2.98h0s.02,0,.02,0h7.6,0s-1.03-3.06-1.03-3.06c-.15-1.49-.19-4.13-.19-9.6,0-5.75.05-8.5.21-10.02M103.72,19.5c0,13.09-9.23,13.38-14.49,13.38-.57,0-1.25-.02-1.95-.04h-6.21l1.01-2.99c.15-1.54.21-4.29.21-10.03s-.04-8.12-.19-9.61l-1.03-3.05h6.45c.73-.02,1.43-.04,2.02-.04,4.94,0,14.17.36,14.17,12.38M98.18,19.89c0-7.41-3.36-9.75-8.55-9.75-1.25,0-2.15.07-2.15.07v19.54s.9.11,2.11.11c5.01,0,8.59-2.27,8.59-9.97M118.66,18.31l-2.54-1.51c-1.97-1.15-3.26-1.87-3.26-3.74,0-2.48,2.15-2.91,4.11-2.91,2.83,0,4.47,1.37,5.94,3.52,0,0-.07-1.15-.07-3.02s.07-2.66.07-2.66c0,0-2.15-1.04-6.15-1.04-5.94,0-8.73,2.62-8.73,6.87,0,3.85,2.47,5.69,5.12,7.23l3.04,1.83c1.64.97,2.83,1.76,2.83,3.74,0,2.73-2.4,3.2-4.69,3.2-3.36,0-4.97-1.66-6.33-3.63,0,0,.07,1.29.07,3.2,0,1.73-.07,2.59-.07,2.59,0,0,2.15,1.08,6.58,1.08,5.3,0,9.3-1.69,9.3-7.27,0-4.06-2.22-5.72-5.22-7.48M135.47,10.16l1.01-3h-7.62l1.03,3.05c.15,1.49.19,4.13.19,9.61,0,5.77-.05,8.51-.21,10.04l-1.01,2.99h0,0,7.62l-1.03-3.06h0c-.14-1.49-.18-4.13-.18-9.6,0-5.74.05-8.49.21-10.02M189.91,10.17l1.01-3.01h-7.62v.02s1.03,3.03,1.03,3.03c.13,1.3.18,3.48.18,7.64h-9.98c0-4.12.05-6.31.18-7.62h0l1.02-3.05v-.02s0,0,0,0h-7.62l1.03,3.05c.14,1.49.19,4.13.19,9.61,0,5.77-.05,8.51-.21,10.04l-1.01,2.99h7.62,0s-1.02-3.06-1.02-3.06h-.02c-.13-1.38-.17-3.73-.17-8.34h9.98c0,4.72-.07,7.09-.22,8.46l-.99,2.93h0s.01.01.02.01h7.6l-1.03-3.06h0c-.15-1.49-.18-4.13-.18-9.6s.05-8.47.2-10.01"/></svg>