<?xml version="1.0" encoding="UTF-8"?><svg id="a" xmlns="http://www.w3.org/2000/svg" xmlns:xlink="http://www.w3.org/1999/xlink" viewBox="0 0 53.76 40"><defs><style>.c{fill:none;}.d{clip-path:url(#b);}.e{fill:#b99b60;}</style><clipPath id="b"><rect class="c" x="12" y="4.65" width="29.76" height="30.69"/></clipPath></defs><g class="d"><path class="e" d="M27.79,4.65c.18,3.21-2.21,5.82-5.01,7.08-1.25.55-2.66.96-4.03.65-.73-.16-1.53-.49-1.91-1.18-.36-.69-.22-1.6.41-2.09.8-.64,1.84-.83,2.82-.97,1.97-.29,4.08.31,5.8,1.22.88.42,1.73.83,2.61,1.14,1.75.63,3.68.78,5.53.64,1.31-.05,3.02-.68,2.98-2.22-.21-1.54-2.18-1.77-3.47-1.74-.94,0-1.84.35-2.66.81-3.21,1.83-5.35,5.31-5.81,8.9-.07.38-.12.95-.12,1.33-.02.34-.03,1.02-.02,1.36.1,1.67-.15,5.26,1.97,5.64,2.13-.04,1.9-4.36,1.53-5.79-.41-1.8-1.25-3.6-2.7-4.78-1.4-1.11-3.54-1.68-5.18-.75-1.87.99-2.21,3.07-1.08,4.81-1.35-1.73-1.07-3.97.89-5.13,1.75-1.11,4.13-.55,5.7.65,2.82,2.14,4.39,7.89,2.35,10.92-.72,1.02-2.24,1-3.13.21-.85-.72-1.34-1.71-1.69-2.72-1.27-3.9-.37-8.46,2.26-11.58,1.27-1.55,2.93-2.82,4.77-3.61,1.79-.82,4.03-.84,5.73.22,1.51,1.01.63,3-.78,3.64-1.36.71-2.95.77-4.44.65-1-.07-2-.28-2.94-.62-1.92-.64-3.52-1.83-5.3-2.31-.89-.25-1.81-.28-2.77-.27-.92.03-1.92.04-2.72.52-.6.37-.77,1.22-.39,1.8.55.79,1.64.78,2.52.82,1.17.06,2.3-.33,3.37-.81,2.61-1.16,4.76-3.51,4.9-6.46M12,30.68v.49h1.46v4.12h.69v-4.12h1.45v-.49h-3.6ZM17.06,35.29h.69v-4.61h-.69v4.61ZM19.21,30.68v.49h1.46v4.12h.69v-4.12h1.45v-.49h-3.6ZM24.27,35.29h.69v-4.61h-.69v4.61ZM27.5,35.18c.28.11.59.16.94.16s.68-.06.95-.19c.27-.12.47-.28.61-.48.14-.2.21-.41.21-.64,0-.29-.08-.52-.23-.69-.15-.17-.33-.3-.55-.38-.21-.08-.5-.17-.85-.25-.29-.07-.52-.13-.68-.19-.16-.06-.3-.13-.41-.24-.11-.11-.17-.24-.17-.41,0-.23.09-.41.28-.54.18-.13.42-.2.71-.2.31,0,.56.07.75.2.19.13.3.29.32.47h.77c-.04-.36-.22-.64-.54-.86-.32-.22-.72-.33-1.22-.33-.34,0-.65.05-.92.16-.27.1-.47.25-.62.45-.15.2-.22.41-.22.67,0,.28.07.52.22.68.15.17.33.3.54.37.21.08.49.16.84.24.29.07.51.13.68.19.17.06.31.14.42.25.11.11.17.25.17.43,0,.22-.09.41-.29.55-.19.14-.45.22-.78.22s-.61-.07-.79-.22c-.18-.14-.28-.33-.31-.54h-.74c0,.25.09.47.24.66.16.19.38.34.65.45M32.87,33.78h1.92l-.96-2.33-.96,2.33h0ZM34.23,30.72l1.92,4.58h-.73l-.43-1.02h-2.32l-.43,1.02h-.73l1.92-4.58h.8ZM41.08,30.68v3.67l-2.79-3.67h-.69v4.62h.69v-3.67l2.79,3.67h.69v-4.62h-.69Z"/></g></svg>