<?xml version="1.0" encoding="UTF-8"?><svg id="a" xmlns="http://www.w3.org/2000/svg" viewBox="0 0 117.6 40"><defs><style>.b{fill:#1d3a1e;}</style></defs><path class="b" d="M51.75,4.32c.21,0,.42,0,.64,0,.23,0,.46,0,.69,0,.23,0,.47,0,.71,0,.5,0,.99,0,1.49,0,.64,0,1.27,0,1.91,0,.61,0,1.21,0,1.82,0,.23,0,.46,0,.69,0q.32,0,.64,0c.19,0,.37,0,.56,0q.46.04,1,.4.11.4.17.89.03.26.07.53t.06.56c.02.19.05.37.07.56.06.46.11.92.16,1.37q-.3.12-.71.18c-.13-.08-.26-.16-.4-.25-.64-.37-1.22-.37-1.94-.37-.12,0-.24,0-.37,0-.45-.01-.9-.02-1.35-.02-1.01-.02-2.02-.04-3.06-.06v10.32h3.74c.35.35.7.7,1.07,1.07v.36h.36v.36h.36v.36h.36v.36h.36c.06.35.12.7.18,1.07-2.11.06-4.23.12-6.41.18v9.61c1.01.01,2.01.03,3.05.04q.47,0,.96.02c.25,0,.51,0,.76,0,.13,0,.26,0,.39.01.93,0,1.41-.25,2.14-.79h.53q-.17,3.38-.53,4.45c-.48.24-.86.2-1.4.2-.22,0-.44,0-.66,0-.24,0-.48,0-.72,0-.25,0-.49,0-.74,0-.52,0-1.03,0-1.55,0-.66,0-1.32,0-1.98,0-.51,0-1.01,0-1.52,0-.24,0-.49,0-.73,0-.34,0-.68,0-1.02,0-.19,0-.39,0-.59,0q-.48-.02-1.01-.2c.08-.38.16-.69.36-1.02.23-.53.22-.97.22-1.55,0-.11,0-.23,0-.35,0-.38,0-.77,0-1.15,0-.28,0-.55,0-.83,0-.75,0-1.5,0-2.25,0-.63,0-1.25,0-1.88,0-1.48,0-2.95,0-4.43,0-1.52,0-3.05,0-4.57,0-1.31,0-2.61,0-3.92,0-.78,0-1.56,0-2.34,0-.73,0-1.47,0-2.2,0-.27,0-.54,0-.81,0-.37,0-.74,0-1.1v-.62c-.07-.59-.24-.79-.6-1.24v-.71c.6-.18,1.14-.2,1.76-.2ZM52.3,5.77v28.3h8.19c-.06-.23-.12-.47-.18-.71h-7.3q0-2.95,0-4.2c0-.86,0-1.71,0-2.57,0-.69,0-1.38,0-2.07,0-.26,0-.53,0-.79,0-.37,0-.74,0-1.11,0-.21,0-.42,0-.64.02-.45.07-.82.2-1.25,1.79-.16,3.55-.2,5.34-.18-.06-.18-.12-.35-.18-.53-.49-.25-.89-.2-1.44-.2-.22,0-.43,0-.65,0-.23,0-.45,0-.69,0q-.34,0-.69,0c-.56,0-1.13,0-1.69,0-.16-2.93-.2-5.85-.19-8.79,0-.43,0-.86,0-1.28,0-1.03,0-2.07,0-3.1q3.7-.09,7.48-.18v-.53c-2.69-.45-5.46-.18-8.19-.18Z"/><path class="b" d="M12.25,9.15c1.32-.02,2.61.02,3.92.18q-.16.69-.36.89c-.02.26-.03.53-.04.79,0,.17,0,.33-.01.51q0,.27,0,.55c0,.19,0,.37-.01.56-.01.59-.02,1.19-.03,1.78,0,.4-.02.8-.02,1.21-.02.99-.04,1.98-.05,2.96q1.85-.09,3.74-.18c-.02-1.11-.04-2.21-.06-3.32,0-.38-.01-.75-.02-1.13,0-.54-.02-1.08-.03-1.62,0-.17,0-.34,0-.51,0-.16,0-.31-.01-.47,0-.14,0-.28,0-.42q-.03-.42-.41-.9v-.71h3.74v.89c-.06.06-.12.12-.18.18-.02.25-.02.5-.02.75,0,.16,0,.32,0,.49,0,.18,0,.36,0,.54,0,.19,0,.38,0,.57,0,.62,0,1.25,0,1.87,0,.43,0,.87,0,1.3,0,.91,0,1.82,0,2.73,0,1.16,0,2.33,0,3.49,0,.89,0,1.79,0,2.68,0,.43,0,.86,0,1.29,0,.6,0,1.2,0,1.8,0,.18,0,.36,0,.54,0,.84.04,1.46.4,2.23l-.18.36h-3.56q-.18-.53-.01-.9c.28-.75.24-1.45.23-2.24q0-.25,0-.5c0-.52,0-1.05-.01-1.57,0-.36,0-.71,0-1.07,0-.87-.01-1.74-.02-2.61-1.17-.06-2.35-.12-3.56-.18.02,1.09.04,2.19.07,3.28,0,.37.02.74.02,1.11.01.54.02,1.07.03,1.61,0,.16,0,.33,0,.5,0,.16,0,.31.01.47q0,.2,0,.41c.04.57.13,1.13.21,1.69h-3.92q.18-.89.36-1.42c.02-.26.02-.52.02-.78,0-.16,0-.32,0-.48,0-.18,0-.35,0-.53,0-.18,0-.37,0-.56,0-.61,0-1.22,0-1.84,0-.42,0-.85,0-1.27,0-.89,0-1.78,0-2.67,0-1.14,0-2.28,0-3.43,0-.88,0-1.75,0-2.63,0-.42,0-.84,0-1.26,0-.59,0-1.18,0-1.77,0-.17,0-.35,0-.53,0-.16,0-.32,0-.49,0-.14,0-.28,0-.42-.05-.43-.2-.71-.4-1.1q.07-.4.18-.71Z"/><path class="b" d="M91.1,9.33q-.33.87-.53,1.07c-.02.25-.02.5-.02.75,0,.16,0,.32,0,.49,0,.18,0,.36,0,.54,0,.19,0,.37,0,.56,0,.62,0,1.24,0,1.86,0,.43,0,.86,0,1.29,0,.9,0,1.8,0,2.7,0,1.16,0,2.31,0,3.47,0,.89,0,1.77,0,2.66,0,.43,0,.85,0,1.28,0,.6,0,1.19,0,1.79,0,.18,0,.35,0,.54,0,.16,0,.32,0,.49,0,.14,0,.28,0,.43q.02.4.24.75t-.01,1.06h-3.74c-.06-.23-.12-.47-.18-.71.08-.1.17-.19.25-.29.45-.66.35-1.34.33-2.12q0-.25,0-.5c0-.53,0-1.05-.02-1.58,0-.36,0-.71,0-1.07,0-.87-.02-1.75-.03-2.62-1.17-.06-2.35-.12-3.56-.18.02,1.13.04,2.26.06,3.38,0,.38.01.77.02,1.15,0,.55.02,1.1.03,1.65,0,.17,0,.34,0,.52,0,.16,0,.32.01.49,0,.14,0,.28,0,.43q.03.4.24.77c.05.11.11.22.16.33l-.18.36c-.59.02-1.17.02-1.76.03-.17,0-.33,0-.51.01-.16,0-.32,0-.48,0-.15,0-.29,0-.45,0-.12-.02-.24-.04-.37-.06-.12-.18-.23-.35-.36-.53.09-.11.17-.22.26-.33.39-.79.35-1.5.34-2.37,0-.18,0-.36,0-.55,0-.6,0-1.2,0-1.81,0-.42,0-.84,0-1.26,0-.88,0-1.76,0-2.63,0-1.12,0-2.25,0-3.37,0-.86,0-1.73,0-2.59,0-.41,0-.83,0-1.24,0-.58,0-1.16,0-1.74,0-.17,0-.34,0-.52,0-1-.15-1.7-.61-2.59q.18-.18.54-.2c.16,0,.31,0,.47,0,.17,0,.34,0,.51,0q.27,0,.54,0c.18,0,.36,0,.54,0,.44,0,.88,0,1.32,0,0,.3,0,.59,0,.89-.06.06-.12.12-.18.18-.02.25-.03.5-.04.76,0,.16,0,.32-.01.49,0,.17,0,.35,0,.53,0,.18,0,.36-.01.54-.01.57-.02,1.14-.03,1.71,0,.39-.02.77-.02,1.16-.02.95-.04,1.89-.05,2.84h3.74c-.01-1.07-.03-2.13-.05-3.2,0-.36-.01-.73-.01-1.09,0-.52-.02-1.05-.03-1.57,0-.16,0-.32,0-.49-.02-.98-.17-1.68-.62-2.55.72-.72,3.47-.58,4.27-.18Z"/><path class="b" d="M66.36,9.33c.86-.01,1.73-.02,2.59-.03.29,0,.59,0,.88-.01.42,0,.85,0,1.27-.01.13,0,.26,0,.39,0,1.16,0,2.14.3,2.99,1.14,1.4,1.56,1.41,3.27,1.37,5.26,0,.43,0,.86,0,1.29q-.02,3.64-1.13,5h-.36c.19.53.38.92.72,1.38.4.67.44,1.04.44,1.81q0,.35.01.7c0,.24,0,.49,0,.73,0,.48,0,.96.01,1.43,0,.21,0,.42,0,.64.07.66.31,1.08.6,1.66q-.09.35-.18.71h-3.74c-.06-.18-.12-.35-.18-.53q.18-.26.36-.53c.24-.94.21-1.88.21-2.85q0-.26,0-.53c0-.17,0-.34,0-.51,0-.15,0-.31,0-.47-.05-.53-.12-.88-.4-1.34q-.55-.19-1.18-.23c-.21-.03-.42-.05-.64-.08q-.24-.02-.49-.05c.02.86.04,1.71.06,2.57,0,.29.01.58.02.87,0,.42.02.84.03,1.25,0,.13,0,.26,0,.4q0,.74.42,1.32c-.06.23-.12.47-.18.71h-3.92q.18-1.07.36-1.58c.21-.67.22-1.3.21-2,0-.14,0-.28,0-.43,0-.46,0-.93,0-1.39,0-.33,0-.65,0-.98,0-.68,0-1.37,0-2.05,0-.87,0-1.73,0-2.6,0-.67,0-1.35,0-2.02,0-.32,0-.64,0-.96,0-1.66-.02-3.31-.1-4.96,0-.14-.01-.28-.02-.43-.04-.69-.1-1.2-.45-1.8v-.53ZM69.92,12.18c-.03.96-.06,1.92-.09,2.89,0,.33-.02.65-.03.98-.01.47-.03.94-.04,1.42,0,.14,0,.29-.01.44-.02.9.04,1.75.17,2.64.31,0,.62.02.93.02q.26,0,.53.01c.52-.04.79-.08,1.21-.39.38-.73.41-1.42.4-2.23,0-.13,0-.25,0-.38,0-.27,0-.54,0-.8,0-.41,0-.82,0-1.22,0-.26,0-.52,0-.78,0-.12,0-.24,0-.37,0-.7-.07-1.25-.41-1.86-.63-.42-.9-.39-1.64-.38q-.29,0-.59,0c-.15,0-.3,0-.45.01Z"/><path class="b" d="M96.98,9.15h6.05q.18.71,0,1.07c-.11,2.22.1,4.37.41,6.56.08.61.17,1.22.25,1.83.02.15.04.3.06.45.18,1.31.32,2.63.45,3.95.16,1.57.36,3.13.62,4.69.03.17.06.35.09.53.15.89.34,1.75.61,2.62q-.18.18-.52.2c-.15,0-.3,0-.45,0-.16,0-.32,0-.48,0q-.25,0-.51,0c-.17,0-.34,0-.51,0-.42,0-.84,0-1.26,0q-.1-.34-.18-.71.08-.16.17-.31c.27-.59.18-1.15.12-1.78-.01-.12-.02-.25-.03-.38-.03-.3-.05-.61-.08-.91q-.32,0-.65,0c-.28,0-.56,0-.84,0-.14,0-.28,0-.43,0q-1.07,0-1.46-.19-.34,1.85.18,3.56c-.06.23-.12.47-.18.71h-3.56c-.22-.66-.09-.8.18-1.42.07-.3.12-.59.17-.89.03-.18.06-.35.08-.53.03-.19.06-.38.09-.58.03-.2.06-.4.09-.61.36-2.48.63-4.97.9-7.46.11-1,.22-2.01.33-3.01.04-.35.07-.69.11-1.04.02-.21.05-.42.07-.63.02-.18.04-.37.06-.55.04-.36.1-.73.16-1.09.09-.56.11-1.08.11-1.65,0-.19,0-.38,0-.58-.02-.62-.11-1.23-.2-1.84ZM99.83,12.89c0,.16-.02.33-.02.49-.11,2.02-.35,4-.61,6-.08.62-.16,1.25-.25,1.87-.02.14-.04.28-.06.42-.11.87-.15,1.72-.13,2.6h2.67c-.02-.27-.05-.54-.07-.81-.05-.59-.11-1.17-.16-1.76-.26-2.97-.59-5.89-1.19-8.82h-.18Z"/><path class="b" d="M43.48,9.93c1.15,1.17,1.31,2.49,1.45,4.07q.07.75.44,1.74h-3.74c-.06-.18-.12-.35-.18-.53.12-.18.23-.35.36-.53.13-.72.19-1.46-.19-2.1-.38-.37-.74-.56-1.27-.58q-.44.04-1.04.19c-.43,1.33-.56,2.6.07,3.89.6.97,1.29,1.86,2.02,2.74q.23.32.23.67h.36c1.91,2.18,2.93,4.52,2.9,7.39-.07.98-.32,1.88-.76,2.76h-.36c-.04.11-.08.21-.12.32-.37.62-.82.83-1.5,1.04-1.59.39-3.41.41-4.85-.43-.91-.68-1.28-1.43-1.54-2.53-.06-.69-.09-1.37-.12-2.06-.06-.57-.17-.83-.42-1.32.06-.23.12-.47.18-.71,1.17.06,2.35.12,3.56.18q.18.53.02.87c-.06.12-.13.25-.19.38-.12.85-.12,1.56.29,2.33.52.43.82.52,1.49.52.55-.22.81-.41,1.13-.91.32-1.45-.22-2.53-.91-3.8q-.23-.45-.23-.8h-.36c-.32-.37-.62-.74-.92-1.13-.09-.11-.18-.23-.27-.34-.26-.34-.51-.67-.77-1.01-.12-.16-.25-.33-.37-.49-1.56-2.14-2.45-4.42-2.05-7.08.14-.68.32-1.25.64-1.86h.36c.03-.1.07-.21.1-.31.37-.57.88-.87,1.5-1.11,1.61-.3,3.7-.45,5.06.6Z"/><path class="b" d="M27.03,9.33h4.09q-.18.89-.36,1.07c-.02.25-.02.5-.02.74,0,.16,0,.32,0,.49q0,.27,0,.54c0,.19,0,.37,0,.56,0,.62,0,1.24,0,1.85,0,.43,0,.86,0,1.28,0,.9,0,1.8,0,2.7,0,1.15,0,2.31-.01,3.46,0,.89,0,1.77,0,2.66,0,.42,0,.85,0,1.27,0,.59,0,1.19,0,1.78,0,.18,0,.35,0,.53,0,.96.11,1.57.6,2.42-.06.12-.12.23-.18.36h-3.92q-.18-.53.07-1.08c.38-.83.36-1.61.35-2.51,0-.18,0-.35,0-.54,0-.58,0-1.17,0-1.75,0-.41,0-.81,0-1.22,0-.85,0-1.7,0-2.55,0-1.09,0-2.18,0-3.27,0-.84,0-1.68,0-2.52,0-.4,0-.8,0-1.21,0-.56,0-1.12,0-1.69q0-.25,0-.5c0-.93-.13-1.52-.61-2.35v-.53Z"/></svg>