<?xml version="1.0" encoding="UTF-8"?><svg id="a" xmlns="http://www.w3.org/2000/svg" viewBox="0 0 135.74 40"><defs><style>.b{fill:#ecca81;}</style></defs><path class="b" d="M58.9,25.46c-.03.07-.07.13-.1.19-.47,1.15-1.43,1.67-2.56,1.87-1.46.26-2.83.03-3.96-1.02-.69-.63-1.02-1.48-1.29-2.33-.24-.74-.25-1.55-.45-2.3-.34-1.31-.2-2.63-.16-3.94.05-1.62.32-3.23,1.06-4.7.51-1.01,1.3-1.71,2.45-2.03.9-.25,1.8-.28,2.66-.11.88.18,1.71.62,2.16,1.51.12.25.3.46.53.81v-1.95c.22-.02.39-.03.55-.03,1.4,0,2.8.01,4.21-.02.38,0,.5.12.49.47-.02,1.4,0,2.8-.05,4.2-.04.95-1.28,2.23-2.28,2.38-.87.12-1.76.14-2.64.2-.37.02-.45-.17-.49-.51-.1-.77-.23-1.54-.43-2.29-.14-.54-.67-.75-1.25-.69-.46.05-.86.38-1.01.88-.42,1.48-.44,3-.37,4.52.03.62.2,1.24.34,1.85.19.83.54,1.06,1.48,1,.46-.03.96-.57,1.03-1.14.08-.61.15-1.22.2-1.83.02-.26.12-.36.37-.36.79.01,1.61-.1,2.38.05.82.16,1.56.54,2.11,1.3.55.77.62,1.59.62,2.46,0,1.6.04,3.21-.07,4.81-.14,2.04-1.36,3.76-3.55,4.48-1.61.53-3.22.61-4.86.5-1.06-.07-2.11-.37-3.03-.88-.96-.54-1.65-1.39-1.86-2.54-.05-.32-.12-.63-.17-.95-.03-.22.05-.36.3-.36,1.5,0,2.99,0,4.49.02.12,0,.33.19.35.32.08.55.55.88,1.11.9,1.2.06,1.81-.5,1.82-1.7,0-.86,0-1.71,0-2.57,0-.13-.03-.26-.04-.4-.03-.02-.07-.04-.1-.06Z"/><path class="b" d="M118.25,19.77s-.06,0-.09,0c0-.67.03-1.34,0-2.01-.03-.55-.12-1.1-.24-1.64-.09-.43-.36-.74-.79-.87-.8-.24-1.56.24-1.69,1.13-.33,2.26-.34,4.53.02,6.78.11.71.44.99,1.07,1.09.58.1,1.11-.15,1.31-.66.13-.33.24-.68.27-1.03.07-.93.1-1.86.15-2.8ZM118.16,12.75c.03-.19.08-.38.08-.57,0-1.79.01-3.58,0-5.38,0-.4.1-.54.52-.53,1.51.03,3.02,0,4.53,0,.13,0,.27.02.45.03v.53c0,6.87,0,13.74,0,20.61,0,.63,0,.62-.65.63-1.05.02-2.1.05-3.15.06-.4,0-.81,0-1.2-.1-.14-.03-.3-.29-.32-.46-.05-.41-.02-.83-.02-1.24-.04,0-.08-.02-.11-.02-.18.25-.37.49-.55.74-.56.78-1.33,1.24-2.27,1.29-.87.05-1.81.11-2.62-.15-.94-.31-1.73-1.01-2.17-1.96-.49-1.07-.73-2.19-.89-3.37-.27-1.98-.17-3.95-.1-5.91.04-.97.22-1.98.7-2.88.28-.52.47-1.1.8-1.58.42-.62,1.06-1.01,1.78-1.25.86-.29,1.74-.27,2.62-.19.96.09,2.03.74,2.41,1.67.05,0,.1.02.16.02Z"/><path class="b" d="M17.81,19.12v8.96c-.61,0-1.18,0-1.74,0-1.23.01-2.46.04-3.69.03-.12,0-.28-.16-.34-.28-.06-.13-.03-.3-.03-.46,0-6.84,0-13.68,0-20.52,0-.44.11-.58.57-.58,4.05.02,8.1.01,12.15,0,.4,0,.54.11.53.53-.03,1.14,0,2.28-.01,3.41,0,.54-.08.61-.63.61-2.06,0-4.11,0-6.17,0-.61,0-.62.01-.62.64,0,.83,0,1.65,0,2.48,0,.42.17.58.59.57,1.93-.01,3.86,0,5.8-.01.41,0,.56.19.56.54,0,1.18,0,2.37,0,3.55,0,.33-.15.49-.52.49-1.9-.02-3.8-.01-5.7,0-.23,0-.46.02-.73.04Z"/><path class="b" d="M43.72,20.32c-.64.19-1.21.33-1.75.54-.64.25-1.06.73-1.14,1.44-.04.35-.04.72,0,1.07.05.72.49,1.19,1.13,1.27.74.09,1.3-.21,1.53-.9.13-.41.21-.86.23-1.29.04-.69,0-1.38,0-2.13ZM43.74,26.51c-.09.12-.19.23-.28.35-.76,1.01-1.82,1.47-3.04,1.54-.99.06-1.98-.02-2.91-.43-.97-.42-1.53-1.19-1.87-2.15-.42-1.19-.4-2.42-.22-3.62.16-1.03.56-1.97,1.44-2.66.72-.57,1.54-.87,2.41-1.11,1.2-.32,2.4-.65,3.6-1,.6-.17.84-.62.84-1.22,0-.17,0-.34,0-.51-.03-.85-.45-1.25-1.29-1.3-.72-.04-1.49.46-1.47,1.22,0,.32-.11.64-.18.98h-4.73c-.13-.86.05-1.62.33-2.4.3-.83.82-1.45,1.48-1.97.7-.55,1.5-.86,2.4-1.03,1.38-.27,2.76-.24,4.12-.11,1.42.13,2.79.55,3.7,1.8.42.57.73,1.19.82,1.91.37,2.85.08,5.72.17,8.58.03.86-.02,1.72.04,2.57.04.61.18,1.21.32,1.8.09.37-.16.31-.34.31-.81.01-1.62,0-2.43.01-.66,0-1.33.03-1.99.02-.51-.01-.72-.24-.77-.78-.02-.25-.04-.51-.05-.76-.04-.01-.08-.02-.11-.03"/><path class="b" d="M103.17,20.3c-.53.15-1,.25-1.44.42-.35.13-.74.29-1,.55-.65.65-.7,1.47-.48,2.32.16.64.53.99,1.09,1.05.69.07,1.21-.19,1.48-.79.51-1.13.35-2.33.35-3.55ZM103.12,26.39c-.52.74-1.05,1.35-1.87,1.67-1.05.42-2.13.43-3.2.27-.98-.15-1.85-.56-2.43-1.4-.3-.44-.6-.95-.69-1.47-.16-.84-.24-1.72-.21-2.58.05-1.35.47-2.6,1.62-3.43.47-.34,1.02-.6,1.58-.79.9-.31,1.83-.55,2.75-.81.54-.15,1.09-.26,1.63-.43.7-.22,1.12-1.48.76-2.12-.48-.88-1.11-1.14-2.04-.76-.55.23-.69.74-.71,1.21-.05,1.06-.28.88-.97.88-1.14,0-2.27,0-3.41,0-.19,0-.37-.03-.59-.04,0-1.29.27-2.45,1.05-3.5.55-.75,1.29-1.2,2.07-1.58.55-.27,1.22-.39,1.85-.42,1.13-.06,2.28-.09,3.41,0,1.57.12,2.96.72,3.92,2.04.25.35.38.81.54,1.22.42,1.13.22,2.3.24,3.45.03,1.98-.01,3.96.02,5.94.02,1.12.12,2.23.19,3.35,0,.12.07.23.12.34.19.45-.02.72-.5.72-1.15-.02-2.3,0-3.44,0-.23,0-.46.05-.68.01-.34-.07-.75-.07-.74-.63,0-.34-.14-.69-.23-1.12"/><path class="b" d="M87.87,17.56h0c.37.01.75.03,1.12,0,.13-.01.36-.15.36-.24,0-.75.11-1.53-.28-2.23-.31-.56-.83-.63-1.39-.59-.49.04-.9.26-1,.75-.13.65-.19,1.31-.24,1.97,0,.11.19.31.31.33.37.04.75.02,1.12.02ZM89.51,22.18c1.62,0,3.14,0,4.67,0,.25,0,.33.1.33.33-.03,2.12-.81,4.35-3.09,5.35-.67.29-1.43.43-2.15.5-1.38.14-2.77.13-4.13-.2-1.85-.45-3.1-1.55-3.72-3.41-.8-2.39-.67-4.84-.54-7.28.07-1.39.4-2.8,1.21-3.98.37-.54.88-1.01,1.4-1.41,1.32-1.03,2.9-1.06,4.48-1.07,1.15-.01,2.28.08,3.35.53.96.4,1.7,1.05,2.22,1.96.37.65.59,1.35.78,2.07.4,1.51.36,3.03.38,4.56,0,.44-.16.61-.61.6-2.37-.02-4.74,0-7.11-.02-.44,0-.61.1-.58.57.04.72-.04,1.44.03,2.15.04.4.23.82.45,1.16.33.51.9.6,1.41.42.56-.2.91-.67,1.01-1.28.08-.5.13-1.01.19-1.56Z"/><path class="b" d="M71.7,12.94c.17-.15.28-.2.32-.29.4-.79,1.13-1.13,1.9-1.39,1.24-.42,2.53-.41,3.72.08.96.4,1.75,1.15,1.96,2.26.17.9.32,1.81.33,2.72.04,3.66.02,7.33.02,10.99,0,.71-.09.81-.8.8-1.21,0-2.42-.03-3.63-.05-.27,0-.55.01-.82.01-.37,0-.47-.21-.47-.55,0-.89,0-1.78,0-2.67,0-2.63,0-5.27,0-7.9,0-.4-.05-.84-.21-1.2-.26-.59-1.02-.79-1.62-.53-.41.18-.66.49-.68.95-.02.62-.03,1.24-.05,1.87-.01.5-.1.6-.61.61-.96,0-1.92.03-2.87-.21-.92-.24-2.08-1.46-2.1-2.4-.07-2.65-.1-5.31-.13-7.97,0-.44.02-.87,0-1.31-.02-.36.1-.5.48-.49,1.59.02,3.18.01,4.77,0,.36,0,.48.11.48.48-.02,1.87,0,3.74,0,5.61,0,.15.02.3.03.56Z"/><path class="b" d="M35.81,11.07v4.96c-.86.06-1.7.05-2.51.18-1.06.18-1.73.82-1.82,1.91-.07.84-.07,1.68-.07,2.52,0,2.18,0,4.36,0,6.54,0,.86-.24,1.01-1.09.97-1.17-.05-2.34,0-3.52-.02-.28,0-.56-.02-.83-.09-.11-.03-.22-.2-.26-.33-.05-.16-.02-.34-.02-.51,0-5.03,0-10.06,0-15.09,0-.21.02-.43.04-.69h1.85c1.06,0,2.12,0,3.18,0,.34,0,.48.12.46.47-.02.4,0,.81,0,1.21,0,.12.03.25.08.39.94-1.85,2.35-2.78,4.49-2.43"/><path class="b" d="M71.66,24.09c0,1.14,0,2.27,0,3.41,0,.53-.09.58-.62.58-1.15,0-2.3.05-3.44.07-.43,0-.87-.05-1.3-.08-.25-.02-.35-.15-.34-.4,0-1.45-.04-2.9.02-4.35.04-.96.39-1.81,1.14-2.47.52-.46,1.13-.67,1.78-.73.76-.07,1.52-.02,2.29-.04.36,0,.49.14.49.5-.01,1.17,0,2.34,0,3.51Z"/></svg>