<?xml version="1.0" encoding="UTF-8"?><svg id="a" xmlns="http://www.w3.org/2000/svg" viewBox="0 0 57.82 40"><defs><style>.b{fill:#231f20;font-family:BegumW03-Bold, BegumW03-Bold;font-size:5.44px;font-weight:700;}.c{fill-rule:evenodd;}</style></defs><path class="c" d="M35.55,15.54h5.54v3.96h-5.6c-3.81-.14-2.93-4,.07-3.96M24.96,19.03c-1.56.18-4.4.22-5.81-.52-3.42-1.8-3.66-6.25-.68-8.45,1.09-.8,2.49-1.07,4.6-1.07l15.61-.09c1.57.12,2.26,1.29,2.13,3.48l-6.86-.03c-3.25.05-5.42,1.75-5.31,5.06l.05,1.5v.37c.09,2.48,1.97,3.63,4.39,3.57h12.51l.24-10.7c.09-4.06-2.97-6.64-6.98-6.53h-19.05c-.74.08-1.43.2-2.06.38-7.59,2.11-7.06,12.61-1.82,15.86,1.74,1.07,2.99.96,4.89.96h6.05c-.71-1.16-1.52-2.53-1.89-3.78"/><text class="b" transform="translate(12 32.55)"><tspan x="0" y="0">Cote D’ Azur</tspan></text></svg>