<?xml version="1.0" encoding="UTF-8"?><svg id="a" xmlns="http://www.w3.org/2000/svg" viewBox="0 0 183.58 40"><defs><style>.b{fill:#7260a8;fill-rule:evenodd;}</style></defs><path class="b" d="M29.38,19.85v13.39h3.1v-5.15c0-5.45.03-5.93.38-6.72.42-.96,1.37-1.56,2.55-1.63,1.6-.09,2.69.57,3.2,1.93.18.48.18.5.21,6.02l.02,5.55h3.1l-.02-5.86-.03-5.86-.25-.76c-.6-1.77-1.68-2.92-3.28-3.5-1.44-.53-4.02-.53-5.43,0-.23.09-.42.16-.43.16-.01,0-.02-2.47-.02-5.48v-5.48h-3.1v13.39Z"/><path class="b" d="M19.05,16.96c-3.23.41-5.91,2.81-6.75,5.99-1.11,4.22.9,8.46,4.76,10.03,1.14.47,1.62.54,3.38.53,1.46,0,1.65-.02,2.39-.22.95-.26,2.19-.85,2.9-1.39.51-.39,1.19-1.07,1.19-1.19,0-.05-1.02-.97-1.81-1.64l-.26-.22-.41.4c-.68.66-1.53,1.12-2.6,1.42-.73.2-2.32.2-2.98,0-2.18-.65-3.56-2.74-3.57-5.37,0-1.87.57-3.35,1.74-4.43.88-.83,1.9-1.21,3.24-1.21,1.46,0,2.79.47,3.7,1.32l.48.44.23-.19c.13-.1.61-.52,1.07-.94l.84-.75-.58-.55c-1.68-1.6-4.32-2.36-6.97-2.02"/><path class="b" d="M51.16,16.95c-2.82.4-5.31,2.23-6.45,4.73-.6,1.34-.88,3.09-.72,4.51.39,3.22,2.21,5.61,5.13,6.76,1.07.42,1.73.54,3.26.59,1.92.05,3.26-.19,4.59-.85.83-.41,1.27-.73,1.96-1.38l.58-.55-.98-.98-.97-.97-.44.43c-1.22,1.16-2.52,1.64-4.49,1.65-1.38,0-2.32-.26-3.35-.94-.49-.33-1.17-1.14-1.49-1.74-.21-.44-.53-1.41-.53-1.64,0-.14.18-.15,6.56-.15h6.56v-.74c0-1.88-.6-3.99-1.57-5.43-1.03-1.57-2.81-2.77-4.67-3.16-.76-.16-2.27-.21-2.98-.12M53.86,19.77c1.53.46,2.64,1.64,3.09,3.3.1.32.17.62.17.65,0,.04-2.2.06-4.89.06-4.02,0-4.89-.02-4.89-.1,0-.06.07-.34.17-.62.6-1.84,1.99-3.07,3.87-3.41.54-.1,1.97-.03,2.48.12"/><path class="b" d="M67.73,16.95c-2.4.37-4.09,2.03-4.63,4.53-.13.62-.14,1.15-.14,6.2v5.52h3.1l.04-5.52c.04-5.48.04-5.53.21-6,.34-.89.83-1.42,1.62-1.73.36-.14.6-.18,1.35-.18.84,0,.95.01,1.42.23.94.44,1.5,1.28,1.68,2.55.04.32.08,2.74.08,5.62v5.07h3.1v-5.19c0-3.19.03-5.38.09-5.7.18-1.13.84-2.06,1.73-2.39.63-.24,1.64-.29,2.32-.12,1.06.28,1.69.91,2.06,2.07.1.34.12,1.22.14,5.86l.03,5.47h3.1l-.02-5.79c-.03-6.5,0-6.13-.66-7.53-.65-1.4-1.84-2.37-3.43-2.83-.55-.16-.8-.18-2.18-.18s-1.62.03-2.19.18c-.79.23-1.6.66-2.11,1.11-.21.18-.4.34-.44.34s-.24-.16-.46-.37c-.47-.42-1.47-.93-2.2-1.1-.61-.15-2.9-.22-3.62-.12"/><path class="b" d="M136.55,17.04c-.99.06-1.42.17-2.22.56-1.11.52-1.88,1.31-2.42,2.46-.6,1.31-.59,1.1-.62,7.4l-.03,5.63h2.86l.02-5.35c.03-4.78.05-5.39.17-5.81.4-1.35,1.2-2.06,2.58-2.27,1.47-.23,2.81.36,3.39,1.5.43.85.44.96.44,6.66v5.27h2.94v-5.31c0-5.84,0-5.78.49-6.71.43-.8,1.14-1.26,2.23-1.42,1.45-.21,2.81.4,3.39,1.52.42.82.42.83.45,6.57l.03,5.35h2.86l-.03-5.63c-.03-6.29-.02-6.09-.62-7.39-.54-1.17-1.29-1.93-2.42-2.48-.94-.45-1.56-.56-3.16-.56-1.11,0-1.49.02-2,.16-.87.22-1.66.63-2.22,1.14l-.48.43-.36-.34c-.49-.48-1.19-.88-1.95-1.13-.73-.23-2.03-.33-3.34-.25"/><path class="b" d="M92.74,17.14c-1.62.31-2.98,1.07-4.12,2.29-.29.31-.52.59-.52.63,0,.03.4.41.89.85l.88.78.58-.6c.64-.67,1.2-1.04,2-1.33,1-.37,2.69-.37,3.62-.02,1.18.44,1.96,1.78,1.96,3.39v.49l-3.12.03c-2.91.02-3.17.04-3.8.21-1.9.49-3.28,1.64-3.74,3.09-.34,1.09-.26,2.58.2,3.62.56,1.24,1.83,2.25,3.35,2.63,2.57.66,5.09.14,6.65-1.38l.46-.44v-1.58c0-1.41-.03-1.55-.11-1.27-.39,1.23-1.53,2.15-3.05,2.46-1.13.23-2.68.11-3.43-.28-.51-.26-.99-.76-1.2-1.22-.22-.51-.25-1.52-.05-1.97.19-.43.68-.93,1.12-1.16.78-.39,1.13-.42,5.52-.42h4.08l-.04-2.09c-.03-1.85-.05-2.15-.21-2.68-.61-2.07-1.89-3.34-3.94-3.89-.81-.22-3.09-.29-3.99-.13"/><path class="b" d="M108.1,17.14c-1.09.25-2.13.84-2.82,1.62-.47.54-.95,1.44-1.21,2.25-.17.6-.17.62-.21,6.33l-.02,5.75h2.86l.02-5.43.02-5.42.18-.51c.21-.58.35-.82.68-1.19.7-.75,1.89-1.08,3.27-.88.35.05.71.1.79.1.12.02.24-.19.61-1.09.26-.6.47-1.15.47-1.21,0-.33-3.54-.57-4.65-.32"/><path class="b" d="M119.41,17.1c-3.1.57-5.52,2.61-6.47,5.45-.76,2.31-.47,5.02.77,7.04.82,1.32,2.28,2.58,3.68,3.16,1.23.52,2,.67,3.41.67,1.42,0,1.96-.09,3.14-.53,1.85-.69,3.46-2.14,4.35-3.9.89-1.77,1.1-3.96.57-5.98-.72-2.73-2.91-4.92-5.74-5.71-.62-.18-.93-.21-2.04-.23-.73-.02-1.48,0-1.68.03M122.19,19.62c.78.18,1.7.69,2.31,1.3,1.21,1.22,1.74,2.73,1.65,4.64-.05,1.13-.18,1.68-.64,2.59-.25.53-.47.82-.97,1.32-1,1.01-1.99,1.44-3.42,1.52-2.15.1-4-.97-4.92-2.85-.62-1.29-.82-2.65-.57-4.04.58-3.34,3.31-5.2,6.56-4.49"/><path class="b" d="M162.1,17.12c-2.71.48-5.1,2.35-6.11,4.8-.51,1.23-.6,1.68-.6,3.34,0,1.33.02,1.59.18,2.19.23.83.77,2,1.24,2.65.79,1.11,2.2,2.2,3.49,2.7,2.84,1.12,6.45.83,8.77-.72.53-.35,1.45-1.19,1.45-1.33,0-.08-.97-1.07-1.53-1.55l-.22-.19-.37.35c-1.14,1.06-2.36,1.55-4.08,1.64-1.99.1-3.54-.44-4.61-1.62-.64-.7-1.17-1.79-1.32-2.72l-.06-.33h13.24l-.05-.9c-.2-3.19-1.45-5.71-3.51-7.14-.54-.38-1.6-.85-2.3-1.03-.72-.2-2.85-.28-3.61-.14M164.95,19.62c1.75.39,3.04,1.83,3.5,3.9l.07.34h-10.09l.05-.26c.21-.99.67-1.86,1.37-2.6,1.26-1.34,3.08-1.83,5.1-1.38"/></svg>