<?xml version="1.0" encoding="UTF-8"?><svg id="a" xmlns="http://www.w3.org/2000/svg" viewBox="0 0 158.77 40"><defs><style>.b,.c{fill:#221f1f;}.c{fill-rule:evenodd;}</style></defs><path class="c" d="M51.64,33.37h3.48c.26,0,.21-.21.21-.46v-10.03s.46.8.46.8c.15.28.27.54.42.85.29.59.56,1.13.85,1.69.27.53.55,1.18.86,1.68.34.56.58,1.15.88,1.73h2.47c.03-.11,2.95-6.03,3.37-6.73l.11,10.47h3.61V14.99h-3.61c-.07.3-.42.92-.58,1.23l-4.1,8.6c-.27-.2-1.04-2.01-1.25-2.43l-1.78-3.7c-.22-.43-.42-.81-.62-1.25l-.91-1.89c-.11-.22-.14-.56-.38-.56h-3.48v18.38Z"/><path class="c" d="M94.56,33.37h3.61v-11.16c.25.19,5.9,9.09,6.32,9.72l.9,1.44h3.28V14.99h-3.61v11.16l-5.43-8.34c-.15-.24-.3-.45-.46-.68l-1.34-2.14h-3.28v18.38Z"/><path class="c" d="M12,33.37h3.48c.15,0,.2-.05.2-.2v-7.49h6.15v7.69h3.61V14.99h-3.61v7.49h-6.15v-7.49h-3.68v18.38Z"/><path class="c" d="M133.93,20.27c0,1.47.38,3.05,1.54,3.94.24.18.34.28.62.45.49.29.91.46,1.51.63,2.79.81,5.62-.03,5.62,2.8s-4.93,2.75-7.24,1.02c-.17-.13-.3-.25-.45-.35l-2.32,2.29c.21.32.77.76,1.12.99,2.02,1.33,3.56,1.47,5.9,1.47h.12c3.19,0,6.41-1.89,6.41-5.68,0-2.65-1.18-4.16-3.5-4.92-2.11-.7-4.84-.2-5.64-1.78-.44-.88-.15-1.9.5-2.47,1.17-1.04,4.02-.77,5.24.07.23.16.42.32.66.48l2.29-2.26c-.9-.63-.94-.98-2.47-1.57-1.69-.66-4.25-.79-6.05-.19-.83.28-1.34.55-1.97,1.04-1.01.79-1.9,2.27-1.9,4.05"/><rect class="b" x="12" y="6.5" width="13.44" height="3.21"/></svg>