<?xml version="1.0" encoding="UTF-8"?><svg id="a" xmlns="http://www.w3.org/2000/svg" viewBox="0 0 113.7 40"><defs><style>.b{fill:#6ba6af;}</style></defs><path class="b" d="M36.91,15.81c0-2.63,2.03-4.94,4.85-4.94s4.86,2.15,4.86,4.98c0,3.05-2.37,4.94-4.89,4.94-2.74,0-4.82-2.34-4.82-4.99M35.29,15.76c0,3.49,2.7,6.48,6.27,6.48,1.92,0,3.61-.81,4.94-2.43v2.1h1.54v-12.25h-1.54v2.23c-1.22-1.7-2.91-2.55-4.89-2.55-3.55,0-6.32,2.93-6.32,6.41M54,11.45v-1.78h-1.66v12.25h1.66v-4.66c0-1.66.04-2.93.26-3.72.46-1.68,1.5-2.67,2.65-2.67.35,0,.65.14.83.23l.83-1.33c-.32-.19-.69-.42-1.41-.42-1.25,0-2.23.76-3.16,2.1M61.38,15.81c0-2.63,2.03-4.94,4.84-4.94s4.85,2.14,4.85,4.98c0,3.05-2.36,4.94-4.87,4.94-2.75,0-4.82-2.34-4.82-4.99M70.95,4.95v6.96c-1.21-1.7-2.88-2.55-4.86-2.55-3.56,0-6.33,2.93-6.33,6.41s2.7,6.48,6.28,6.48c1.92,0,3.58-.81,4.91-2.42v2.1h1.6V4.95h-1.6ZM92.11,4.95v16.97h1.59v-5.14c0-1.96.14-3.16,1.04-4.34.83-1.09,1.91-1.64,3.23-1.64,2.37,0,3.26,1.57,3.26,4.45v6.67h1.59v-7.04c0-3.67-1.89-5.54-4.55-5.54-1.83,0-3.3.85-4.57,2.51v-6.92h-1.59ZM77.26,15.81c0-2.63,2.03-4.94,4.85-4.94s4.87,2.15,4.87,4.98c0,3.05-2.37,4.94-4.89,4.94-2.75,0-4.82-2.34-4.82-4.99M75.65,15.76c0,3.49,2.7,6.48,6.27,6.48,1.92,0,3.6-.81,4.95-2.43v2.1h1.54v-12.25h-1.54v2.23c-1.22-1.7-2.91-2.55-4.9-2.55-3.55,0-6.32,2.93-6.32,6.41M78.67,7.51s.52-.47,1.55-.47c1.43,0,3.05.8,5.38.8s2.8-.47,2.8-.47c0,0-.19.09-1.55.09-1.89,0-3.16-1.17-5.29-1.17s-2.89,1.22-2.89,1.22M18.19,18.06l-4.46-13.12h-1.73s1.43,4.07,3.88,10.96c.66,1.85,2.17,6.33,2.17,6.33l5.47-13.61,5.48,13.61s1.51-4.48,2.17-6.33c2.45-6.89,3.88-10.96,3.88-10.96h-1.72l-4.46,13.12-5.34-13.25-5.34,13.25Z"/><path class="b" d="M22.78,30.66h1.72c.73,0,1.24.51,1.24,1.15,0,.36-.13.58-.26.73-.08.08-.16.15-.26.2.13.06.26.15.36.25.19.18.37.45.37.87,0,.73-.54,1.28-1.37,1.28h-1.82v-4.47ZM24.5,32.54c.48,0,.77-.27.77-.73,0-.42-.28-.7-.77-.7h-1.24v1.43h1.24ZM24.59,34.68c.54,0,.89-.34.89-.83s-.35-.89-.89-.89h-1.34v1.72h1.34Z"/><path class="b" d="M27.4,30.66h3.06v.45h-2.58v1.47h2.07v.45h-2.07v1.66h2.65v.45h-3.13v-4.47Z"/><path class="b" d="M33.18,30.66h.45l1.85,4.47h-.51l-.51-1.24h-2.1l-.51,1.24h-.51l1.85-4.47ZM34.26,33.44l-.86-2.1-.86,2.1h1.72Z"/><path class="b" d="M36.46,30.66h.48v2.71c0,.8.57,1.37,1.34,1.37s1.34-.57,1.34-1.37v-2.71h.48v2.71c0,1.02-.8,1.82-1.82,1.82s-1.82-.8-1.82-1.82v-2.71Z"/><path class="b" d="M42.62,31.11h-1.4v-.45h3.28v.45h-1.4v4.02h-.48v-4.02Z"/><path class="b" d="M46.8,33.56l-1.66-2.9h.54l1.34,2.39h.03l1.34-2.39h.54l-1.66,2.9v1.56h-.48v-1.56Z"/><path class="b" d="M51.65,30.66h.41l1.85,2.42,1.85-2.42h.41v4.47h-.48v-3.64l-1.79,2.36-1.79-2.36v3.64h-.48v-4.47Z"/><path class="b" d="M59.92,30.6c1.28,0,2.3,1.02,2.3,2.3s-1.02,2.3-2.3,2.3-2.3-1.02-2.3-2.3,1.02-2.3,2.3-2.3ZM61.73,32.89c0-1.05-.8-1.85-1.82-1.85s-1.82.8-1.82,1.85.8,1.85,1.82,1.85,1.82-.8,1.82-1.85Z"/><path class="b" d="M63.04,30.66h.51l1.47,3.8,1.47-3.8h.51l-1.75,4.47h-.45l-1.75-4.47Z"/><path class="b" d="M68.25,30.66h3.06v.45h-2.58v1.47h2.07v.45h-2.07v1.66h2.65v.45h-3.13v-4.47Z"/><path class="b" d="M72.62,34.2c.08.11.18.2.29.27.2.15.5.27.92.27.67,0,1.02-.34,1.02-.83,0-1.14-2.42-.52-2.42-2.1,0-.64.55-1.21,1.43-1.21.43,0,.75.14.98.29.13.08.24.18.33.29l-.32.32c-.07-.08-.15-.15-.25-.22-.17-.11-.41-.22-.74-.22-.61,0-.96.36-.96.77,0,1.15,2.42.52,2.42,2.1,0,.73-.54,1.28-1.5,1.28-.51,0-.89-.16-1.14-.33-.15-.1-.27-.21-.36-.34l.29-.33Z"/><path class="b" d="M79.35,33.56l-1.66-2.9h.54l1.34,2.39h.03l1.34-2.39h.54l-1.66,2.9v1.56h-.48v-1.56Z"/><path class="b" d="M84.42,30.6c1.28,0,2.3,1.02,2.3,2.3s-1.02,2.3-2.3,2.3-2.3-1.02-2.3-2.3,1.02-2.3,2.3-2.3ZM86.24,32.89c0-1.05-.8-1.85-1.82-1.85s-1.82.8-1.82,1.85.8,1.85,1.82,1.85,1.82-.8,1.82-1.85Z"/><path class="b" d="M88.09,30.66h.48v2.71c0,.8.57,1.37,1.34,1.37s1.34-.57,1.34-1.37v-2.71h.48v2.71c0,1.02-.8,1.82-1.82,1.82s-1.82-.8-1.82-1.82v-2.71Z"/></svg>