<?xml version="1.0" encoding="UTF-8"?>
<svg id="Layer_1" data-name="Layer 1" xmlns="http://www.w3.org/2000/svg" viewBox="0 0 43.65 40.82">
  <defs>
    <style>
      .cls-1 {
        fill: #610c0d;
      }

      .cls-1, .cls-2, .cls-3 {
        stroke-width: 0px;
      }

      .cls-2 {
        fill: #0b1018;
      }

      .cls-3 {
        fill: #fff;
      }
    </style>
  </defs>
  <path class="cls-2" d="M35.28,22.05l-1.92-1.19-.47.29,1.81,1.12-.55.34-12.32,7.64-9.59-5.95-2.22-1.37-.21-.13-.8-.5-.05-.03.64-.4.21-.13.95-.59-.47-.29-.12.07-.41.25-.11.07-.72.45-.56.35c-.07.05-.12.13-.12.22v8.47s0,.07.02.1c.02.05.05.09.1.12l.9.56.47.29.1.06v4.54l1.82-1.5.57.95,1.52,2.53v-4.09l7.95,4.94s.08.04.12.04.08-.01.12-.04l.88-.55,5.46-3.39,6.99-4.35c.07-.05.12-.13.12-.22v-8.47c0-.09-.05-.17-.12-.22ZM8.68,30.6v-7.95l1.17.73v7.95l-1.17-.73ZM34.93,30.6l-7.46,4.64-5.46,3.4-.19.1-8.05-5v-7.91l7.96,4.93s.07.03.11.03.08-.01.11-.03l12.99-8.05v7.9Z"/>
  <polygon class="cls-1" points="9.86 23.38 9.86 31.33 8.68 30.6 8.68 22.66 9.86 23.38"/>
  <path class="cls-1" d="M34.93,22.7v7.9l-7.46,4.64-5.46,3.4-.19.1-8.05-5v-7.91l7.96,4.93s.07.03.11.03.08-.01.11-.03l12.99-8.05Z"/>
  <path class="cls-2" d="M21.83,27.05s-.08-.01-.12-.03l-13.34-8.29c-.07-.04-.12-.13-.12-.22v-8.47c0-.09.04-.17.12-.22L21.71,1.57s.08-.03.12-.03.08.01.12.03l13.33,8.25c.07.04.12.13.12.22v8.47c0,.09-.04.17-.12.22l-13.33,8.29s-.08.03-.12.03ZM22.06,18.44v7.92l12.87-8v-7.9l-12.87,7.98ZM8.73,18.36l12.87,8v-7.92l-12.87-7.98v7.9ZM8.96,10.03l12.87,7.98,12.87-7.98-12.87-7.96-12.87,7.96Z"/>
  <polygon class="cls-3" points="10.23 23.62 10.23 25.65 10.19 35.47 11.71 34.16 13.34 36.76 13.34 25.56 10.23 23.62"/>
</svg>