<?xml version="1.0" encoding="UTF-8"?>
<svg id="Layer_1" xmlns="http://www.w3.org/2000/svg" viewBox="0 0 1000 1000">
  <defs>
    <style>
      .cls-1 {
        fill: #fff;
      }

      .cls-2 {
        fill: #eb2127;
        stroke: #010101;
        stroke-miterlimit: 10;
        stroke-width: .25px;
      }
    </style>
  </defs>
  <path class="cls-2" d="M806.24,747.62v-148.35l-296.51,171.65c-3.01,1.74-6.36,2.61-9.72,2.61s-6.71-.87-9.72-2.61l-173.57-100.48v148.54l183.29,106.39,306.23-177.76Z"/>
  <path class="cls-1" d="M835.34,548.82l-53.85-31.09-38.7,22.47,44.08,25.45-286.87,166.07-286.87-166.07,44.08-25.45-38.7-22.47-53.85,31.09c-6,3.46-9.7,9.87-9.7,16.8v193.18c0,6.92,3.68,13.31,9.66,16.78l29.14,16.92v123.27l54.71-41.93,68.24,106.04v-116.01l173.55,100.74c3.01,1.75,6.37,2.62,9.74,2.62s6.73-.87,9.74-2.62l325.64-189.02c5.98-3.47,9.66-9.87,9.66-16.78v-193.18c0-6.93-3.7-13.34-9.7-16.8ZM500,925.38l-183.29-106.39v-148.54l173.57,100.48c3.01,1.74,6.36,2.61,9.72,2.61s6.71-.87,9.72-2.61l296.51-171.65v148.35l-306.23,177.76Z"/>
  <path class="cls-1" d="M835.34,210.74L509.7,22.74c-6-3.47-13.4-3.47-19.4,0L164.66,210.74c-6,3.46-9.7,9.87-9.7,16.8v193.18c0,6.92,3.68,13.31,9.66,16.78l325.64,189.02c3.01,1.75,6.37,2.62,9.74,2.62s6.73-.87,9.74-2.62l325.64-189.02c5.98-3.47,9.66-9.87,9.66-16.78v-193.18c0-6.93-3.7-13.34-9.7-16.8ZM500,61.94l286.87,165.62-286.87,166.07L213.13,227.56,500,61.94ZM193.76,261.19l286.84,166.05v148.8l-286.84-166.5v-148.35ZM519.41,576.04v-148.8l286.83-166.05v148.35l-286.83,166.5Z"/>
</svg>