<?xml version="1.0" encoding="UTF-8"?><svg id="a" xmlns="http://www.w3.org/2000/svg" viewBox="0 0 43.77 40"><defs><style>.b{fill:#ec1c24;stroke:#000;stroke-miterlimit:10;stroke-width:.25px;}</style></defs><path class="b" d="M33.93,29.74v-5.83l-11.66,6.75c-.12.07-.25.1-.38.1s-.26-.03-.38-.1l-6.83-3.95v5.84l7.21,4.18,12.04-6.99Z"/><path d="M35.07,21.92l-2.12-1.22-1.52.88,1.73,1-11.28,6.53-11.28-6.53,1.73-1-1.52-.88-2.12,1.22c-.24.14-.38.39-.38.66v7.6c0,.27.14.52.38.66l1.15.67v4.85l2.15-1.65,2.68,4.17v-4.56l6.82,3.96c.12.07.25.1.38.1s.26-.03.38-.1l12.8-7.43c.24-.14.38-.39.38-.66v-7.6c0-.27-.15-.52-.38-.66ZM21.89,36.73l-7.21-4.18v-5.84l6.83,3.95c.12.07.25.1.38.1s.26-.03.38-.1l11.66-6.75v5.83l-12.04,6.99Z"/><path d="M35.07,8.63L22.27,1.23c-.24-.14-.53-.14-.76,0l-12.81,7.39c-.24.14-.38.39-.38.66v7.6c0,.27.14.52.38.66l12.81,7.43c.12.07.25.1.38.1s.26-.03.38-.1l12.8-7.43c.24-.14.38-.39.38-.66v-7.6c0-.27-.15-.52-.38-.66ZM21.89,2.77l11.28,6.51-11.28,6.53-11.28-6.53,11.28-6.51ZM9.84,10.61l11.28,6.53v5.85l-11.28-6.55v-5.83ZM22.65,22.99v-5.85l11.28-6.53v5.83l-11.28,6.55Z"/></svg>