<?xml version="1.0" encoding="UTF-8"?><svg id="a" xmlns="http://www.w3.org/2000/svg" xmlns:xlink="http://www.w3.org/1999/xlink" viewBox="0 0 265.38 40"><defs><style>.c{fill:#211e1f;}.d{fill:none;}.e{clip-path:url(#b);}</style><clipPath id="b"><rect class="d" x="12" y="9.71" width="241.38" height="20.58"/></clipPath></defs><g class="e"><path class="c" d="M173.66,29.94h4.59V10.08h-4.59v8.57h-12.13v-8.57h-4.59v19.86h4.59v-8.5h12.13v8.5Z"/><path class="c" d="M206.38,20.01c0-6-5.04-10.3-12.81-10.3s-12.78,4.3-12.78,10.28,5.04,10.28,12.78,10.28,12.78-4.3,12.78-10.28M201.59,19.99c0,3.9-2.42,7.14-8.01,7.14s-8.01-3.24-8.01-7.14,2.42-7.14,8.01-7.14,8.01,3.21,8.01,7.14Z"/><path class="c" d="M225.3,10.08v11.59c0,4.5-2.22,5.46-5.89,5.46s-5.89-.96-5.89-5.46v-11.59h-4.59v11.59c0,5.76,3.52,8.62,10.48,8.62s10.48-2.87,10.48-8.62v-11.59h-4.59Z"/><path class="c" d="M252.54,15.76c0-3.78-3.1-5.68-9.96-5.68h-9.46v19.86h4.59v-8.52h2.85c4.09,0,5.42.59,5.92,2.4,1.15,4.18,1.42,5.41,1.92,6.1h5.02c-.47-.54-.62-1.06-3.07-7.31-.47-1.16-1.47-2.12-3.5-2.37,2.72-.3,5.72-1.31,5.72-4.5M247.79,15.74c0,2.05-2,2.89-4.94,2.89h-5.12v-5.76h5.12c2.95,0,4.94.84,4.94,2.89"/><path class="c" d="M36.04,16.85s-.77-7.14-11.78-7.14c-7.54,0-12.26,4.32-12.26,10.3s4.99,10.25,11.51,10.25c5.94,0,7.59-3.29,7.59-3.29v2.94h4.32v-10.55h-12.51v2.79h8.19s-.55,4.97-6.86,4.97c-4.67,0-7.46-3.04-7.46-7.11s2.37-7.16,7.46-7.16c6.99,0,7.06,5.26,7.06,5.26l4.72-1.28.02.03Z"/><path class="c" d="M39.08,29.94h17.7v-2.82h-13.08v-5.71h11.56v-2.79h-11.56v-5.78h12.31v-2.77h-16.92v19.86Z"/><path class="c" d="M81.02,10.08h-4.59v15.51l-10.48-15.51h-6.27v19.84h4.59v-15.51l10.48,15.51h6.27V10.08Z"/><path class="c" d="M83.42,12.85h8.84v17.09h4.59V12.85h8.84v-2.77h-22.27v2.77Z"/><path class="c" d="M108.05,29.94h16.6v-2.82h-12.01V10.08h-4.59v19.86Z"/><path class="c" d="M126.9,29.94h17.7v-2.82h-13.11v-5.71h11.56v-2.79h-11.56v-5.78h12.31v-2.77h-16.9v19.86Z"/></g></svg>