<?xml version="1.0" encoding="UTF-8"?><svg id="a" xmlns="http://www.w3.org/2000/svg" viewBox="0 0 193.19 40"><defs><style>.b{fill:#211e1f;}</style></defs><path class="b" d="M33.33,27.72c-1.12,1.36-2.45,2.39-3.97,3.1-1.53.71-3.23,1.06-5.12,1.06-1.7,0-3.27-.31-4.72-.92-1.45-.61-2.7-1.45-3.77-2.51-1.06-1.06-1.9-2.31-2.51-3.77-.61-1.45-.92-3.01-.92-4.69s.31-3.24.92-4.69c.61-1.45,1.45-2.71,2.51-3.77,1.06-1.06,2.31-1.9,3.77-2.51,1.45-.61,3.02-.92,4.72-.92,1.82,0,3.43.32,4.82.95,1.39.64,2.62,1.56,3.7,2.77l-3.02,2.93c-.68-.78-1.46-1.41-2.34-1.88-.88-.46-1.92-.7-3.13-.7-1.06,0-2.06.19-2.99.56-.93.37-1.74.9-2.43,1.57-.69.68-1.23,1.5-1.64,2.46-.4.97-.6,2.04-.6,3.23s.2,2.26.6,3.23c.4.97.95,1.79,1.64,2.47.69.68,1.5,1.2,2.43,1.57.93.37,1.93.56,2.99.56,1.27,0,2.4-.26,3.38-.78.99-.52,1.86-1.25,2.62-2.21l3.05,2.89Z"/><path class="b" d="M47.49,31.84c-1.68,0-3.24-.31-4.67-.92-1.44-.61-2.68-1.45-3.73-2.51-1.05-1.06-1.87-2.32-2.47-3.76-.6-1.44-.9-2.99-.9-4.63s.3-3.19.9-4.63c.6-1.44,1.42-2.7,2.47-3.76,1.05-1.06,2.29-1.9,3.73-2.51,1.44-.61,3-.91,4.67-.91s3.24.3,4.67.91c1.44.61,2.68,1.45,3.73,2.51,1.05,1.06,1.87,2.32,2.47,3.76.6,1.45.9,2.99.9,4.63s-.3,3.19-.9,4.63c-.6,1.45-1.42,2.7-2.47,3.76-1.05,1.06-2.29,1.9-3.73,2.51-1.44.61-3,.92-4.67.92M47.49,27.79c1.05,0,2.03-.19,2.94-.57.91-.38,1.71-.9,2.39-1.58.68-.67,1.22-1.49,1.61-2.45.39-.96.59-2.02.59-3.17s-.19-2.22-.59-3.18c-.39-.96-.92-1.77-1.61-2.45-.68-.67-1.48-1.2-2.39-1.58-.91-.38-1.9-.57-2.94-.57s-2.03.19-2.94.57c-.91.38-1.71.91-2.39,1.58-.68.67-1.22,1.49-1.6,2.45-.39.96-.58,2.02-.58,3.18s.19,2.22.58,3.17c.39.96.92,1.78,1.6,2.45.68.67,1.48,1.2,2.39,1.58.91.38,1.9.57,2.94.57"/><polygon class="b" points="62.57 8.62 67.56 8.62 76.71 23.88 76.97 23.88 76.71 19.49 76.71 8.62 80.97 8.62 80.97 31.38 76.46 31.38 66.8 15.26 66.54 15.26 66.8 19.65 66.8 31.38 62.57 31.38 62.57 8.62"/><path class="b" d="M92.51,31.89c-.98,0-1.91-.14-2.8-.41-.89-.27-1.7-.69-2.45-1.24-.74-.55-1.39-1.22-1.94-2.02-.55-.8-.98-1.72-1.3-2.78l4.03-1.59c.3,1.14.82,2.09,1.56,2.85.74.75,1.72,1.13,2.93,1.13.44,0,.87-.06,1.29-.17.41-.12.78-.29,1.11-.51.33-.22.59-.51.78-.84.19-.34.28-.73.28-1.17s-.07-.81-.22-1.14c-.15-.34-.4-.66-.75-.96-.35-.29-.81-.58-1.37-.86-.56-.27-1.26-.56-2.08-.86l-1.4-.51c-.61-.21-1.23-.5-1.86-.86-.63-.36-1.19-.8-1.7-1.3-.51-.51-.93-1.11-1.26-1.79-.33-.69-.49-1.47-.49-2.34s.18-1.72.52-2.49c.35-.77.85-1.45,1.49-2.04.65-.58,1.42-1.04,2.32-1.37.9-.33,1.9-.49,3-.49s2.14.15,2.97.46c.84.31,1.55.7,2.13,1.18.58.48,1.06,1,1.41,1.57.36.57.63,1.11.8,1.62l-3.78,1.59c-.21-.64-.6-1.21-1.16-1.72-.56-.51-1.33-.76-2.31-.76s-1.7.22-2.32.65c-.62.43-.92,1-.92,1.7s.3,1.26.89,1.73c.59.48,1.53.94,2.83,1.38l1.43.48c.91.32,1.74.68,2.49,1.1.75.41,1.4.9,1.94,1.48.54.57.95,1.22,1.24,1.95.29.73.43,1.57.43,2.53,0,1.19-.24,2.21-.72,3.07-.48.86-1.09,1.56-1.83,2.11-.74.55-1.58.97-2.51,1.24-.93.27-1.84.41-2.73.41"/><polygon class="b" points="108.34 31.38 108.34 12.69 101.98 12.69 101.98 8.62 118.99 8.62 118.99 12.69 112.63 12.69 112.63 31.38 108.34 31.38"/><path class="b" d="M126.62,8.62h4.9l8.55,22.76h-4.74l-1.87-5.44h-8.77l-1.88,5.44h-4.74l8.55-22.76ZM132.05,22l-2.03-5.69-.83-2.77h-.25l-.83,2.77-2.03,5.69h5.98Z"/><polygon class="b" points="142.73 8.62 147.72 8.62 156.88 23.88 157.13 23.88 156.88 19.49 156.88 8.62 161.14 8.62 161.14 31.38 156.62 31.38 146.96 15.26 146.71 15.26 146.96 19.65 146.96 31.38 142.73 31.38 142.73 8.62"/><polygon class="b" points="170.54 31.38 170.54 12.69 164.19 12.69 164.19 8.62 181.19 8.62 181.19 12.69 174.84 12.69 174.84 31.38 170.54 31.38"/></svg>