<?xml version="1.0" encoding="UTF-8"?><svg id="a" xmlns="http://www.w3.org/2000/svg" viewBox="0 0 222.54 40"><defs><style>.b{fill:#bc263b;}</style></defs><path class="b" d="M49.31,30.38h16.43v3.01h-20.69V6.6h4.26v23.78ZM82.82,28.84l-10.32-22.24h-5.32v26.8h3.91V11.74l9.97,21.65h3.42l10.02-21.65v21.65h3.91V6.6h-5.18l-10.41,22.24ZM157.93,30.94l1.23,2.46h-4.83c-.5-.91-.79-2.11-.88-3.6-.06-1.32-.13-2.33-.22-3.02-.23-1.52-.73-2.62-1.49-3.31-1.02-.91-2.31-1.36-3.87-1.36h-10.72v11.28h-4.17V6.6h15.15c3.31,0,5.86.63,7.66,1.89,1.8,1.26,2.7,3.08,2.7,5.46,0,1.57-.43,2.87-1.28,3.9-1.08,1.3-2.56,2.17-4.43,2.61.94.35,1.73.74,2.37,1.18.64.46,1.11.98,1.4,1.54.64,1.28.97,2.73.97,4.38-.03,1.35.1,2.48.4,3.38M152.61,17.96c1.11-.81,1.67-1.99,1.67-3.53,0-1.74-.57-3.04-1.71-3.9-.76-.56-2.53-.85-5.31-.85h-10.1v9.49h10.1c2.4,0,4.19-.41,5.36-1.21M181.69,6.6l-9.22,22.68-9.75-22.68h-4.57l11.95,26.8h4.57l11.55-26.8h-4.53ZM210.54,33.4h-4.52l-3.3-8.05h-12.3l-3.38,8.05h-4.3l11.38-26.8h5.22l11.2,26.8ZM201.58,22.48l-4.92-12.2-5.23,12.2h10.15ZM129.96,20.52c0,6.74-5,12.85-14.07,12.85-8.14,0-14.47-5.4-14.47-13.88,0-6.74,5-12.85,14.07-12.85,8.14,0,14.47,5.41,14.47,13.89M124.34,19.89c0-6.33-2.83-11.89-8.45-11.89-6.1,0-8.8,6.15-8.8,12.11,0,6.33,2.83,11.89,8.41,11.89,6.1,0,8.85-6.15,8.85-12.11M42.05,16.79c0,7.92-6.95,16.42-17.86,16.42-7.92,0-12.19-4.57-12.19-10.16,0-7.92,6.95-16.42,17.86-16.42,7.92,0,12.19,4.57,12.19,10.16M35.27,15.53c0-4.23-1.5-7.4-5.54-7.4-6.99,0-10.95,10.02-10.95,16.16,0,4.24,1.54,7.4,5.54,7.4,6.99,0,10.95-10.02,10.95-16.16"/></svg>