<?xml version="1.0" encoding="UTF-8"?><svg id="a" xmlns="http://www.w3.org/2000/svg" viewBox="0 0 105.91 40"><defs><style>.b{fill:#7d211f;}.c{fill:#927359;}</style></defs><path class="c" d="M27.6,23.16c-.16-.19-.23-.52-.23-.99v-5.45c0-.59-.19-1.16-.58-1.71-.39-.55-.79-.83-1.21-.83-.24,0-1.36.36-3.34,1.06h0c0,.31.24.57.56.59.8.04,1.36.18,1.67.42.39.29.58.8.58,1.53l-1.02.32c-.69.21-1.35.47-2,.79-.67.32-1,.59-1,.79v3.16c0,.54.19,1.02.58,1.44.15.17.31.33.49.47.12.11.26.2.39.29.07.04.13.08.17.11l2.4-1.29c0,.22.12.46.37.72.22.24.49.44.79.57l2.1-1.17h0c0-.23-.14-.44-.34-.54-.15-.05-.27-.14-.37-.26ZM25.06,23c-.27.19-.52.29-.77.29s-.46-.11-.66-.32-.3-.48-.3-.82v-1.25c0-.76.17-1.29.5-1.6.15-.14.32-.27.51-.37.16-.07.4-.17.72-.29v4.35Z"/><path class="c" d="M35.03,14.97c-.42-.52-.79-.79-1.12-.79-.22,0-.99.34-2.31,1.02v-1.63c0-.6.2-1.19.58-1.65.17-.21.36-.4.57-.57h.01c.29-.25.39-.66.22-.99h0c-1.31.77-2.8,1.59-4.46,2.46h0c0,.27.16.51.41.61.07.03.14.08.19.15.12.15.17.39.17.74v8.02c0,.69.19,1.36.57,1.93.39.58.74.87,1.06.87s1.19-.27,2.61-.8c1.42-.53,2.12-.86,2.12-.99v-6.72c0-.59-.21-1.15-.63-1.67ZM33.33,23.07c-.24.2-.54.31-.85.31-.59,0-.89-.56-.89-1.69v-5.68c.47,0,.82.04,1.04.11.46.17.69.88.69,2.13v4.82h0Z"/><path class="c" d="M42.99,14.99c-.36-.54-.74-.81-1.15-.81-.16,0-.51.19-1.05.57-.54.38-.85.58-.92.61,0-.26-.11-.49-.32-.69-.21-.21-.38-.33-.5-.37-.12-.04-.23-.08-.32-.11l-1.75.95c-.23.12-.37.36-.37.62h0c.23,0,.44.14.64.42.2.28.31.71.31,1.27v6.39c0,.23.12.48.36.74.22.24.49.44.79.57l1.95-1.1h0c0-.22-.11-.42-.29-.53-.33-.19-.49-.6-.49-1.22v-6.14c.46,0,.81.08,1.04.25.17.13.28.61.3,1.44,0,.26.13.51.33.68h0l1.98-1.12v-.94c0-.45-.18-.94-.54-1.48Z"/><path class="c" d="M50.29,14.97c-.44-.52-.77-.79-.99-.79s-1.06.27-2.52.82c-1.46.54-2.19.86-2.19.95v6.39c0,.77.2,1.43.61,1.98.41.55.76.83,1.07.83s1.17-.27,2.58-.82c1.4-.54,2.11-.87,2.11-.97v-6.98c0-.42-.22-.9-.66-1.42ZM48.63,23.07c-.26.21-.51.31-.75.31-.66,0-.98-.47-.98-1.42v-5.69c.24-.19.49-.29.75-.29.66,0,.98.47.98,1.42v5.67Z"/><path class="c" d="M59.23,22.31v-5.83c0-.45-.18-.94-.54-1.48-.36-.54-.74-.81-1.15-.81-.18,0-.74.27-1.69.81-.36.21-.58.32-.66.37,0-.27-.12-.53-.32-.71-.21-.21-.38-.33-.51-.37s-.24-.08-.32-.11c-.82.48-1.4.82-1.74,1-.22.12-.36.35-.36.59h0c.27,0,.49.16.67.46.19.34.28.71.27,1.1v6.52c0,.23.12.48.37.74.22.24.49.44.79.57l1.94-1.1h0c0-.22-.11-.42-.29-.53-.33-.19-.49-.6-.49-1.22v-6.14l.64-.12c.41,0,.7.19.85.57.16.38.24.93.24,1.65v5.58c0,.23.12.48.37.74.22.24.49.44.79.57l2.1-1.17h0c0-.24-.14-.44-.34-.54-.42-.21-.62-.59-.62-1.15Z"/><path class="c" d="M22.91,10.36c-.37,0-.74-.01-1.12,0-.13.01-.26.07-.35.17-.61.68-1.56.71-2.18.03-.11-.13-.27-.2-.45-.19-.56.02-1.12.04-1.67.06-.57,0-1.14.12-1.68.32-1.32.54-2.4,1.4-3.39,2.39-.06.06-.09.21-.05.27.08.12.2.07.29-.02.55-.49,1.19-.81,1.88-1.04.81-.28,1.75.09,2.13.86.09.18.21.38.24.59v1.73c-.67.02-1.32.18-1.92.47v.46h1.93v4.66h0v2.7c0,.23.12.48.37.74.22.24.49.44.79.57l1.94-1.1c0-.11-.02-.21-.07-.31-.05-.09-.12-.17-.22-.22-.33-.19-.49-.6-.49-1.22v-1.16h0v-4.66h1.92v-.46c-.6-.3-1.25-.46-1.92-.47,0,0-.02-1.29,0-1.72.01-.13.03-.26.06-.39,0-.02,0-.03.01-.05.12-.54.44-.9.97-1.06.54-.16,1.02-.04,1.44.35.09.09.22.19.34.2.41.03.82,0,1.23.01.19,0,.29-.09.29-.28v-1.95c0-.2-.09-.3-.29-.3Z"/><path class="b" d="M70.15,5.75c.23-.06.43-.05.61.03.18.08.32.19.43.34.11.15.19.32.22.51s.03.37-.02.54c-.03.09-.09.21-.18.36-.1.16-.21.32-.33.48-.13.16-.25.31-.36.45-.11.14-.19.22-.24.25-.13.1-.25.17-.37.2-.12.04-.23.06-.33.06-.1,0-.2.02-.31.03-.1.01-.21.05-.31.11-.13.04-.28.08-.46.12-.18.04-.37.09-.56.15-.19.06-.38.15-.58.27-.2.11-.38.28-.54.49-.09.16-.25.45-.47.88-.23.43-.46.87-.69,1.32-.27.54-.57,1.13-.89,1.77-.05.16-.04.28.01.36.05.09.13.16.23.21.1.06.21.09.33.11.12.01.24.02.34.02h.66s.09.01.15.04c.06.03.11.06.18.09.06.04.13.08.2.11l-.13.43s-.07.12-.16.22-.21.21-.33.32-.24.2-.36.28c-.12.08-.2.12-.26.12h-1c-.41,0-.71.06-.88.19-.17.13-.3.34-.39.64-.05.09-.11.16-.15.23-.05.07-.09.14-.12.2-.03.06-.06.12-.07.16-.15.5-.31.96-.5,1.4-.19.43-.31.74-.36.93-.02.06-.08.2-.18.42-.1.22-.22.46-.34.73-.13.26-.25.52-.35.76-.11.24-.18.41-.2.51l-.37,1.02s-.05.12-.1.23c-.05.11-.11.23-.17.36s-.11.25-.16.37-.08.21-.1.27c-.07.24-.14.43-.2.57-.06.14-.12.25-.18.33-.06.09-.11.16-.15.22-.04.06-.08.15-.1.25-.02.06-.08.18-.19.37-.11.19-.23.4-.36.63-.13.23-.27.45-.41.66-.14.21-.26.37-.34.47-.23.21-.43.4-.59.57-.16.16-.35.41-.56.74-.1.04-.28.16-.54.35s-.55.39-.85.61c-.31.21-.6.41-.89.58-.29.17-.51.26-.68.26-.16,0-.28.01-.38.03-.1.02-.2.05-.29.09-.1.04-.19.06-.27.09-.08.02-.19.03-.32.03h-.17c-.09,0-.16,0-.22-.02-.06-.01-.11,0-.14.02-.07.03-.13.05-.2.05-.07,0-.14.01-.23.01-.07,0-.18,0-.31-.02-.14-.01-.28-.03-.43-.04-.15-.01-.28-.03-.4-.04-.12-.01-.21-.02-.25-.02-.06,0-.17-.02-.33-.05-.16-.04-.32-.09-.47-.17-.15-.08-.28-.17-.39-.28s-.13-.24-.09-.39c.01-.04.07-.12.17-.25.1-.12.21-.25.34-.39.13-.14.25-.28.38-.41.12-.13.21-.21.27-.26.02-.06.1-.15.26-.27.16-.12.34-.24.54-.35.2-.11.41-.22.63-.31.21-.09.38-.14.49-.14h.36s.05.06.1.11c.02.03.05.06.09.1.04.04.07.07.09.1l.48.17c.09.03.18.05.26.06.06.03.14.05.22.05.08,0,.15.01.19.01h.47c.3,0,.58-.07.84-.2.26-.14.53-.32.82-.57.08-.01.19-.14.35-.38.16-.24.34-.53.54-.88.2-.34.41-.71.62-1.12.21-.41.41-.79.6-1.15.19-.36.34-.68.46-.95.12-.27.19-.44.22-.51l.12-.41s.06-.15.15-.36c.09-.21.21-.47.35-.78.14-.31.3-.64.47-1.01.17-.37.34-.73.5-1.09.16-.36.32-.68.46-.98.15-.3.26-.53.36-.7.03-.1.07-.21.12-.33.05-.12.1-.23.16-.33.06-.11.12-.23.19-.34.05-.18.01-.32-.13-.41-.14-.09-.3-.15-.5-.19-.19-.04-.36-.09-.51-.15-.15-.06-.2-.16-.15-.32.03-.1.07-.2.12-.31.05-.11.15-.2.29-.29.11-.1.26-.17.42-.2.17-.04.33-.06.49-.09.16-.02.32-.06.47-.12.15-.06.28-.16.38-.3.08-.07.17-.21.29-.41.12-.2.24-.43.36-.7.12-.27.25-.56.39-.88.13-.31.26-.61.37-.89.11-.28.21-.53.28-.75.08-.22.13-.38.16-.48.1-.11.23-.27.37-.46.14-.19.24-.37.29-.54.05-.17.14-.34.28-.52.14-.18.29-.35.46-.52.17-.17.35-.33.52-.47.18-.14.34-.26.47-.34.26-.2.48-.38.66-.55.18-.17.4-.36.68-.56.11-.04.22-.1.33-.18.11-.08.22-.15.33-.22.11-.07.23-.13.35-.18s.26-.07.42-.07h.36Z"/><path class="b" d="M69.52,14.35c.16-.03.26,0,.29.06.03.07.12.15.28.23.13.09.24.19.32.3.08.11.1.25.05.41-.04.07-.07.15-.11.23-.08.19-.12.36-.12.53-.04.13-.11.28-.21.46-.1.18-.16.32-.16.44.01.06.04.11.08.17.03.04.06.08.1.12.04.04.08.04.14.01.15-.03.34-.16.58-.41.23-.24.48-.51.72-.81.24-.3.49-.59.73-.88s.44-.48.6-.58l.71-.17c.09-.03.19-.04.29-.02.1.01.18.02.24.02.22.16.33.37.32.65-.01.28-.03.49-.04.65-.04.2-.19.46-.44.79-.25.33-.52.6-.81.81-.12.06-.22.1-.32.14-.1.04-.19.07-.28.1-.07,0-.12,0-.16-.01-.03,0-.07-.02-.12-.05-.06-.03-.13-.05-.19-.05-.06,0-.14-.01-.22-.01-.19,0-.38.07-.59.21-.21.14-.41.29-.61.45-.33.3-.62.64-.87,1.01-.25.38-.42.73-.52,1.06-.13.1-.28.22-.46.37-.18.15-.33.32-.46.52-.14.2-.24.41-.3.62-.06.21-.16.42-.3.62-.04.17-.09.37-.17.59-.08.22-.17.45-.28.69-.11.24-.22.47-.34.69-.12.22-.24.42-.37.59-.12.07-.26.13-.42.19-.16.06-.32.1-.49.13-.18.04-.38.07-.58.09-.07,0-.15-.06-.23-.17-.04-.06-.07-.11-.1-.17l-.12-.6c.01-.1.08-.27.19-.51s.24-.49.37-.74c.13-.25.25-.47.36-.67.11-.2.17-.31.18-.34.45-.47.8-.96,1.06-1.48.25-.52.51-1.04.78-1.55l.25-1.41c-.02-.18-.08-.28-.18-.28s-.22.01-.34.04c-.24.04-.42.1-.54.18-.12.08-.23.16-.33.25-.1.09-.2.17-.31.25-.11.08-.27.13-.5.16-.11,0-.16-.07-.15-.21.01-.14.02-.27.03-.38,0-.13.07-.25.17-.37.11-.12.24-.23.39-.34.15-.11.32-.21.51-.32.19-.11.36-.22.52-.33.23-.18.43-.39.63-.61.19-.22.38-.43.57-.62.18-.19.38-.36.58-.49.2-.14.44-.22.7-.25Z"/><path class="b" d="M80.13,14.29c.3,0,.49.09.56.26.08.17.07.41-.02.7-.02.06-.08.18-.17.37-.1.19-.22.41-.35.64-.13.23-.27.47-.41.72-.14.24-.26.43-.34.58-.03.11-.08.23-.13.35-.05.12-.15.28-.29.48-.14.09-.24.22-.29.42-.06.19-.1.33-.12.42l-.4,1.13-.25.83s-.03.12-.06.22c-.02.11-.04.21-.05.32s0,.2.04.28c.03.08.1.12.2.12l.44-.47c.11-.07.23-.16.38-.27.15-.11.29-.21.43-.31.16-.11.33-.23.49-.36.09,0,.15.04.18.11.04.07.04.15.02.23l-.14.17c-.09.11-.17.2-.25.26-.18.28-.38.53-.6.74s-.45.41-.69.6c-.24.19-.49.39-.74.59-.25.2-.5.43-.75.68l-.67.66c-.04.13-.12.26-.23.39-.12.14-.24.24-.37.32-.13.08-.25.11-.37.11-.12,0-.19-.09-.22-.25,0-.26.02-.51.1-.76.07-.25.17-.49.28-.73.11-.23.22-.46.33-.67.11-.21.19-.42.25-.62l.23-.77.13-.43c.02-.07-.01-.12-.11-.15-.05-.01-.1-.02-.14-.02s-.19.13-.43.37c-.24.25-.52.53-.84.85-.32.32-.64.64-.96.97-.32.33-.58.56-.76.7-.06.06-.15.14-.28.25-.12.11-.25.21-.39.31-.14.1-.28.19-.43.27-.15.08-.28.12-.38.12-.2,0-.34-.07-.43-.21-.09-.14-.14-.31-.15-.5-.01-.19-.01-.38.01-.58.02-.19.04-.33.07-.42l.39-1.54,1.04-2.5s.06-.14.15-.3c.09-.16.2-.33.32-.51.13-.18.26-.37.41-.54.15-.18.28-.32.42-.44.53-.38,1.06-.85,1.61-1.41.26-.26.49-.44.7-.56.2-.11.4-.2.59-.27.19-.06.38-.11.56-.15.18-.04.4-.11.64-.22.09,0,.21-.05.37-.14.16-.09.31-.18.45-.27h.96l.46-.19ZM76.7,16.66c-.32.21-.63.46-.94.74-.31.28-.59.56-.85.84-.26.28-.47.55-.64.8-.17.25-.28.45-.32.59-.02.07-.07.2-.14.39-.07.19-.12.39-.16.6-.03.21-.03.39,0,.56.03.16.14.25.34.25.18,0,.45-.16.8-.49.35-.33.69-.7,1.03-1.11.34-.41.64-.8.9-1.15.25-.36.39-.57.41-.64.02-.06.06-.2.14-.42.08-.22.13-.43.16-.64.03-.21,0-.36-.1-.45-.09-.09-.3-.05-.63.14Z"/><path class="b" d="M85.27,14.65c.26,0,.45.06.59.19.14.13.24.28.31.47.07.18.09.38.08.59s-.04.38-.08.52l-.06.19-.18.6c-.05.16-.17.44-.38.84-.21.41-.43.83-.66,1.26-.24.43-.45.84-.65,1.22-.2.38-.31.62-.34.72l-.12.41c-.03.09-.12.22-.28.39-.16.18-.34.4-.54.66-.2.26-.4.57-.62.93-.21.36-.39.76-.52,1.22l-.18.6-.18.6c.05.2.07.41.03.64-.03.23.02.48.15.77.05.21.05.46,0,.73-.04.27-.05.5-.03.7-.03.26-.06.46-.08.6-.02.14-.04.27-.06.38s-.05.23-.08.34c-.03.11-.08.27-.14.47l-.24.81c-.11.21-.24.39-.4.54-.16.15-.32.29-.5.42-.17.13-.35.25-.52.35-.17.11-.32.21-.43.31-.26.2-.54.38-.84.56-.3.17-.49.26-.58.26l-.65.19h-.41c-.13,0-.31.03-.56.09-.24.06-.42.09-.52.09h-1.24c-.2,0-.36-.04-.5-.13-.13-.09-.24-.19-.34-.31-.09-.12-.17-.25-.24-.38s-.13-.25-.18-.35c-.07-.04-.14-.12-.21-.22-.07-.11-.13-.22-.18-.34-.05-.12-.08-.25-.09-.37-.01-.13,0-.23.02-.32l.18-.6c.07-.24.16-.45.28-.62.11-.17.26-.38.45-.62.11-.18.31-.41.58-.67.28-.26.5-.49.65-.69.08-.07.17-.13.29-.18.11-.05.23-.1.35-.16.12-.06.23-.12.35-.18.12-.06.22-.15.31-.25.23-.11.43-.22.59-.32.16-.1.36-.19.59-.28.1,0,.21-.03.34-.1.13-.06.25-.14.38-.24.13-.09.25-.19.37-.28.12-.09.23-.17.33-.22.15-.09.27-.15.36-.18.09-.04.15-.11.18-.22.14-.1.31-.2.5-.29.19-.09.36-.2.51-.31.15-.26.28-.5.41-.75.12-.2.23-.4.33-.61.1-.21.17-.37.21-.48.05-.18,0-.29-.16-.32-.16-.03-.35-.04-.56-.04h-.17c-.06,0-.14-.04-.25-.13-.11-.09-.22-.19-.33-.31-.11-.12-.2-.23-.27-.34s-.11-.18-.09-.22l.13-.43c.08-.28.12-.5.1-.65-.02-.15,0-.32.06-.52.09-.3.27-.67.56-1.12.28-.45.58-.89.91-1.33.32-.44.62-.85.9-1.22.28-.37.46-.63.55-.79.12-.09.27-.15.43-.2.16-.05.28-.18.34-.4.26-.17.57-.37.91-.6.34-.23.67-.34.97-.34ZM79.29,27.46c-.2,0-.4.06-.61.18-.21.12-.44.28-.7.48-.02.06-.13.16-.34.31-.21.15-.44.34-.7.58-.26.23-.52.52-.78.84-.26.33-.45.7-.57,1.11-.05.16,0,.3.16.43.15.13.34.24.55.34.21.1.43.18.65.23.22.06.37.09.45.09.14,0,.32-.05.53-.16.21-.11.41-.25.61-.42.2-.17.38-.36.54-.55.16-.2.27-.4.33-.6l.25-.83c.02-.06.05-.2.09-.42s.06-.45.06-.68c0-.24-.04-.45-.1-.64-.06-.19-.2-.29-.42-.29ZM83.54,17.55c-.16,0-.31.08-.47.25-.16.16-.3.35-.45.57-.14.21-.26.42-.35.62-.09.2-.15.33-.17.41l-.28.96c0,.23,0,.43.02.6.01.16.03.29.07.41.04.11.09.17.16.17l.38-.28c.23-.4.45-.77.65-1.11.16-.28.31-.57.46-.84.15-.28.24-.46.27-.54.02-.07.05-.17.08-.31.03-.13.05-.27.04-.39,0-.13-.04-.24-.09-.34-.06-.1-.16-.15-.32-.15Z"/><path class="b" d="M92.77,14.29c.21,0,.38.1.49.3.11.2.14.4.08.6-.05.16-.2.29-.46.4-.26.11-.55.21-.86.3-.31.09-.62.18-.92.27-.3.09-.51.18-.63.28-.17.13-.3.27-.41.44s-.18.33-.23.5c-.05.17-.07.33-.06.49.01.16.04.3.09.43.04.2.1.41.17.63.07.22.12.47.15.76.03.28.03.6,0,.96-.03.36-.11.75-.24,1.2-.11.38-.36.77-.73,1.16-.37.39-.8.74-1.29,1.04-.36.17-.65.31-.85.42-.2.11-.38.19-.52.26-.15.06-.28.11-.41.13-.13.02-.28.03-.47.03h-.77c-.07,0-.17,0-.28.02-.12.01-.24.04-.36.06-.15.03-.31.06-.47.09h-.6c-.4,0-.54-.19-.43-.58.03-.1.14-.26.33-.47.19-.21.41-.42.66-.62.25-.2.51-.38.77-.53.26-.16.47-.23.62-.23.04,0,.1.03.18.1.08.06.18.13.29.2.11.07.25.14.4.2.15.06.33.1.55.1.14,0,.29-.04.43-.13.15-.09.28-.19.4-.31s.22-.25.31-.38c.08-.13.14-.25.17-.35.07-.24.07-.54-.02-.89-.08-.35-.18-.7-.3-1.07-.12-.36-.23-.71-.31-1.04-.09-.33-.1-.6-.04-.81l.07-.23c.13-.24.29-.49.48-.75.19-.26.39-.49.59-.7.21-.21.42-.4.64-.57.22-.16.43-.27.65-.31.12-.06.25-.15.39-.28s.28-.25.4-.36c.15-.11.28-.22.41-.33.12-.11.24-.17.35-.2.14-.1.34-.16.58-.17.25-.01.43-.02.54-.02h.47Z"/><path class="b" d="M92.53,21.89l.15-.15s.06-.02.07.01l.1.19s.04.03.06.02l.19-.09s.06,0,.07.03l.03.21s.03.04.05.04l.21-.03s.06.02.05.05l-.03.21s.01.05.04.05l.21.03s.05.04.03.07l-.09.19s0,.05.02.06l.19.1s.03.05.01.07l-.15.15s-.02.05,0,.07l.15.15s.02.06-.01.07l-.19.1s-.03.04-.02.06l.09.19s0,.06-.03.07l-.21.03s-.04.03-.04.05l.03.21s-.02.06-.05.05l-.21-.03s-.05.01-.05.04l-.03.21s-.04.05-.07.03l-.19-.09s-.05,0-.06.02l-.1.19s-.05.03-.07.01l-.15-.15s-.05-.02-.07,0l-.15.15s-.06.02-.07-.01l-.1-.19s-.04-.03-.06-.02l-.19.09s-.06,0-.07-.03l-.03-.21s-.03-.04-.05-.04l-.21.03s-.06-.02-.05-.05l.03-.21s-.01-.05-.04-.05l-.21-.03s-.05-.04-.03-.07l.09-.19s0-.05-.02-.06l-.19-.1s-.03-.05-.01-.07l.15-.15s.02-.05,0-.07l-.15-.15s-.02-.06.01-.07l.19-.1s.03-.04.02-.06l-.09-.19s0-.06.03-.07l.21-.03s.04-.03.04-.05l-.03-.21s.02-.06.05-.05l.21.03s.05-.01.05-.04l.03-.21s.04-.05.07-.03l.19.09s.05,0,.06-.02l.1-.19s.05-.03.07-.01l.15.15s.05.02.07,0Z"/></svg>