<?xml version="1.0" encoding="UTF-8"?><svg id="a" xmlns="http://www.w3.org/2000/svg" viewBox="0 0 153.7 40"><defs><style>.b{fill:#e570a8;}</style></defs><path class="b" d="M25.09,15.63c.44.97.66,2.14.66,3.47v10.15h-2.32v-10.15c0-1.11-.18-2.1-.52-2.93-.34-.82-.77-1.43-1.29-1.82-.52-.4-1.12-.66-1.8-.78-.68-.12-1.35-.09-2.01.1-.66.19-1.32.54-1.95,1.04-.61.48-1.13,1.07-1.54,1.76v12.78h-2.32V3.54h2.32v11.34c.41-.48.9-.91,1.46-1.26.79-.51,1.63-.87,2.49-1.08.87-.21,1.76-.24,2.65-.07.89.17,1.71.49,2.42.96.73.49,1.32,1.23,1.76,2.22M31.46,6.42c.4,0,.74-.14,1.02-.42.28-.28.43-.63.43-1.03s-.14-.74-.43-1.03c-.56-.56-1.49-.56-2.05,0-.28.28-.42.63-.42,1.03s.14.75.42,1.03c.28.28.63.43,1.03.43M30.3,12.32v16.93h2.32V12.32h-2.32ZM38.48,32.41c0,1-.02,1.36-.03,1.47-.15.79-.6,1.3-1.37,1.54-.77.25-1.41.11-1.97-.43-.28-.26-.5-.59-.65-.96-.19-.63-.59-.86-.89-.95-.44-.12-.84-.02-1.16.31-.22.23-.43.64-.2,1.32.27.71.89,1.22,1.83,1.54.45.15.91.23,1.37.23.73,0,1.47-.18,2.23-.54,1.24-.59,2.11-1.46,2.59-2.58.4-.88.6-2.17.6-3.84V12.32h-2.36v20.09ZM59.51,20.02v9.13s-2.36,0-2.36,0v-1.9c-.45.45-1.03.84-1.74,1.17-.99.46-2.05.72-3.15.78-.25.01-.49.02-.73.02-.83,0-1.65-.08-2.43-.24-1.04-.21-1.91-.68-2.6-1.38-.7-.72-1.05-1.61-1.05-2.67,0-.99.31-1.79.91-2.4.59-.58,1.52-1.06,2.76-1.41.49-.12,1.25-.29,2.28-.51,1.02-.22,1.84-.41,2.45-.56.59-.15,1.23-.41,1.89-.76.61-.32,1.07-.7,1.38-1.13-.2-2.2-1.07-3.75-2.58-4.6-1.55-.87-3.02-.88-4.5-.02-1.48.86-2.19,2.24-2.19,4.23,0,.68-.34.99-.63,1.12-.4.18-.8.16-1.18-.07-.39-.23-.57-.6-.51-1.06,0-1.75.92-3.2,2.7-4.31,1.82-1.09,3.79-1.42,5.85-.97,2.4.52,4.05,2.03,4.9,4.48.22.63.38,1.32.48,2.04,0,.22.03.55.07,1.02M48.38,27.08c.42.58.92.97,1.54,1.16.64.21,1.34.29,2.07.26.73-.03,1.44-.22,2.11-.55.67-.33,1.22-.77,1.62-1.31.87-1.18,1.36-2.97,1.43-5.34.02-.53.02-1.09.01-1.68-.43.4-.98.73-1.66.98-.95.35-2.07.66-3.33.92-1.23.25-2.13.48-2.66.69-1.17.49-1.74,1.38-1.74,2.75,0,.83.21,1.54.62,2.12M77.43,17.06c.42,1.14.63,2.46.63,3.93.02,1.4-.18,2.66-.6,3.75-.43,1.1-.99,1.97-1.66,2.58-.67.61-1.46,1.09-2.33,1.41-.78.29-1.59.44-2.4.44-.09,0-.19,0-.28,0-.89-.04-1.77-.19-2.61-.46-.66-.22-1.26-.51-1.81-.87v1.32h-2.32V3.54h2.32v9.84c.54-.33,1.14-.59,1.8-.78,1.66-.47,3.48-.53,5.22.19.87.36,1.66.88,2.35,1.54.69.66,1.25,1.58,1.68,2.72M66.38,23.95c.05,1.67.74,2.91,2.11,3.79,1.31.85,2.61.97,3.97.38,1.78-.75,2.84-2.52,3.16-5.24.07-.52.11-1.08.11-1.67,0-3.93-1-6.51-2.97-7.68-1.3-.77-2.62-.79-4.04-.06-1.3.69-2.05,1.66-2.28,2.99-.02.18-.05.38-.07.6v6.91ZM95.3,22.48c-.65.06-1.01.48-1.01,1.18,0,.32-.02.63-.07.94-.23,1.56-1.02,2.66-2.42,3.37-1.42.71-2.76.68-4.08-.1-1.85-1.1-2.8-3.34-2.8-6.67,0-.63.04-1.26.11-1.85.32-3.2,1.45-5.24,3.34-6.06,1.34-.57,2.63-.44,3.94.41,1.28.82,1.92,1.91,1.97,3.31,0,.48.23.82.65.98.39.15.77.13,1.15-.06.41-.21.59-.55.53-.92,0-.47-.09-.92-.27-1.33-.56-1.4-1.79-2.41-3.65-3.02-2.18-.7-4.25-.54-6.14.46-2.59,1.42-3.92,4.07-3.94,7.87,0,1.4.2,2.66.59,3.75.87,2.32,2.55,3.76,4.98,4.25.58.12,1.15.18,1.72.18,1.43,0,2.8-.39,4.09-1.15,1.82-1.09,2.7-2.56,2.62-4.31.03-.19.02-.37-.06-.56-.25-.52-.68-.75-1.25-.67M121.07,33.4c-.31-.33-.71-.44-1.16-.31-.31.08-.71.31-.89.93-.15.39-.37.72-.66.99-.55.53-1.19.67-1.97.43-.77-.25-1.22-.75-1.36-1.53-.02-.13-.07-.61-.07-1.49v-13.31c0-1.33-.22-2.5-.66-3.47-.44-.98-1.03-1.73-1.76-2.22-.72-.48-1.53-.8-2.42-.96-.89-.16-1.78-.14-2.65.07-.85.21-1.69.58-2.49,1.08-.56.36-1.04.78-1.46,1.26V3.54h-2.32v25.72h2.32v-12.78c.41-.69.93-1.28,1.54-1.76.63-.49,1.29-.84,1.95-1.04.66-.19,1.33-.23,2.01-.1.68.12,1.28.39,1.8.78.51.39.95,1,1.29,1.82.35.83.52,1.82.52,2.93v10.41c0,1.67.2,2.96.6,3.84.48,1.12,1.36,1.99,2.59,2.58.76.36,1.5.54,2.23.54.47,0,.93-.07,1.37-.23.95-.31,1.56-.83,1.84-1.55.22-.67.01-1.08-.21-1.31M120.95,3.94c-.28.28-.43.63-.43,1.03s.15.75.43,1.03c.28.28.63.43,1.03.43s.75-.14,1.03-.42c.28-.28.43-.63.43-1.03s-.14-.74-.43-1.03c-.57-.56-1.49-.56-2.05,0M123.14,29.25V12.32h-2.32v16.93h2.32ZM141.63,23.15c-.24-.52-.69-.76-1.25-.67-.65.06-1.01.48-1.01,1.18,0,.32-.02.63-.07.94-.23,1.56-1.02,2.66-2.42,3.37-1.42.71-2.75.68-4.08-.1-1.85-1.09-2.8-3.34-2.8-6.67,0-.63.04-1.26.11-1.85.32-3.2,1.45-5.24,3.34-6.06,1.34-.57,2.63-.44,3.94.41,1.28.82,1.92,1.91,1.97,3.31,0,.48.22.82.64.98.39.15.78.13,1.15-.06.41-.21.59-.55.53-.92,0-.47-.09-.92-.27-1.33-.56-1.4-1.79-2.41-3.64-3.02-2.19-.7-4.25-.54-6.15.46-2.59,1.42-3.92,4.07-3.94,7.87,0,1.4.2,2.66.59,3.75.87,2.33,2.55,3.76,4.98,4.26.58.12,1.15.18,1.72.18,1.43,0,2.8-.39,4.09-1.15,1.82-1.09,2.7-2.56,2.62-4.31.03-.2.02-.38-.06-.56"/></svg>