<?xml version="1.0" encoding="UTF-8"?><svg id="a" xmlns="http://www.w3.org/2000/svg" viewBox="0 0 112.57 40"><defs><style>.b{fill:#221f1f;}</style></defs><path class="b" d="M28.31,25.97h3.47v2.11c0,4.34-2.15,6.58-6.19,6.58-6.01,0-9-5.09-9-15.36,0-8.78,3.64-13.69,8.82-13.69,4.56,0,8.3,3.47,9,9.17h.62V5.91h-.57v.31c0,1.19-.48,1.8-1.31,1.8s-1.98-1.36-3.82-2.15c-1.32-.57-2.72-.88-4.17-.88-3.12,0-6.23,1.27-8.78,3.68-3.03,2.85-4.52,6.81-4.52,11.67,0,9.18,5.53,14.93,13.7,14.93,3.73,0,7.33-1.49,10.62-4.43v-4.87h2.98v-.61h-10.84v.61ZM46.1,6.7c0-1.1-.83-1.98-1.93-1.98s-1.93.92-1.93,1.98.83,1.93,1.93,1.93,1.93-.83,1.93-1.93ZM46.06,16.66c-.88.35-2.24.53-4.08.53h-2.11v.61h2.5v16.24h-2.5v.62h8.6v-.62h-2.41v-17.38ZM67.17,25.92c0,2.41-.92,4.7-2.68,6.58-1.63,1.76-3.6,2.64-5.84,2.64s-4.22-.88-5.88-2.64c-1.75-1.84-2.67-4.17-2.67-6.58s.92-4.74,2.67-6.58c1.67-1.76,3.69-2.68,5.88-2.68,4.57,0,8.52,4.26,8.52,9.26ZM63.22,23.25c0-4.04-1.41-5.97-4.57-5.97s-4.61,1.93-4.61,5.97v5.31c0,4.04,1.45,5.97,4.61,5.97s4.57-1.93,4.57-5.97v-5.31ZM74.95,6.7c0-1.1-.83-1.98-1.93-1.98s-1.93.92-1.93,1.98.83,1.93,1.93,1.93,1.93-.83,1.93-1.93ZM97.83,34.04h2.9v.62h-11.15v-.62h3.77l-3.2-8.82h-8.95l-2.15,6.98c-.13.4-.18.7-.18.79,0,.88,1.14.96,3.55,1.05v.62h-13.7v-.62h2.5v-16.24h-2.5v-.61h2.11c1.84,0,3.2-.18,4.08-.53v17.38h.49c2.33,0,2.54-.75,3.16-2.68l8.47-26.07h.48l10.31,28.75ZM89.93,24.61l-4.43-12.42-4.08,12.42h8.52Z"/></svg>