<?xml version="1.0" encoding="UTF-8"?><svg id="a" xmlns="http://www.w3.org/2000/svg" xmlns:xlink="http://www.w3.org/1999/xlink" viewBox="0 0 175.62 40"><defs><style>.c{fill:#5d50a0;}.d{fill:none;}.e{clip-path:url(#b);}</style><clipPath id="b"><rect class="d" x="12" y="4.99" width="150.6" height="30.03"/></clipPath></defs><g class="e"><path class="c" d="M14.28,21.86c.44.08,1.1.1,1.92.1,2.36,0,4.54-.86,4.54-3.44,0-2.4-2.07-3.4-4.57-3.4h-1.89v6.74h-.01ZM14.28,13.4h2.07c2.41,0,3.83-1.26,3.83-2.96,0-2.07-1.58-2.88-3.88-2.88-1.04,0-1.66.08-2.02.16v5.68h.01ZM12,6.17c1-.2,2.57-.36,4.17-.36,2.28,0,3.75.4,4.85,1.28.92.68,1.47,1.72,1.47,3.12,0,1.7-1.12,3.2-2.99,3.88v.06c1.68.42,3.65,1.8,3.65,4.42,0,1.52-.6,2.68-1.5,3.54-1.24,1.12-3.23,1.64-6.11,1.64-1.58,0-2.78-.1-3.54-.2V6.17h.01Z"/><path class="c" d="M36.53,20.12c0,1.32.02,2.46.1,3.46h-2.04l-.14-2.08h-.06c-.6,1.02-1.94,2.36-4.2,2.36-1.99,0-4.38-1.1-4.38-5.56v-7.42h2.31v7.02c0,2.4.74,4.04,2.83,4.04,1.54,0,2.62-1.08,3.04-2.1.12-.34.2-.76.2-1.18v-7.78h2.31v9.22h.03Z"/><path class="c" d="M48.78,16.07c0-.28-.02-.68-.1-.96-.34-1.46-1.6-2.68-3.33-2.68-2.39,0-3.8,2.1-3.8,4.9,0,2.56,1.26,4.68,3.75,4.68,1.54,0,2.96-1.02,3.38-2.76.08-.32.1-.62.1-1v-2.2h0ZM51.08,4.99v15.32c0,1.12.02,2.4.1,3.28h-2.07l-.1-2.2h-.06c-.7,1.42-2.26,2.48-4.33,2.48-3.07,0-5.43-2.6-5.43-6.44-.02-4.22,2.6-6.81,5.69-6.81,1.94,0,3.25.92,3.83,1.94h.06v-7.56h2.31Z"/><path class="c" d="M54.68,10.91h2.31v12.68h-2.31v-12.68ZM57.25,7.35c.02.78-.56,1.42-1.47,1.42-.82,0-1.39-.62-1.39-1.42s.6-1.44,1.44-1.44,1.42.62,1.42,1.44"/><path class="c" d="M79.98,16.25l-1.74-5.08c-.4-1.16-.66-2.2-.92-3.22h-.06c-.26,1.04-.56,2.12-.9,3.2l-1.73,5.1h5.34ZM74.19,18.03l-1.84,5.56h-2.36l6.01-17.66h2.75l6.03,17.66h-2.44l-1.89-5.56h-6.27.01Z"/><path class="c" d="M86.98,14.34c0-1.3-.02-2.38-.1-3.44h2.04l.14,2.1h.06c.62-1.2,2.1-2.38,4.2-2.38,1.76,0,4.49,1.04,4.49,5.4v7.57h-2.31v-7.3c0-2.04-.76-3.74-2.94-3.74-1.52,0-2.7,1.08-3.1,2.36-.1.28-.16.68-.16,1.08v7.62h-2.31v-9.26Z"/><path class="c" d="M109.96,16.07c0-.28-.02-.68-.1-.96-.34-1.46-1.6-2.68-3.33-2.68-2.39,0-3.81,2.1-3.81,4.9,0,2.56,1.26,4.68,3.75,4.68,1.54,0,2.96-1.02,3.38-2.76.08-.32.1-.62.1-1v-2.2h0ZM112.27,4.99v15.32c0,1.12.02,2.4.1,3.28h-2.07l-.1-2.2h-.06c-.7,1.42-2.26,2.48-4.33,2.48-3.07,0-5.43-2.6-5.43-6.44-.02-4.22,2.6-6.81,5.69-6.81,1.94,0,3.25.92,3.83,1.94h.06v-7.56h2.31Z"/><path class="c" d="M115.86,4.99h2.31v7.91h.06c.36-.66.94-1.24,1.66-1.62.68-.4,1.5-.66,2.36-.66,1.7,0,4.43,1.04,4.43,5.42v7.54h-2.31v-7.28c0-2.04-.76-3.78-2.94-3.78-1.5,0-2.68,1.04-3.1,2.3-.13.32-.16.66-.16,1.1v7.64h-2.31V4.99Z"/><path class="c" d="M130.19,10.91h2.31v12.68h-2.31v-12.68ZM132.76,7.35c.02.78-.56,1.42-1.47,1.42-.82,0-1.39-.62-1.39-1.42s.6-1.44,1.44-1.44,1.42.62,1.42,1.44"/><path class="c" d="M138.37,16.72h.06c.32-.44.76-1,1.12-1.44l3.73-4.38h2.78l-4.91,5.22,5.59,7.46h-2.81l-4.38-6.08-1.18,1.3v4.76h-2.28V4.99h2.28v11.74Z"/><path class="c" d="M155.32,17.12c-2.52-.06-5.38.4-5.38,2.86,0,1.5,1,2.2,2.18,2.2,1.66,0,2.7-1.04,3.07-2.12.08-.24.14-.5.14-.74v-2.2ZM155.66,23.58l-.18-1.6h-.08c-.7,1-2.08,1.88-3.88,1.88-2.57,0-3.88-1.8-3.88-3.64,0-3.06,2.73-4.74,7.63-4.72v-.26c0-1.04-.3-2.94-2.88-2.94-1.18,0-2.41.36-3.31.94l-.52-1.52c1.05-.68,2.57-1.12,4.17-1.12,3.88,0,4.83,2.64,4.83,5.18v4.74c0,1.1.06,2.18.2,3.04h-2.1.01Z"/><path d="M16.04,27.63v2.32h-2.69v-2.32h-.73v5.56h.73v-2.61h2.69v2.61h.73v-5.56h-.73Z"/><path d="M18.07,29.2h.73v3.99h-.73v-3.99ZM18.87,28.07c0,.25-.17.44-.47.44-.26,0-.44-.19-.44-.44s.19-.45.45-.45.44.19.44.45"/><path d="M22.7,30.77c0-.12,0-.23-.05-.33-.14-.42-.49-.77-1.01-.77-.69,0-1.19.59-1.19,1.51,0,.78.4,1.43,1.18,1.43.44,0,.85-.28,1.01-.74.05-.12.06-.26.06-.39v-.71ZM23.45,29.2c-.02.28-.03.61-.03,1.1v2.31c0,.92-.18,1.47-.57,1.83-.39.36-.95.48-1.45.48s-1.01-.11-1.33-.33l.18-.56c.26.16.68.32,1.17.32.74,0,1.29-.39,1.29-1.39v-.44h-.02c-.23.37-.65.67-1.27.67-.99,0-1.7-.84-1.7-1.94,0-1.35.89-2.12,1.81-2.12.69,0,1.07.36,1.25.69h.01l.03-.6h.64Z"/><path d="M24.62,27.34h.73v2.49h.01c.11-.2.3-.39.52-.51.22-.12.47-.2.74-.2.53,0,1.4.33,1.4,1.7v2.37h-.73v-2.29c0-.65-.24-1.19-.92-1.19-.47,0-.84.33-.98.73-.05.1-.05.2-.05.34v2.4h-.73v-5.85h0Z"/><path d="M34.98,30.39c0-1.11-.58-2.26-1.76-2.26s-1.81,1.12-1.81,2.32.65,2.24,1.77,2.24,1.79-1.04,1.79-2.31ZM35.57,34c-.75-.19-1.49-.42-2.14-.65-.11-.05-.23-.08-.34-.08-1.32-.05-2.45-1.02-2.45-2.81s1.09-2.93,2.59-2.93,2.5,1.17,2.5,2.81c0,1.43-.66,2.34-1.59,2.66v.03c.56.14,1.16.27,1.62.35l-.2.6h.01Z"/><path d="M40.01,32.1c0,.41,0,.77.03,1.09h-.65l-.05-.66h-.01c-.19.32-.61.74-1.32.74-.62,0-1.37-.35-1.37-1.75v-2.34h.73v2.21c0,.76.23,1.27.9,1.27.49,0,.83-.34.95-.66.05-.1.07-.24.07-.37v-2.45h.73v2.9h-.01Z"/><path d="M43.33,31.15c-.8-.01-1.69.12-1.69.9,0,.46.32.69.68.69.52,0,.85-.33.97-.67.02-.08.05-.16.05-.23v-.69ZM43.43,33.19l-.06-.5h-.02c-.23.32-.65.59-1.23.59-.81,0-1.23-.57-1.23-1.14,0-.96.86-1.5,2.41-1.49v-.08c0-.33-.09-.92-.91-.92-.37,0-.76.11-1.04.29l-.17-.48c.33-.22.81-.35,1.32-.35,1.23,0,1.52.83,1.52,1.63v1.5c0,.34.01.68.07.95h-.66Z"/><path d="M45.93,27.34h-.73v5.85h.73v-5.85Z"/><path d="M47.15,29.2h.73v3.99h-.73v-3.99ZM47.96,28.07c0,.25-.17.44-.47.44-.26,0-.44-.19-.44-.44s.19-.45.45-.45.44.19.44.45"/><path d="M49.96,28.05v1.15h1.04v.56h-1.04v2.15c0,.5.14.77.55.77.19,0,.33-.02.42-.05l.03.54c-.14.06-.36.1-.65.1-.34,0-.61-.1-.78-.31-.2-.22-.28-.57-.28-1.04v-2.18h-.62v-.56h.62v-.95l.7-.19h.01Z"/><path d="M52.15,29.2l.87,2.36c.09.26.19.58.25.82h.01c.07-.24.16-.54.25-.83l.79-2.35h.77l-1.09,2.85c-.52,1.37-.87,2.08-1.37,2.49-.35.32-.72.44-.9.46l-.18-.61c.18-.06.42-.17.64-.35.19-.16.44-.43.61-.81.03-.08.06-.14.06-.17s-.01-.1-.05-.19l-1.48-3.67h.81Z"/><path d="M57.46,32.31c.32.19.79.36,1.28.36.74,0,1.16-.39,1.16-.95,0-.52-.3-.82-1.04-1.11-.91-.32-1.47-.79-1.47-1.58,0-.86.72-1.51,1.79-1.51.57,0,.99.14,1.23.27l-.19.59c-.18-.1-.56-.26-1.06-.26-.76,0-1.05.45-1.05.83,0,.52.34.77,1.1,1.08.94.36,1.42.82,1.42,1.63,0,.86-.64,1.6-1.95,1.6-.53,0-1.12-.16-1.42-.35l.18-.6h.01Z"/><path d="M63.74,31.15c-.8-.01-1.69.12-1.69.9,0,.46.32.69.68.69.52,0,.85-.33.97-.67.02-.08.05-.16.05-.23v-.69ZM63.84,33.19l-.06-.5h-.02c-.23.32-.65.59-1.23.59-.81,0-1.23-.57-1.23-1.14,0-.96.86-1.5,2.41-1.49v-.08c0-.33-.09-.92-.91-.92-.38,0-.76.11-1.05.29l-.17-.48c.33-.22.81-.35,1.32-.35,1.23,0,1.52.83,1.52,1.63v1.5c0,.34.01.68.07.95h-.66Z"/><path d="M66.34,27.34h-.73v5.85h.73v-5.85Z"/><path d="M68.01,31.2c0,.87.5,1.53,1.22,1.53s1.22-.66,1.22-1.55c0-.68-.34-1.53-1.2-1.53s-1.23.79-1.23,1.55ZM71.18,31.16c0,1.47-1.02,2.12-1.99,2.12-1.08,0-1.92-.79-1.92-2.05,0-1.34.87-2.12,1.99-2.12s1.92.83,1.92,2.05Z"/><path d="M72.1,30.27c0-.41,0-.75-.03-1.08h.65l.05.66h.01c.2-.37.66-.75,1.32-.75.56,0,1.41.33,1.41,1.7v2.38h-.73v-2.3c0-.65-.24-1.18-.92-1.18-.48,0-.85.34-.98.75-.03.09-.05.22-.05.34v2.4h-.73v-2.91h0Z"/><path d="M80.54,31.15c-.8-.01-1.69.12-1.69.9,0,.46.32.69.68.69.52,0,.85-.33.97-.67.02-.08.05-.16.05-.23v-.69ZM80.65,33.19l-.06-.5h-.02c-.23.32-.65.59-1.23.59-.81,0-1.23-.57-1.23-1.14,0-.96.86-1.5,2.41-1.49v-.08c0-.33-.09-.92-.91-.92-.38,0-.76.11-1.05.29l-.17-.48c.33-.22.81-.35,1.32-.35,1.23,0,1.52.83,1.52,1.63v1.5c0,.34.01.68.07.95h-.66Z"/><path d="M82.41,30.27c0-.41,0-.75-.03-1.08h.65l.05.66h.01c.2-.37.66-.75,1.32-.75.56,0,1.41.33,1.41,1.7v2.38h-.73v-2.3c0-.65-.24-1.18-.92-1.18-.48,0-.85.34-.98.75-.03.09-.05.22-.05.34v2.4h-.73v-2.91h0Z"/><path d="M89.71,30.82c0-.09,0-.22-.03-.31-.1-.46-.5-.84-1.04-.84-.75,0-1.2.66-1.2,1.54,0,.81.4,1.47,1.18,1.47.49,0,.93-.32,1.07-.86.02-.1.03-.19.03-.32v-.69ZM90.44,27.33v4.82c0,.35,0,.76.03,1.03h-.65l-.03-.69h-.01c-.23.44-.7.78-1.36.78-.97,0-1.72-.82-1.72-2.03,0-1.33.82-2.14,1.79-2.14.61,0,1.02.29,1.2.61h.01v-2.38h.73Z"/><path d="M94.14,32.64c.14.02.35.03.6.03.74,0,1.43-.27,1.43-1.08,0-.76-.65-1.07-1.43-1.07h-.59v2.12h-.01ZM94.14,29.98h.65c.76,0,1.2-.4,1.2-.93,0-.65-.5-.91-1.23-.91-.33,0-.52.02-.64.05v1.79h.01ZM93.43,27.7c.32-.07.81-.11,1.32-.11.72,0,1.18.12,1.53.41.28.22.47.54.47.99,0,.53-.35,1.01-.94,1.22.53.15,1.15.59,1.15,1.41,0,.48-.19.84-.47,1.11-.39.35-1.01.52-1.92.52-.5,0-.87-.03-1.11-.07v-5.47h-.02Z"/><path d="M100.45,30.81c0-.46-.19-1.18-1.01-1.18-.74,0-1.06.68-1.11,1.18h2.12ZM98.31,31.33c.01.99.65,1.38,1.37,1.38.52,0,.83-.09,1.1-.2l.13.52c-.25.11-.69.25-1.33.25-1.23,0-1.96-.8-1.96-2.01s.72-2.15,1.87-2.15c1.31,0,1.65,1.15,1.65,1.88,0,.15-.01.26-.02.34h-2.8Z"/><path d="M104.15,31.15c-.8-.01-1.69.12-1.69.9,0,.46.32.69.68.69.52,0,.85-.33.97-.67.02-.08.05-.16.05-.23v-.69ZM104.26,33.19l-.06-.5h-.02c-.23.32-.65.59-1.23.59-.81,0-1.23-.57-1.23-1.14,0-.96.86-1.5,2.41-1.49v-.08c0-.33-.09-.92-.91-.92-.38,0-.76.11-1.05.29l-.16-.48c.33-.22.81-.35,1.32-.35,1.23,0,1.52.83,1.52,1.63v1.5c0,.34.01.68.07.95h-.67Z"/><path d="M109.37,32.1c0,.41,0,.77.03,1.09h-.65l-.05-.66h-.01c-.19.32-.61.74-1.32.74-.62,0-1.37-.35-1.37-1.75v-2.34h.73v2.21c0,.76.23,1.27.9,1.27.49,0,.83-.34.95-.66.04-.1.07-.24.07-.37v-2.45h.73v2.9h-.01Z"/><path d="M111.45,28.05v1.15h1.05v.56h-1.05v2.15c0,.5.14.77.55.77.19,0,.33-.02.42-.05l.03.54c-.14.06-.36.1-.65.1-.34,0-.61-.1-.78-.31-.2-.22-.28-.57-.28-1.04v-2.18h-.62v-.56h.62v-.95l.7-.19h.01Z"/><path d="M113.66,29.2l.87,2.36c.09.26.19.58.25.82h.01c.08-.24.16-.54.25-.83l.8-2.35h.77l-1.09,2.85c-.52,1.37-.87,2.08-1.37,2.49-.35.32-.72.44-.9.46l-.18-.61c.18-.06.42-.17.64-.35.19-.16.44-.43.61-.81.03-.08.06-.14.06-.17s-.01-.1-.04-.19l-1.48-3.67h.81Z"/><path d="M122.95,33.01c-.26.14-.8.26-1.46.26-1.57,0-2.75-.99-2.75-2.81s1.18-2.91,2.91-2.91c.69,0,1.14.15,1.32.25l-.17.59c-.27-.14-.66-.23-1.12-.23-1.31,0-2.17.83-2.17,2.29,0,1.36.78,2.23,2.14,2.23.43,0,.89-.09,1.17-.23l.15.57h0Z"/><path d="M125.87,31.15c-.8-.01-1.69.12-1.69.9,0,.46.32.69.68.69.52,0,.85-.33.97-.67.02-.08.05-.16.05-.23v-.69ZM125.98,33.19l-.06-.5h-.02c-.23.32-.65.59-1.23.59-.81,0-1.23-.57-1.23-1.14,0-.96.86-1.5,2.41-1.49v-.08c0-.33-.09-.92-.91-.92-.38,0-.76.11-1.04.29l-.16-.48c.33-.22.81-.35,1.32-.35,1.23,0,1.52.83,1.52,1.63v1.5c0,.34.01.68.07.95h-.67Z"/><path d="M127.74,30.44c0-.46,0-.87-.03-1.25h.64l.02.78h.03c.18-.53.62-.87,1.1-.87.08,0,.14,0,.2.02v.68c-.08-.02-.15-.02-.25-.02-.51,0-.87.39-.98.93-.01.1-.03.22-.03.34v2.13h-.72v-2.74h.01Z"/><path d="M132.9,30.81c0-.46-.19-1.18-1.01-1.18-.74,0-1.06.68-1.11,1.18h2.12ZM130.76,31.33c.01.99.65,1.38,1.37,1.38.52,0,.83-.09,1.1-.2l.13.52c-.25.11-.69.25-1.33.25-1.23,0-1.97-.8-1.97-2.01s.72-2.15,1.87-2.15c1.31,0,1.65,1.15,1.65,1.88,0,.15-.01.26-.02.34h-2.81Z"/><path d="M137,30.38c.16.05.35.06.59.06.86,0,1.4-.42,1.4-1.19s-.52-1.09-1.32-1.09c-.32,0-.56.02-.68.06v2.15h.01ZM136.28,27.7c.34-.06.79-.1,1.37-.1.7,0,1.23.17,1.56.46.31.26.49.67.49,1.17s-.15.9-.43,1.19c-.37.41-1,.61-1.7.61-.22,0-.41,0-.58-.05v2.22h-.72v-5.51Z"/><path d="M140.51,30.44c0-.46,0-.87-.03-1.25h.64l.02.78h.03c.18-.53.62-.87,1.1-.87.08,0,.14,0,.2.02v.68c-.08-.02-.15-.02-.25-.02-.51,0-.87.39-.98.93-.01.1-.03.22-.03.34v2.13h-.72v-2.74h.01Z"/><path d="M143.57,31.2c0,.87.5,1.53,1.22,1.53s1.22-.66,1.22-1.55c0-.68-.34-1.53-1.2-1.53s-1.23.79-1.23,1.55ZM146.74,31.16c0,1.47-1.02,2.12-1.99,2.12-1.08,0-1.92-.79-1.92-2.05,0-1.34.87-2.12,1.99-2.12s1.92.83,1.92,2.05Z"/><path d="M150.39,30.82c0-.09,0-.22-.03-.31-.1-.46-.5-.84-1.05-.84-.75,0-1.2.66-1.2,1.54,0,.81.4,1.47,1.18,1.47.49,0,.93-.32,1.07-.86.02-.1.03-.19.03-.32v-.69ZM151.12,27.33v4.82c0,.35,0,.76.03,1.03h-.65l-.03-.69h-.01c-.23.44-.7.78-1.36.78-.97,0-1.71-.82-1.71-2.03,0-1.33.82-2.14,1.79-2.14.61,0,1.02.29,1.2.61h.01v-2.38h.73Z"/><path d="M155.67,32.1c0,.41,0,.77.03,1.09h-.65l-.05-.66h-.01c-.19.32-.61.74-1.32.74-.62,0-1.37-.35-1.37-1.75v-2.34h.73v2.21c0,.76.23,1.27.9,1.27.49,0,.83-.34.95-.66.05-.1.07-.24.07-.37v-2.45h.73v2.9h-.01Z"/><path d="M159.73,33.04c-.19.1-.61.23-1.15.23-1.2,0-1.99-.82-1.99-2.04s.84-2.12,2.15-2.12c.43,0,.81.1,1.01.2l-.17.56c-.17-.1-.44-.19-.84-.19-.92,0-1.41.68-1.41,1.51,0,.92.59,1.5,1.39,1.5.41,0,.68-.11.9-.19l.12.54h-.01Z"/><path d="M161.55,28.05v1.15h1.04v.56h-1.04v2.15c0,.5.14.77.55.77.19,0,.33-.02.42-.05l.03.54c-.14.06-.36.1-.65.1-.34,0-.61-.1-.78-.31-.2-.22-.28-.57-.28-1.04v-2.18h-.62v-.56h.62v-.95l.7-.19h.01Z"/></g></svg>