<?xml version="1.0" encoding="UTF-8"?>
<svg id="Layer_1" xmlns="http://www.w3.org/2000/svg" viewBox="0 0 1000 1000">
  <defs>
    <style>
      .cls-1 {
        fill: #fff;
      }

      .cls-2 {
        fill: #eb2127;
        stroke: #010101;
        stroke-miterlimit: 10;
        stroke-width: .25px;
      }
    </style>
  </defs>
  <path class="cls-2" d="M736.78,691.45v-114.7l-229.26,132.72c-2.32,1.34-4.92,2.02-7.52,2.02s-5.19-.67-7.52-2.02l-134.2-77.69v114.85l141.72,82.26,236.78-137.44Z"/>
  <path class="cls-1" d="M759.28,537.74l-41.64-24.04-29.92,17.37,34.08,19.68-221.8,128.4-221.81-128.4,34.08-19.68-29.92-17.37-41.64,24.04c-4.64,2.68-7.5,7.63-7.5,12.99v149.36c0,5.35,2.85,10.29,7.47,12.97l22.53,13.08v95.31l42.3-32.42,52.76,81.99v-89.7l134.19,77.89c2.33,1.35,4.93,2.03,7.53,2.03s5.2-.67,7.53-2.03l251.78-146.15c4.62-2.69,7.47-7.63,7.47-12.97v-149.36c0-5.36-2.86-10.31-7.5-12.99ZM500,828.89l-141.72-82.26v-114.85l134.2,77.69c2.32,1.34,4.92,2.02,7.52,2.02s5.19-.67,7.52-2.02l229.26-132.72v114.7l-236.78,137.44Z"/>
  <path class="cls-1" d="M759.28,276.35l-251.78-145.36c-4.64-2.69-10.36-2.69-15,0l-251.78,145.36c-4.64,2.68-7.5,7.63-7.5,12.99v149.36c0,5.35,2.85,10.29,7.47,12.97l251.78,146.15c2.33,1.35,4.93,2.03,7.53,2.03s5.2-.67,7.53-2.03l251.78-146.15c4.62-2.69,7.47-7.63,7.47-12.97v-149.36c0-5.36-2.86-10.31-7.5-12.99ZM500,161.3l221.8,128.06-221.8,128.4-221.81-128.4,221.81-128.06ZM263.22,315.36l221.78,128.39v115.05l-221.78-128.73v-114.7ZM515,558.79v-115.05l221.77-128.39v114.7l-221.77,128.73Z"/>
</svg>