<?xml version="1.0" encoding="UTF-8"?><svg id="a" xmlns="http://www.w3.org/2000/svg" viewBox="0 0 80.32 40"><defs><style>.b{fill:#ba2029;}</style></defs><path class="b" d="M14.52,20.64h.87l-2.3,5.68h-1.09s2.52-5.68,2.52-5.68ZM25.14,14.35l5.67,11.97h-2.84l-5.06-10.57-.2.12s-4.02,2.81-4.88,3.31c-2.05,1.2-3.16,1.13-3.34,1.14-.49,0-1.09-.36-1.25-.86-.26-.81.45-1.27.62-1.4.47-.29,1.14-.26,1.14-.26,0,0-1.62.6-1.41,1.37.16.58.89.61,1.29.58l6.11-14.16,3.74,7.91s.04-.03.06-.04c6.08-4.31,10.69-6.01,10.69-6.01,0,0,2.01-.8,4.42-1.23,2.42-.43,4-.12,4-.12l-2.76.51-2.68.74-2.72,1.04-3.5,1.73-4.54,2.59-2.57,1.62ZM15.5,19.64l-.29.08c.06,0,.15-.03.29-.08ZM22.57,15.04l-2.53-5.28-4.15,9.71c.06-.03.12-.06.18-.09.83-.45,2.2-1.32,6.5-4.34ZM44.81,6.53l-3.38.37s3.43.38,5.46,2.92c1.19,1.55,2,3.35,2.23,6.57.25,3.17-.91,6.27-3.78,8.3,0,0-2.93,1.72-5.66.67-2.96-1.15-2.98-1.51-4.36-2.91-1.89-1.91-2.96-7.19-2.27-9.67.44-1.56,1.61-3.48,1.61-3.48l-2.29,1.09s-2.36,2.51-1.81,7.31c.6,5.12,4.42,7.15,5.31,7.59.89.45,2.7,1.19,5.64,1.04,2.31-.12,5.64-1.29,7.96-4.24,1.89-2.41,2.13-3.96,2.21-6.58-.14-6.82-6.86-8.98-6.86-8.98ZM66.91,6.2l-5.91,9.08-6.36-9.07h-3.39s7.45,10.71,7.45,10.71v9.52s2.83,0,2.83,0v-10.17l6.78-10.07h-1.41ZM28.8,33.2l.39,1.14h.5l-1.23-3.61h-.56l-1.23,3.61h.48l.38-1.14h1.28ZM27.62,32.84l.35-1.05c.07-.22.13-.44.18-.65h.01c.05.21.11.42.19.66l.35,1.04h-1.09ZM31.01,34.34v-1.54l1.21-2.07h-.53l-.52,1c-.14.27-.26.51-.36.75h-.01c-.11-.25-.22-.47-.36-.75l-.51-1h-.53l1.14,2.08v1.53h.47ZM32.76,30.71c-.06.39-.2.94-.32,1.26l.3-.04c.15-.25.38-.82.5-1.27l-.49.05ZM33.5,34.16c.19.13.57.23.92.23.85,0,1.27-.48,1.27-1.04s-.31-.83-.92-1.06c-.5-.19-.72-.36-.72-.7,0-.25.19-.54.68-.54.33,0,.57.11.69.17l.13-.38c-.16-.09-.43-.18-.8-.18-.7,0-1.17.42-1.17.98,0,.51.36.81.95,1.02.49.19.68.38.68.72,0,.36-.28.62-.76.62-.32,0-.63-.11-.84-.24l-.12.39ZM38.81,30.66c-.96,0-1.68.75-1.68,1.9s.67,1.83,1.62,1.83,1.68-.66,1.68-1.9c0-1.07-.64-1.83-1.62-1.83ZM38.79,31.05c.78,0,1.15.75,1.15,1.47,0,.82-.42,1.5-1.16,1.5s-1.15-.69-1.15-1.46.39-1.51,1.16-1.51ZM41.43,34.34v-1.54c0-.6-.01-1.03-.04-1.49h.02c.18.39.42.8.68,1.2l1.15,1.83h.47v-3.61h-.44v1.51c0,.56.01,1,.05,1.48h-.01c-.17-.36-.38-.75-.65-1.17l-1.16-1.83h-.51v3.61h.44ZM46.57,34.34v-1.54l1.21-2.07h-.53l-.52,1c-.14.27-.26.51-.36.75h-.01c-.11-.25-.22-.47-.36-.75l-.51-1h-.53l1.14,2.08v1.53h.47ZM49.41,30.66c-.97,0-1.68.75-1.68,1.9s.67,1.83,1.62,1.83,1.68-.66,1.68-1.9c0-1.07-.64-1.83-1.62-1.83ZM49.39,31.05c.78,0,1.15.75,1.15,1.47,0,.82-.42,1.5-1.16,1.5s-1.15-.69-1.15-1.46.39-1.51,1.16-1.51ZM51.59,30.72v2.13c0,1.12.56,1.54,1.3,1.54.78,0,1.37-.46,1.37-1.56v-2.11h-.47v2.14c0,.8-.34,1.15-.88,1.15-.48,0-.84-.34-.84-1.15v-2.14h-.47Z"/></svg>