<?xml version="1.0" encoding="UTF-8"?><svg id="a" xmlns="http://www.w3.org/2000/svg" viewBox="0 0 175.37 40"><defs><style>.b{fill:#a82729;}</style></defs><path class="b" d="M156.67,24.64c.55-.65,1.13-1.14,1.76-1.47.62-.34,1.24-.5,1.87-.5,1.04,0,1.8.34,2.28,1.02.47.69.71,1.8.71,3.33v3.66c0,.74.01,1.39.03,1.95.02.57.04,1.14.07,1.72h-2.33c.03-.59.06-1.18.07-1.74.02-.57.02-1.21.02-1.93v-5.28c0-.61-.1-1.08-.31-1.39-.2-.31-.5-.46-.91-.46-.51,0-1.05.18-1.62.54-.56.36-1.1.86-1.62,1.51v6.23c0,.59,0,1.08.02,1.44.01.37.03.73.05,1.1h-2.3c.03-.59.06-1.18.07-1.74.02-.57.02-1.21.02-1.93v-3.96c0-.73,0-1.37-.02-1.95-.02-.57-.04-1.16-.07-1.75l2.3.02c-.02.09-.04.2-.05.33-.01.13-.02.32-.02.59v.68ZM147.03,22.52c1.37,0,2.53.59,3.47,1.78.95,1.19,1.42,2.65,1.42,4.39s-.48,3.16-1.43,4.36c-.96,1.19-2.11,1.8-3.46,1.8s-2.49-.61-3.47-1.84c-.97-1.23-1.46-2.67-1.46-4.32s.48-3.14,1.44-4.35c.97-1.21,2.13-1.82,3.49-1.82ZM144.75,32.3c0,.53.21.95.62,1.27.41.32.97.48,1.66.48,1.14,0,2.12-.53,2.94-1.58.82-1.05,1.23-2.31,1.23-3.78s-.41-2.76-1.22-3.8c-.82-1.03-1.8-1.55-2.96-1.55-.74,0-1.3.17-1.69.51-.39.34-.59.84-.59,1.5v6.94ZM137.4,26.71c0-.73,0-1.37-.02-1.95-.02-.57-.04-1.16-.07-1.75h2.3c-.02.36-.04.73-.05,1.1-.01.36-.02.84-.02,1.44v6.27c0,.59,0,1.08.02,1.44.01.37.03.73.05,1.1h-2.3c.03-.59.06-1.18.07-1.74.02-.57.02-1.21.02-1.93v-3.96ZM137.4,18.32c0-.41.1-.76.31-1.04.2-.28.45-.42.74-.42s.56.14.77.42c.21.28.32.63.32,1.04s-.11.75-.32,1.03c-.21.28-.47.42-.77.42s-.56-.13-.75-.4c-.2-.27-.3-.62-.3-1.05ZM131.66,20.48h-.32c-.09,0-.2,0-.32.02-.12.01-.19.02-.2.02-.07,0-.17,0-.28.02-.12.01-.2.02-.25.02-.19,0-.31-.04-.39-.12-.08-.07-.11-.19-.11-.35s.04-.29.12-.36c.08-.08.22-.12.41-.12.02,0,.15.01.37.04.23.03.44.04.64.04h.32v-7.41c0-.28.02-.48.07-.57.05-.1.12-.18.24-.26l1.15-.83c.08-.05.16-.09.24-.13.08-.04.13-.06.17-.06.09,0,.17.05.22.15.06.11.08.25.08.45,0,.04,0,.16-.02.36-.05,1.31-.08,2.62-.08,3.95v4.35h.35c.22,0,.46-.01.72-.04.25-.03.39-.04.42-.04.12,0,.21.04.28.13.07.09.1.2.1.36s-.04.28-.11.35c-.08.08-.2.12-.38.12-.02,0-.15-.01-.37-.04s-.44-.04-.64-.04h-.35v10.19c0,.74.01,1.39.03,1.95.02.57.04,1.14.07,1.72h-2.24c.02-.36.04-.73.05-1.1.01-.38.02-.86.02-1.47v-11.3ZM124.08,22.52c1.37,0,2.53.59,3.47,1.78.95,1.19,1.42,2.65,1.42,4.39s-.48,3.16-1.43,4.36c-.96,1.19-2.11,1.8-3.46,1.8s-2.49-.61-3.47-1.84c-.97-1.23-1.46-2.67-1.46-4.32s.48-3.14,1.44-4.35c.97-1.21,2.13-1.82,3.49-1.82ZM121.8,32.3c0,.53.21.95.62,1.27.41.32.97.48,1.66.48,1.14,0,2.12-.53,2.94-1.58.82-1.05,1.23-2.31,1.23-3.78s-.41-2.76-1.22-3.8c-.82-1.03-1.8-1.55-2.96-1.55-.74,0-1.3.17-1.69.51-.39.34-.59.84-.59,1.5v6.94ZM95.42,32.61c0,.27.01.57.03.89.02.32.03.5.03.54,0,.22-.03.38-.09.48-.06.1-.16.15-.31.15s-.24-.05-.31-.15c-.07-.11-.1-.28-.1-.55,0-.05,0-.22.02-.52.01-.3.02-.57.02-.83V7.18c0-.26,0-.54-.02-.85-.01-.31-.02-.5-.02-.54,0-.24.03-.42.09-.51.06-.1.17-.15.32-.15.08,0,.17.05.25.15.09.11.17.26.25.45l9.96,24.16,10.06-24.34c.06-.13.12-.23.2-.3.07-.08.13-.12.18-.12.14,0,.24.05.32.14.08.09.12.21.12.36,0,.18-.01.44-.03.79-.02.34-.03.59-.03.77l-.1,19.85c0,1.04.01,2.17.04,3.36.03,1.2.06,2.52.11,3.97h-3.38c.05-1.25.09-2.48.11-3.7.03-1.21.04-2.42.04-3.63l.06-14.03-8.73,21.09c-.04.09-.09.16-.14.2-.05.05-.09.07-.14.07s-.08-.02-.12-.07c-.04-.05-.09-.12-.14-.22l-8.57-20.87v19.42ZM75.6,24.64c.55-.65,1.13-1.14,1.76-1.47.62-.34,1.24-.5,1.87-.5,1.04,0,1.8.34,2.28,1.02.47.69.71,1.8.71,3.33v3.66c0,.74.01,1.39.03,1.95.02.57.04,1.14.07,1.72h-2.33c.03-.59.06-1.18.07-1.74.02-.57.02-1.21.02-1.93v-5.28c0-.61-.1-1.08-.31-1.39-.2-.31-.5-.46-.91-.46-.51,0-1.05.18-1.62.54-.56.36-1.1.86-1.62,1.51v6.23c0,.59,0,1.08.02,1.44.01.37.03.73.05,1.1h-2.3c.03-.59.06-1.18.07-1.74.02-.57.02-1.21.02-1.93v-3.96c0-.73,0-1.37-.02-1.95-.02-.57-.04-1.16-.07-1.75l2.3.02c-.02.09-.04.2-.05.33-.01.13-.02.32-.02.59v.68ZM69.45,27.03c0,1.33.01,2.59.03,3.81.02,1.21.05,2.38.1,3.52h-3.45c.04-1.38.07-2.67.1-3.88.03-1.21.04-2.36.04-3.45v-14.3c0-1.1-.01-2.24-.04-3.45-.03-1.2-.06-2.5-.1-3.88h3.45c-.05,1.14-.08,2.3-.1,3.51-.02,1.2-.03,2.48-.03,3.82v14.3ZM48.91,29.56v2.69c0,.63.19,1.09.56,1.37.37.28.96.42,1.76.42.75,0,1.51-.36,2.29-1.08.22-.2.36-.31.43-.31s.12.05.2.15c.07.11.11.22.11.33,0,.28-.33.65-.98,1.08-.65.44-1.37.66-2.16.66-1.33,0-2.47-.57-3.42-1.73-.95-1.16-1.42-2.58-1.42-4.27,0-1.8.52-3.3,1.55-4.53,1.03-1.22,2.3-1.84,3.81-1.84.83,0,1.53.32,2.1.96.58.65.86,1.45.86,2.4,0,1.12-.38,2.08-1.16,2.88-.77.8-1.71,1.2-2.83,1.2-.31,0-.61-.03-.89-.11-.28-.07-.55-.17-.8-.3ZM48.91,25.2v3.02c0,.34.13.58.41.73.26.15.68.22,1.23.22.93,0,1.72-.32,2.38-.98.65-.65.98-1.42.98-2.31,0-.73-.22-1.34-.67-1.82-.45-.48-1.01-.71-1.7-.71-.77,0-1.4.17-1.89.5-.49.34-.73.79-.73,1.35ZM41.65,31.59l2.65-7.3c.06-.17.14-.38.22-.63.22-.66.42-.99.58-.99.1,0,.19.05.26.13.08.09.11.17.11.26,0,.13-.08.37-.23.73-.16.35-.28.64-.36.86l-3.52,9.64c-.05.13-.11.23-.2.3-.08.08-.16.12-.24.12s-.16-.03-.22-.1c-.07-.06-.13-.17-.19-.32l-3.9-9.48c-.1-.22-.22-.49-.37-.8-.15-.3-.31-.63-.49-.98h2.71c.07.31.15.59.22.86.08.26.15.48.22.65l2.74,7.06ZM30.05,22.52c1.37,0,2.53.59,3.47,1.78.95,1.19,1.42,2.65,1.42,4.39s-.48,3.16-1.43,4.36c-.96,1.19-2.11,1.8-3.46,1.8s-2.49-.61-3.47-1.84c-.97-1.23-1.46-2.67-1.46-4.32s.48-3.14,1.44-4.35c.97-1.21,2.13-1.82,3.49-1.82ZM27.77,32.3c0,.53.21.95.62,1.27.41.32.97.48,1.66.48,1.14,0,2.12-.53,2.94-1.58.82-1.05,1.23-2.31,1.23-3.78s-.41-2.76-1.22-3.8c-.82-1.03-1.8-1.55-2.96-1.55-.74,0-1.3.17-1.69.51-.39.34-.59.84-.59,1.5v6.94ZM15.48,5.39c-.05,1.45-.09,2.77-.11,3.97-.03,1.19-.04,2.32-.04,3.36v20.8h6.99c.32,0,.68-.01,1.07-.04.39-.03.63-.04.71-.04.19,0,.33.04.41.12.08.07.11.21.11.4,0,.17-.04.29-.11.36-.07.07-.21.11-.41.11-.08,0-.32-.01-.71-.04-.39-.03-.75-.04-1.07-.04h-10.32c.05-1.38.09-2.67.11-3.88.03-1.2.04-2.36.04-3.45v-14.29c0-1.1-.01-2.24-.04-3.45-.03-1.2-.06-2.5-.11-3.88h3.48Z"/></svg>