<?xml version="1.0" encoding="UTF-8"?><svg id="a" xmlns="http://www.w3.org/2000/svg" xmlns:xlink="http://www.w3.org/1999/xlink" viewBox="0 0 150.13 40"><defs><style>.c{fill:none;}.d{clip-path:url(#b);}</style><clipPath id="b"><rect class="c" x="12" y="4.88" width="126.13" height="30.24"/></clipPath></defs><g class="d"><path d="M44.19,32.13c-1.14.57-2.07,1.33-3.26,1.48-.64.08-1.35.2-1.81-.42-.43-.58-.13-1.16.17-1.68,1.06-1.87,2.53-3.41,4.12-4.84.28-.25.68-.5,1-.2.44.4.02.76-.24,1.06-1.03,1.19-2.09,2.36-3.1,3.57-.31.37-.74.88-.26,1.34.41.39.89-.04,1.27-.25,2.12-1.15,3.8-2.82,5.48-4.49.2-.2.35-.44.55-.62.31-.28.69-.65,1.1-.31.44.36.07.77-.2,1.07-.59.66-1.23,1.27-1.81,1.93-.43.48-.83.99-1.19,1.53-.23.34-.48.77-.15,1.15.36.41.88.3,1.31.12,1.13-.49,2.07-1.25,2.83-2.21.89-1.12,1.77-2.26,2.67-3.38.4-.51.87-.91,1.53-.4.46.35.89.08,1.34.04.56-.06,1.32-.29,1.62.14.81,1.17,1.58.45,2.4.15.31-.11.61-.24.93-.33.85-.24,1.69-.31,2.31.46.63.79.13,1.52-.32,2.14-.64.9-1.41,1.71-2.09,2.59-.22.28-.5.64-.17.99.31.33.71.12,1.04-.05.83-.44,1.59-.96,2.17-1.71,1.01-1.32,2.04-2.63,3.08-3.93.44-.55.91-1.19,1.66-.36.33.36.6.05.89,0,.93-.2,1.87-.43,2.5.59.31.5.66.13.97,0,.83-.32,1.62-.74,2.52-.84.69-.07,1.33.08,1.73.69.39.58.16,1.13-.15,1.68-.61,1.11-1.63,1.89-2.34,2.92-.21.29-.57.63-.3.98.32.42.79.17,1.15-.02,1.07-.58,2.06-1.2,2.58-2.4.75-1.71,2.03-2.99,3.83-3.65,1.01-.37,2.21-.72,2.95.38.76,1.14,0,2.1-.84,2.9-.93.88-2.07,1.41-3.27,1.84-.29.1-.74.19-.7.56.05.45.55.49.89.5,2.04.02,3.75-.72,5.05-2.27.89-1.06,1.7-2.2,2.61-3.25.45-.52.99-1.27,1.59,0,.26.56.67-.12,1.03-.17.47-.07.93-.76,1.37-.23.4.47-.29.77-.5,1.14-.22.4-.64.78-.31,1.25.41.58.93.18,1.38,0,.53-.21,1.06-.4,1.63-.34,1.12.11,1.6,1.05,1.04,2-.22.37-.51.76-.98.63-.62-.17-.36-.62-.19-1,.1-.22.17-.45-.04-.63-.25-.21-.53-.14-.79-.02-.69.34-1.06.9-1.06,1.65,0,.64.24,1.18.87,1.45.74.31,1.39.08,1.93-.44.65-.63.93-1.47,1.21-2.3.41-1.21.69-2.49,1.65-3.46,1.02-1.02,2.34-1.35,3.44-.82.95.46,1.17,1.26.53,2.01-.31.36-.69.7-1.2.5-.65-.25-.24-.65-.08-1.01.13-.28.14-.55-.19-.69-.38-.16-.76-.08-1.05.18-.69.6-1,1.42-1.27,2.26-.38,1.18-.68,2.39-1.53,3.37-1.04,1.19-2.32,1.7-3.88,1.35-1.13-.25-1.86-.91-1.79-2.12.04-.71-.04-1.27-.83-1.52-.16-.05-.36-.22-.39-.37-.46-2.21-1.45-.6-1.94-.14-1.04.98-1.88,2.16-2.81,3.25-.43.5-.84,1.01-1.64.49-.48-.31-1,.05-1.49.15-1.53.32-3,.37-4.2-.82-.44-.44-.82-.29-1.24-.02-.71.45-1.46.83-2.28,1.05-.64.17-1.34.31-1.79-.34-.42-.61-.23-1.27.16-1.81.54-.75,1.2-1.41,1.73-2.16.37-.52,1.24-1.07.67-1.73-.5-.59-1.32-.08-1.96.16-1.38.53-2.57,1.3-3.38,2.57-.47.74-1.02,1.43-1.58,2.11-.33.4-.65,1.13-1.3.63-.57-.44.01-.9.3-1.29.78-1.03,1.59-2.05,2.37-3.08.26-.35.74-.74.33-1.2-.33-.38-.8-.05-1.17.1-1.06.41-2,.99-2.71,1.9-.54.69-1.28,1.3-1.61,2.08-.94,2.19-2.99,1.94-4.77,2.19-1.04.14-1.51-.77-1.06-1.81.49-1.12,1.4-1.94,2.16-2.87.33-.41.9-.86.44-1.44-.38-.47-.98-.22-1.45-.05-1.51.55-2.92,1.23-3.81,2.66-.56.9-1.24,1.73-1.9,2.56-.23.3-.6.53-.98.26-.39-.28-.22-.68,0-.98.86-1.14,1.77-2.26,2.63-3.41.25-.34.8-.71.36-1.18-.39-.42-.88-.05-1.3.12-1.19.49-2.21,1.18-2.96,2.24-.7.98-1.47,1.91-2.21,2.85-.47.6-.93,1.21-1.82.51-.37-.29-.81.04-1.21.13-1.54.35-1.88.15-2.27-1.51h0ZM82.23,27.52c-1.09.01-3.02,1.96-3.04,3.06,0,.41.14.65.58.48,1.21-.49,2.41-1.01,3.22-2.09.23-.31.35-.66.19-1.03-.17-.41-.57-.42-.95-.42Z"/><path d="M21.8,34.05c6.41.05,11.35-3.03,15.76-7.19,3.26-3.07,5.82-6.71,8.56-10.21,2.75-3.51,5.7-6.84,9.46-9.37,2.94-1.97,6.19-2.81,9.74-2.23,1.99.33,2.85,1.66,2.46,3.61-.75,3.76-6.45,8.23-10.37,8.12-1.49-.04-2.14-.73-2.04-2.17.12-1.82,2.11-3.97,3.92-4.21.62-.08,1.26-.06,1.63.54.29.47,0,.89-.33,1.23-.38.39-.73.77-1.11-.06-.35-.76-.97-.61-1.5-.17-.32.26-.62.57-.84.92-.43.68-.73,1.45-.27,2.2.43.7,1.22.58,1.92.54,2.66-.17,7.08-4.04,7.53-6.56.3-1.7-.59-2.74-2.63-2.96-3.05-.33-5.74.56-8.12,2.41-2.89,2.25-5.19,5.03-7.43,7.87-3.5,4.43-6.76,9.04-11.19,12.69-5.43,4.48-11.59,6.63-18.72,5.94-3.09-.3-6.02-2.79-6.2-5.31-.27-3.82,1.66-6.47,5.35-7.25,1.93-.41,3.86-.5,5.4,1.02.94.93,1.38,2.08,1.02,3.4-.29,1.08-1.02,1.73-2.13,1.96-.37.08-.74.14-1.1-.04-.26-.14-.45-.34-.43-.65.01-.34.26-.5.56-.49.95.03,1.89-.06,1.99-1.22.1-1.21-.55-2.13-1.61-2.7-1.92-1.02-4.93-.31-6.38,1.45-1.57,1.91-1.58,4.56-.04,6.34,1.57,1.82,3.63,2.55,7.14,2.53h0Z"/><path d="M131.87,25.4c-.57-.4-1.05-.24-1.5-.3-.35-.05-.86.07-.87-.45,0-.38.47-.5.75-.45,2.65.54,3.85-1.29,5.18-2.96.4-.5.86-.97,1.34-1.41.34-.3.8-.66,1.22-.17.35.41-.03.77-.31,1.08-.94,1.02-1.89,2.03-2.94,3.16.93.46,1.79.16,2.57.31.28.05.62.1.66.41.06.42-.32.52-.65.56-.37.05-.76.13-1.12.07-2.02-.34-3.4.49-4.43,2.14-.71,1.13-1.58,2.16-2.32,3.28-.29.43-.7.98-.19,1.5.45.47,1.06.26,1.59.09.81-.26,1.53-.7,2.16-1.26.2-.18.45-.42.72-.16.26.25.04.5-.12.73-1.22,1.77-4.03,2.4-6,1.31-.39-.21-.61,0-.9.11-.61.23-1.21.48-1.83.68-.6.19-1.23.25-1.67-.32-.48-.62-.24-1.25.15-1.79.66-.89,1.38-1.74,2.05-2.62.26-.35.76-.72.41-1.2-.32-.43-.88-.29-1.31-.16-1.41.4-2.74.94-3.71,2.1-.41.5-.98.91-1.28,1.46-1.4,2.6-3.96,2.54-6.4,2.74-.67.06-1.43,0-1.86-.47-.85-.93-1.59-.69-2.56-.22-1.62.78-3.38,1.11-5.19.92-2.18-.23-3-1.61-2.16-3.6,1.02-2.41,4.56-4.46,7.21-4.18.78.08,1.51.3,1.79,1.11.3.87.03,1.64-.7,2.21-.83.65-1.71,1.17-2.83.79-.41-.14-.76-.39-.8-.87-.03-.4.18-.71.5-.94.35-.24.73-.32.87.2.1.34-.02.82.57.72.51-.08.81-.45.9-.94.1-.53.03-1.01-.51-1.31-.49-.26-1-.22-1.5-.06-1.86.58-3.15,1.82-3.9,3.54-.54,1.23,0,2.06,1.32,2.33,2.46.49,5.26-.93,6.38-3.15.87-1.72,2.22-2.97,4.14-3.49.91-.25,1.96-.41,2.52.58.54.97.11,1.89-.62,2.63-.97.98-2.2,1.55-3.47,2.04-.32.12-.87.14-.81.6.06.44.58.38.94.4,2.06.11,3.76-.59,5.07-2.17,1.13-1.35,2.24-2.71,3.42-4.01.42-.46.98-1.24,1.6-.09.17.31.5.1.76.03.54-.14,1.08-.34,1.63-.4,1.51-.16,2.3.93,1.67,2.28-.53,1.15-1.61,1.91-2.32,2.93-.25.36-.73.78-.35,1.2.36.39.89.08,1.29-.15.44-.25.98-.48,1.25-.87,1.45-2.06,2.91-4.12,4.51-6.09h0ZM116.04,28.34c.05-.63-.34-.81-.87-.82-1.05-.02-1.74.6-2.31,1.35-.47.62-1.27,1.51-.84,2.02.55.65,1.39-.26,2.05-.57.87-.41,1.74-.94,1.98-1.99h0Z"/></g></svg>