<?xml version="1.0" encoding="UTF-8"?><svg id="a" xmlns="http://www.w3.org/2000/svg" xmlns:xlink="http://www.w3.org/1999/xlink" viewBox="0 0 55.62 40"><defs><style>.c{fill:none;}.d{clip-path:url(#b);}.e{fill:#cf5228;}</style><clipPath id="b"><rect class="c" x="12" y="4.02" width="31.62" height="31.96"/></clipPath></defs><g class="d"><path class="e" d="M27.87,21.22c.99-1.31,2.18-2.43,2.67-4.03.65.67,1.51.55,2.33.76-.24-.82-.09-1.68-.75-2.29,1.62-.48,2.7-1.72,4.02-2.68-1.31-.99-2.43-2.17-4.05-2.66.71-.63.54-1.51.74-2.29-.78.2-1.64.04-2.25.71-.49-1.63-1.72-2.7-2.69-4-.57.72-1.12,1.39-1.65,2.08-.44.58-.81,1.21-1.01,1.96-.63-.71-1.51-.54-2.33-.79.22.83.08,1.69.75,2.31-1.62.48-2.7,1.72-4.02,2.68,1.31.99,2.44,2.17,4.04,2.66-.69.63-.55,1.49-.77,2.32.82-.22,1.68-.08,2.3-.75.48,1.63,1.73,2.69,2.68,4.01M22.83,10.1c-.16-.89-.31-1.73-.48-2.64.92.17,1.78.33,2.67.49.66-1.44,1.84-2.59,2.85-3.93.99,1.34,2.19,2.47,2.88,3.91.87-.16,1.72-.31,2.64-.48-.17.92-.33,1.78-.48,2.6.65.44,1.33.88,1.98,1.37.65.48,1.27,1.01,1.93,1.55-1.33.99-2.47,2.18-3.92,2.87.16.87.32,1.72.49,2.64-.92-.17-1.77-.32-2.61-.48-.44.64-.88,1.32-1.37,1.97-.49.65-1.01,1.26-1.56,1.93-.98-1.32-2.18-2.45-2.88-3.91-.86.16-1.72.31-2.63.49.17-.92.33-1.78.49-2.67-1.44-.67-2.59-1.84-3.93-2.84,1.34-.99,2.47-2.19,3.91-2.88M33.63,26.62c-.63.75-1.25,1.49-1.9,2.26-.64-.76-1.27-1.52-1.89-2.26-.02,0-.04.01-.06.02v3.84h-.78c0-.08-.01-.17-.01-.25v-4.33c0-.21-.05-.37-.19-.52-.15-.16-.28-.34-.46-.55.36,0,.66-.01.96,0,.08,0,.17.1.23.17.65.78,1.3,1.56,1.95,2.34.07.09.15.17.24.28.31-.36.6-.7.89-1.05.45-.53.89-1.07,1.35-1.59.07-.08.22-.14.33-.16.25-.02.51,0,.83,0-.18.22-.31.39-.46.55-.14.16-.2.33-.2.55.01,1.43,0,2.85.01,4.29,0,.23-.05.31-.3.3-.49-.02-.49,0-.49-.48v-3.36s-.05-.02-.07-.02M16.56,28.2c-.2,0-.36-.01-.52,0-.17.02-.25-.06-.31-.21-.07-.18-.15-.36-.24-.56.1-.01.18-.02.25-.02h1.36c.17,0,.25.04.25.23-.01.6,0,1.2-.01,1.8,0,.1-.06.23-.14.3-.93.85-2.01,1.09-3.19.7-1.18-.39-1.83-1.26-2.01-2.47-.23-1.51.86-2.97,2.41-3.26.93-.17,1.78.02,2.54.6.06.05.12.1.18.15.02.02.04.05.07.08-.16.19-.32.38-.49.58-.12-.09-.22-.18-.34-.26-1.27-.87-3.23-.33-3.57,1.35-.25,1.26.7,2.49,2.04,2.59.57.04,1.09-.09,1.54-.42.08-.06.15-.19.16-.3.02-.28,0-.56,0-.88M21.78,27.37c.73-.31,1.46-.16,2.17-.19.05,0,.13.08.14.13.01.21,0,.42,0,.66-.3,0-.59-.01-.87,0-.37.02-.75.05-1.12.1-.25.03-.37.17-.35.45.02.3.01.61,0,.91,0,.19.06.26.25.25,1,0,2,0,3,0,.22,0,.28.07.28.28,0,.54,0,.54-.53.54h-3.76v-5.66h3.94v.79h-2.91c-.19,0-.26.05-.25.25.01.42,0,.82,0,1.24,0,.07.01.15.02.25M41.98,28.83c-.42-.82-.83-1.6-1.27-2.44-.43.93-.84,1.81-1.24,2.68.81-.33,1.64-.19,2.5-.24ZM43.62,30.49c-.29,0-.54.01-.77,0-.07,0-.15-.07-.18-.14-.1-.18-.16-.37-.26-.55-.03-.06-.11-.13-.16-.13-.85.02-1.71-.1-2.54.1-.39.09-.75.22-.93.63-.02.05-.09.1-.14.1-.25.01-.49,0-.78,0,.2-.41.37-.78.55-1.15.6-1.24,1.2-2.48,1.81-3.72.08-.16.08-.28,0-.43-.07-.14-.13-.28-.21-.46.28,0,.54-.01.79,0,.07,0,.14.11.17.19.64,1.35,1.28,2.7,1.92,4.06.24.49.46.98.72,1.52M27.45,34.92c.27-.01.54-.02.8-.04.18-.02.28-.14.27-.32-.01-.18-.13-.25-.3-.27h-.25c-.4,0-.57.2-.52.6,0,0,0,.01.02.03M27.42,35.95c-.1,0-.17,0-.26-.01v-1.88c.39,0,.75-.02,1.12,0,.28.02.43.17.47.41.05.3-.04.48-.3.63-.04.02-.07.04-.11.07.1.22.15.46.42.55.05.02.07.12.12.2-.27.06-.43,0-.55-.19-.06-.09-.1-.19-.15-.29-.14-.31-.28-.37-.6-.25-.07.02-.14.12-.14.19-.02.17,0,.36,0,.57M22.38,34.29s-.08.1-.1.13c-.22-.07-.41-.14-.6-.16-.1-.01-.22.02-.3.08-.07.06-.14.18-.13.27,0,.07.12.15.2.17.14.04.29.04.44.05.38.03.56.17.59.45.04.34-.13.56-.48.67-.44.13-.86.01-1.11-.33.02-.02.04-.05.05-.07.03-.02.06-.05.1-.08.24.23.51.36.85.25.18-.05.35-.14.34-.36-.01-.23-.2-.28-.39-.29-.13-.01-.27,0-.4-.01-.28-.02-.46-.17-.49-.39-.04-.22.08-.46.31-.58.34-.19.83-.1,1.13.2ZM34.66,34.29c-.05.05-.09.1-.14.16-.04-.02-.07-.04-.1-.05-.19-.05-.38-.13-.58-.14-.18,0-.34.11-.34.32s.18.21.33.23c.17.03.34.02.51.05.2.03.36.13.41.34.05.22.01.42-.16.58-.36.33-1.16.29-1.44-.19.04-.04.08-.08.13-.14.28.25.55.38.89.26.18-.06.34-.14.32-.37-.02-.23-.2-.25-.37-.28-.17-.02-.34,0-.51-.04-.19-.03-.34-.13-.37-.34-.04-.2.02-.39.18-.52.33-.28.89-.23,1.25.12M31.37,34.04c.4,0,.81,0,1.21.01.05,0,.09.13.17.25h-.83c-.21,0-.31.11-.31.32v.22c.23,0,.43,0,.63,0,.05,0,.1.08.14.13-.05.04-.09.1-.14.11-.1.02-.2,0-.3.01-.31.01-.33.04-.33.34v.26h1.18c0,.09,0,.15.01.23h-1.42v-1.88h0ZM26.24,35.39c-.16-.3-.29-.55-.45-.86-.16.34-.28.62-.42.91.29-.02.55-.04.86-.06M24.87,35.89c.23-.47.46-.93.68-1.41.06-.14.09-.29.14-.49.06.04.19.07.22.14.28.57.55,1.14.81,1.71,0,.02,0,.05,0,.07-.14.05-.26.04-.32-.13-.02-.05-.08-.12-.12-.11-.31.01-.62.03-.93.06-.06,0-.11.07-.17.11-.08.05-.17.08-.26.13-.02-.02-.04-.05-.05-.07M24.55,34.29s-.08.1-.12.15c-.58-.28-.98-.24-1.23.11-.21.3-.19.69.06.95.31.33.7.32,1.21-.02.04.05.08.1.12.16-.3.42-.99.48-1.4.13-.45-.37-.5-1.05-.11-1.46.4-.42,1.09-.44,1.47-.02ZM29.05,34.07c.2-.08.28,0,.34.16.18.46.37.92.59,1.44.11-.26.2-.46.28-.66.11-.26.22-.53.33-.8.05-.16.14-.21.34-.14-.08.21-.17.41-.26.61-.16.37-.31.75-.48,1.11-.03.06-.13.13-.2.13-.07,0-.19-.05-.22-.11-.25-.58-.49-1.16-.74-1.75M26.71,10.59c.36-.5.69-.97,1.03-1.44.21.2.25.39.09.61-.36.52-.72,1.04-1.1,1.58-.43-.56-.85-1.1-1.01-1.78-.11-.46,0-.9.21-1.31.5-.99,1.24-1.81,1.94-2.71.24.29.48.57.69.85.43.61.89,1.2,1.28,1.84.33.54.3,1.13.04,1.71-.35.78-.9,1.44-1.42,2.11-.18.23-.37.46-.58.73-.22-.28-.43-.54-.62-.81-.11-.17-.11-.37.07-.55.18.22.35.43.55.67.15-.19.3-.36.43-.54.33-.46.67-.92.96-1.41.42-.69.42-1.41-.03-2.1-.42-.62-.87-1.22-1.33-1.85-.14.17-.25.3-.35.42-.45.59-.92,1.16-1.22,1.85-.34.77-.1,1.44.38,2.11M25.46,14.12c-.48-.34-.95-.67-1.42-1,.15-.2.33-.27.54-.13.55.36,1.09.75,1.66,1.14-.63.46-1.21.95-2,1.04-.4.04-.77-.07-1.13-.25-.98-.5-1.8-1.23-2.7-1.92.2-.16.37-.31.55-.45.59-.45,1.18-.91,1.78-1.32.75-.52,1.54-.55,2.34-.1.92.52,1.71,1.2,2.57,1.88-.31.22-.58.45-.88.64-.16.1-.33.06-.49-.1.22-.18.43-.36.69-.57-.55-.4-1.06-.78-1.59-1.15-.19-.13-.4-.24-.62-.34-.56-.27-1.13-.28-1.66.05-.69.43-1.35.92-2.06,1.41.11.1.16.16.22.2.49.36.98.73,1.48,1.07.22.15.46.26.71.35.65.25,1.43.07,1.97-.43M27.86,13.18c.22.28.43.54.61.8.12.17.11.37-.05.57-.18-.22-.36-.43-.57-.67-.6.78-1.25,1.49-1.59,2.41-.18.48-.12.95.11,1.4.39.75.94,1.37,1.48,2.05.17-.2.33-.39.46-.58.34-.5.71-.99,1-1.52.42-.75.28-1.55-.31-2.24-.17.24-.34.48-.51.72-.17.23-.33.47-.5.7-.21-.19-.25-.37-.11-.58.36-.54.74-1.07,1.13-1.63.45.61.95,1.17,1.02,1.93.03.33-.03.7-.16,1-.46,1.08-1.27,1.93-2,2.88-.4-.5-.79-.96-1.15-1.44-.28-.37-.54-.75-.77-1.14-.34-.58-.37-1.2-.08-1.82.49-1.05,1.27-1.9,2-2.84M34.59,12.97c-.7-.55-1.37-1.13-2.19-1.5-.71-.31-1.48-.17-2.12.37.48.34.95.67,1.42,1.02-.19.21-.36.25-.56.11-.54-.36-1.08-.74-1.64-1.13.51-.39.99-.76,1.59-.96.65-.22,1.25-.04,1.78.31.81.54,1.57,1.15,2.36,1.73.02.01.02.04.05.08-.46.37-.92.75-1.39,1.1-.37.28-.75.54-1.15.77-.66.39-1.35.41-2,.02-.65-.39-1.26-.84-1.88-1.27-.27-.19-.51-.41-.83-.66.33-.23.62-.46.93-.64.1-.06.28.01.42.02,0,.03,0,.05,0,.08-.21.17-.42.36-.66.55.81.6,1.53,1.28,2.48,1.61.49.17.98.1,1.4-.17.66-.43,1.29-.93,1.94-1.4.02-.01.02-.04.04-.08M27.86,14.71c.2.25.21.39.05.61-.2.27-.4.54-.6.81-.33.47-.34.94,0,1.4.17.22.34.45.54.72.34-.49.81-.87.78-1.49-.01-.28.09-.46.25-.63.28.28.37.76.13,1.16-.34.57-.74,1.1-1.11,1.64h-.11c-.38-.54-.77-1.07-1.13-1.62-.19-.28-.18-.63,0-.92.3-.49.64-.95.98-1.43.05-.08.13-.16.21-.25M24.76,14.05c-.44.29-.87.33-1.28.07-.52-.33-1.02-.71-1.58-1.1.6-.45,1.09-.95,1.74-1.23.3-.13.61-.12.88.05.56.36,1.1.73,1.65,1.11-.21.25-.4.27-.63.1-.28-.2-.56-.42-.85-.62-.44-.3-.89-.3-1.33.02-.24.17-.48.35-.74.55.42.33.78.66,1.27.79.08.02.18.04.25.02.28-.09.43.1.63.26M27.83,7.04c.46.6.98,1.08,1.24,1.74.08.21.09.51.01.72-.25.69-.77,1.21-1.22,1.78-.19-.24-.2-.4-.04-.63.22-.31.45-.61.66-.93.24-.38.24-.77-.01-1.14-.18-.27-.38-.53-.6-.84-.37.55-.88.96-.8,1.69.02.15-.14.32-.24.51-.3-.43-.37-.86-.11-1.26.34-.55.72-1.06,1.12-1.63M33.16,12.99c-.39-.25-.71-.48-1.06-.67-.13-.07-.31-.13-.45-.1-.29.06-.47-.09-.68-.26.39-.27.8-.35,1.2-.11.55.34,1.08.73,1.67,1.13-.62.45-1.1.96-1.74,1.24-.3.13-.61.12-.88-.05-.55-.35-1.09-.74-1.65-1.11.22-.25.39-.26.61-.11.28.2.56.42.85.62.46.32.92.32,1.37-.01.23-.17.46-.34.75-.57M23.55,17.33c.05-1.16.41-1.52,1.6-1.62-.03,1.05-.3,1.57-1.6,1.62ZM30.59,10.3c.08-1.3.49-1.52,1.6-1.63-.03,1.04-.27,1.54-1.6,1.63ZM23.55,8.68c1.1.11,1.53.31,1.62,1.61-1.11-.03-1.56-.36-1.62-1.61ZM32.22,17.33c-1.2-.05-1.58-.46-1.61-1.61,1.18.08,1.53.43,1.61,1.61Z"/></g></svg>