<?xml version="1.0" encoding="UTF-8"?><svg id="a" xmlns="http://www.w3.org/2000/svg" viewBox="0 0 112.17 40"><defs><style>.b{fill:#194458;}</style></defs><path class="b" d="M72.51,23.76c-.29-.35-.45-.53-.6-.71-3.55-4.36-7.1-8.73-10.66-13.08-.15-.19-.35-.45-.54-.46-.99-.05-1.98-.02-2.96-.02v21.02h3.8v-14.19c.27.32.42.48.56.65,3.57,4.38,7.14,8.76,10.71,13.13.14.17.32.41.49.42,1.01.04,2.02.02,3.02.02V9.52h-3.81v14.24ZM93.25,30.5V12.76h6.92v-3.25h-17.76v3.3h6.95v17.69h3.89ZM48.96,30.55V9.5h-3.86v21.05h3.86ZM30.23,16.51c-4.57.62-8.62,2.25-12.21,5.24V5.85h-6.02v28.26h6c.01-.07.03-.11.03-.15.05-2.54,1.04-4.69,2.74-6.52,2.85-3.08,6.49-4.55,10.58-4.97,1.47-.15,2.96-.08,4.44-.11.14,0,.29,0,.42,0V5.85h-5.99v10.66ZM32.77,27.14c-1.93,0-3.52,1.59-3.52,3.5,0,1.92,1.6,3.51,3.52,3.51,1.92,0,3.51-1.59,3.51-3.51,0-1.92-1.59-3.5-3.52-3.5Z"/><path class="b" d="M72.51,23.76v-14.24h3.81v21.01c-1,0-2.02.02-3.02-.02-.17,0-.35-.25-.49-.42-3.57-4.38-7.14-8.76-10.71-13.13-.14-.17-.28-.33-.56-.65v14.19h-3.8V9.48c.98,0,1.97-.02,2.96.02.19,0,.39.28.54.46,3.56,4.36,7.11,8.72,10.66,13.08.15.19.31.37.6.71Z"/><path class="b" d="M93.25,30.5h-3.89V12.81h-6.95v-3.3h17.76v3.25h-6.92v17.74Z"/><path class="b" d="M48.96,30.55h-3.86V9.5h3.86v21.05Z"/></svg>