<?xml version="1.0" encoding="UTF-8"?><svg id="a" xmlns="http://www.w3.org/2000/svg" viewBox="0 0 142.61 40"><defs><style>.b{fill:#f3be64;}</style></defs><path class="b" d="M31.87,20.9c-2.65,4.55-4.96,6.54-9.35,6.54h-3.16v-10.3h1.64c4.23,0,6.03.85,6.79,4.04v-8.62c-.76,3.22-2.56,4.08-6.79,4.08h-1.64V6.34h3.22c4.39,0,5.59,1.58,8.15,5.43l.13-.06-1.23-5.88H12v.16c1.29.16,2.4.51,2.4,1.64v17.88c0,1.14-1.11,1.8-2.4,2.27v.16h17l1.07.69.19-.69,1.74-6.98-.13-.06Z"/><path class="b" d="M46,27.95h6.07c-.95-.63-1.23-1.23-1.23-2.94v-6.83c0-4.77-2.81-5.75-4.77-5.75-2.81,0-5.31,1.77-6.7,2.75v-.38l.16-2.34-6.73.47v.13c.66.06,1.48.28,1.93.57v12.13l-.19,2.18h6.07c-.95-.63-1.23-1.23-1.23-2.94v-9.04c1.07-.82,2.59-2.02,4.45-2.02,1.39,0,2.37.79,2.37,4.3v7.52l-.19,2.18Z"/><path class="b" d="M55.06,27.95h6.07c-.95-.63-1.23-1.23-1.23-2.94v-10.21l.16-2.34-6.73.47v.13c.66.06,1.49.28,1.93.57v12.13l-.19,2.18ZM57.46,10.66c1.45,0,2.59-1.14,2.59-2.62s-1.14-2.59-2.59-2.59-2.59,1.14-2.59,2.59,1.14,2.62,2.59,2.62Z"/><path class="b" d="M72.72,27.16c-2.94,0-5.15-3.44-5.15-8.06,0-3.63,1.3-6.07,4.11-6.07,1.39,0,2.5.6,3.48,1.67v11.41c-.63.73-1.48,1.04-2.43,1.04M73.01,12.43c-6.76,0-9.98,3.92-9.98,8.56,0,4.3,2.88,7.17,7.61,7.17,1.9,0,3.44-.51,4.52-1.33v2.72c0,2.65-1.39,3.92-2.84,3.92-1.17,0-2.72-.22-4.01-3.03l-4.14,1.23c1.2,2.15,3.38,2.88,5.21,2.88,3.79,0,10.43-3.51,10.43-5.47v-15.48c-2.27-.79-4.77-1.17-6.79-1.17Z"/><path class="b" d="M104.63,27.95h6.07c-.95-.63-1.23-1.23-1.23-2.94v-6.82c0-4.77-2.75-5.75-4.64-5.75-2.84,0-5.21,2.15-6.29,3-.82-2.43-2.78-3-4.23-3-2.5,0-4.61,1.64-5.88,2.65v-.28l.16-2.34-6.73.47v.13c.66.06,1.49.28,1.93.57v12.13l-.19,2.18h6.07c-.95-.63-1.23-1.23-1.23-2.94v-9.13c1.01-.82,2.34-1.93,3.79-1.93s2.09.85,2.09,4.3v7.52l-.19,2.18h6.07c-.95-.63-1.23-1.23-1.23-2.94v-6.82c0-.82-.09-1.52-.22-2.12.95-.79,2.43-2.12,4.01-2.12,1.39,0,2.09.85,2.09,4.3v7.52l-.19,2.18Z"/><path class="b" d="M117.15,19.1c0-3.63,1.3-6.07,4.11-6.07,1.39,0,2.5.6,3.48,1.67v10.24c0,.44-.03.79-.06,1.07-.63.7-1.45,1.07-2.37,1.07-2.94,0-5.15-3.38-5.15-7.99M129.37,25.36v-11.75c-2.27-.79-4.77-1.17-6.79-1.17-6.76,0-9.98,3.92-9.98,8.56,0,4.3,2.88,7.17,7.61,7.17,1.48,0,2.75-.32,3.76-.85,0,.03-.03.03-.03.03l6.67.98v-.09c-.95-.63-1.23-1.17-1.23-2.87Z"/></svg>